<svg viewBox="-375,-375,750,750" xmlns="http://www.w3.org/2000/svg" xmlns:xlink="http://www.w3.org/1999/xlink"><g font-size="16" font-family="sans-serif"><g><path fill="#e41a1c" d="M1.8369701987210297e-14,-300A300,300,0,0,1,0.5923027059181509,-299.99941529527115L0.5626875706222434,-284.99944453050756A285,285,0,0,0,1.7451216887849784e-14,-285Z"/><text dy="0.35em" transform="&#xA;        rotate(-89.9434392211819)&#xA;        translate(305)&#xA;        &#xA;      ">AE</text></g><g><path fill="#377eb8" d="M11.11607363899457,-299.7939841071739A300,300,0,0,1,14.07496566383269,-299.66964367710307L13.371217380641056,-284.68616149324794A285,285,0,0,0,10.56026995704484,-284.8042849018152Z"/><text dy="0.35em" transform="&#xA;        rotate(-87.59369631974411)&#xA;        translate(305)&#xA;        &#xA;      ">AR</text></g><g><path fill="#4daf4a" d="M24.578869311438666,-298.991436638863A300,300,0,0,1,126.53982599590431,-272.0067507194008L120.21283469610908,-258.4064131834308A285,285,0,0,0,23.349925845866732,-284.0418648069198Z"/><text dy="0.35em" transform="&#xA;        rotate(-75.17613478868486)&#xA;        translate(305)&#xA;        &#xA;      ">AT</text></g><g><path fill="#984ea3" d="M136.00407762855488,-267.4002447052097A300,300,0,0,1,160.19653276798752,-253.6475327873605L152.18670612958815,-240.96515614799247A285,285,0,0,0,129.20387374712715,-254.0302324699492Z"/><text dy="0.35em" transform="&#xA;        rotate(-60.38302054726552)&#xA;        translate(305)&#xA;        &#xA;      ">AU</text></g><g><path fill="#ff7f00" d="M168.99601741908666,-247.87163229479842A300,300,0,0,1,171.92039402529383,-245.85235023930053L163.32437432402915,-233.55973272733553A285,285,0,0,0,160.54621654813232,-235.4780506800585Z"/><text dy="0.35em" transform="&#xA;        rotate(-55.37492104137713)&#xA;        translate(305)&#xA;        &#xA;      ">BE</text></g><g><path fill="#ffff33" d="M180.43920345471548,-239.66996861648687A300,300,0,0,1,182.32632045461443,-238.23751356468034L173.2100044318837,-226.32563788644632A285,285,0,0,0,171.4172432819797,-227.68647018566253Z"/><text dy="0.35em" transform="&#xA;        rotate(-52.79893502466694)&#xA;        translate(305)&#xA;        &#xA;      ">BG</text></g><g><path fill="#a65628" d="M190.57159249259962,-231.69477364592095A300,300,0,0,1,203.0824076993279,-220.81108596047432L192.9282873143615,-209.7705316624506A285,285,0,0,0,181.04301286796962,-220.1100349636249Z"/><text dy="0.35em" transform="&#xA;        rotate(-48.97861187395861)&#xA;        translate(305)&#xA;        &#xA;      ">BR</text></g><g><path fill="#f781bf" d="M210.70357599710587,-213.55093786268378A300,300,0,0,1,262.7183089047892,-144.84160371318657L249.5823934595497,-137.59952352752723A285,285,0,0,0,200.16839719725058,-202.87339096954958Z"/><text dy="0.35em" transform="&#xA;        rotate(-37.12665813108035)&#xA;        translate(305)&#xA;        &#xA;      ">CA</text></g><g><path fill="#999999" d="M267.63772171232114,-135.536157229863A300,300,0,0,1,282.78282442547055,-100.16922785942542L268.64368320419703,-95.16076646645415A285,285,0,0,0,254.2558356267051,-128.75934936836984Z"/><text dy="0.35em" transform="&#xA;        rotate(-23.18195557193245)&#xA;        translate(305)&#xA;        &#xA;      ">CH</text></g><g><path fill="#e41a1c" d="M286.1227571289885,-90.18740407011316A300,300,0,0,1,297.1115092495743,41.53012245876644L282.25593378709556,39.453616335828116A285,285,0,0,0,271.81661927253907,-85.6780338666075Z"/><text dy="0.35em" transform="&#xA;        rotate(-4.768951486154791)&#xA;        translate(305)&#xA;        &#xA;      ">CN</text></g><g><path fill="#377eb8" d="M295.47173559259136,51.927386472860334A300,300,0,0,1,294.3889910921937,57.75051448879304L279.66954153758405,54.86298876435338A285,285,0,0,0,280.6981488129618,49.331017149217324Z"/><text dy="0.35em" transform="&#xA;        rotate(10.533209764627486)&#xA;        translate(305)&#xA;        &#xA;      ">CZ</text></g><g><path fill="#4daf4a" d="M292.18187338697953,68.04228732248104A300,300,0,0,1,206.15220936715502,217.9478528755002L195.84459889879727,207.05046023172517A285,285,0,0,0,277.57277971763057,64.64017295635699Z"/><text dy="0.35em" transform="&#xA;        rotate(29.8511863114947)&#xA;        translate(305)&#xA;        &#xA;      ">DE</text></g><g><path fill="#984ea3" d="M198.37959641976738,225.04563031600995A300,300,0,0,1,190.25830661509653,231.9521001499144L180.7453912843417,220.3544951424187A285,285,0,0,0,188.460616598779,213.79334880020946Z"/><text dy="0.35em" transform="&#xA;        rotate(49.62164908890668)&#xA;        translate(305)&#xA;        &#xA;      ">DK</text></g><g><path fill="#ff7f00" d="M182.00420026039288,238.48369144990775A300,300,0,0,1,175.823892496102,243.07603507445805L167.0326978712969,230.92223332073516A285,285,0,0,0,172.90399024737323,226.5595068774124Z"/><text dy="0.35em" transform="&#xA;        rotate(53.38541146079686)&#xA;        translate(305)&#xA;        &#xA;      ">ES</text></g><g><path fill="#ffff33" d="M167.1884372580901,249.09441271774378A300,300,0,0,1,154.6948629579304,257.039878957385L146.96011981003392,244.18788500951575A285,285,0,0,0,158.8290153951856,236.6396920818566Z"/><text dy="0.35em" transform="&#xA;        rotate(57.545099284413766)&#xA;        translate(305)&#xA;        &#xA;      ">FI</text></g><g><path fill="#a65628" d="M145.58255396203091,262.3084443587212A300,300,0,0,1,58.63194947121228,294.2147081660011L55.700351997651666,279.5039727577011A285,285,0,0,0,138.30342626392937,249.19302214078516Z"/><text dy="0.35em" transform="&#xA;        rotate(69.8495392578368)&#xA;        translate(305)&#xA;        &#xA;      ">FR</text></g><g><path fill="#f781bf" d="M48.27465590154924,296.0904550936876A300,300,0,0,1,-49.607948856257956,295.8699907227411L-47.127551413445055,281.076491186604A285,285,0,0,0,45.86092310647177,281.2859323390032Z"/><text dy="0.35em" transform="&#xA;        rotate(90.12904904461163)&#xA;        translate(305)&#xA;        rotate(180)&#xA;      " text-anchor="end">GB</text></g><g><path fill="#999999" d="M-59.95668776483004,293.94760688304757A300,300,0,0,1,-69.78707807323232,291.7700528395616L-66.29772416957071,277.18155019758353A285,285,0,0,0,-56.95885337658854,279.25022653889516Z"/><text dy="0.35em" transform="&#xA;        rotate(102.49004979685279)&#xA;        translate(305)&#xA;        rotate(180)&#xA;      " text-anchor="end">HR</text></g><g><path fill="#e41a1c" d="M-79.97956855532627,289.14229820921025A300,300,0,0,1,-80.55027855930204,288.983827616735L-76.52276463133694,274.5346362358983A285,285,0,0,0,-75.98059012755995,274.68518329874973Z"/><text dy="0.35em" transform="&#xA;        rotate(105.51852204410773)&#xA;        translate(305)&#xA;        rotate(180)&#xA;      " text-anchor="end">HU</text></g><g><path fill="#377eb8" d="M-90.63840194471938,285.98020926789235A300,300,0,0,1,-92.33067176200609,285.43834194441484L-87.7141381739058,271.1664248471941A285,285,0,0,0,-86.10648184748341,271.6811988044977Z"/><text dy="0.35em" transform="&#xA;        rotate(107.75514338790933)&#xA;        translate(305)&#xA;        rotate(180)&#xA;      " text-anchor="end">IE</text></g><g><path fill="#4daf4a" d="M-102.28716670615465,282.0236435606549A300,300,0,0,1,-114.98398929898838,277.0896645580454L-109.23478983403896,263.2351813301431A285,285,0,0,0,-97.17280837084692,267.92246138262215Z"/><text dy="0.35em" transform="&#xA;        rotate(111.23610186570909)&#xA;        translate(305)&#xA;        rotate(180)&#xA;      " text-anchor="end">IL</text></g><g><path fill="#984ea3" d="M-124.63366493554435,272.8854147160204A300,300,0,0,1,-129.4626605689791,270.6278247305722L-122.98952754053013,257.0964334940436A285,285,0,0,0,-118.40198168876712,259.2411439802194Z"/><text dy="0.35em" transform="&#xA;        rotate(115.05642501641742)&#xA;        translate(305)&#xA;        rotate(180)&#xA;      " text-anchor="end">IN</text></g><g><path fill="#ff7f00" d="M-138.8767397243863,265.91963290348656A300,300,0,0,1,-148.23736301129458,260.81733877842106L-140.82549486072986,247.77647183950003A285,285,0,0,0,-131.932902738167,252.62365125831224Z"/><text dy="0.35em" transform="&#xA;        rotate(118.59394427303528)&#xA;        translate(305)&#xA;        rotate(180)&#xA;      " text-anchor="end">IT</text></g><g><path fill="#ffff33" d="M-157.29572918416682,255.456559086709A300,300,0,0,1,-163.3033270728402,251.65854518959011L-155.1381607191982,239.0756179301106A285,285,0,0,0,-149.43094272495847,242.68373113237357Z"/><text dy="0.35em" transform="&#xA;        rotate(122.30114586610745)&#xA;        translate(305)&#xA;        rotate(180)&#xA;      " text-anchor="end">JP</text></g><g><path fill="#a65628" d="M-172.03112473898008,245.77488098062722A300,300,0,0,1,-193.159873451958,229.54141954780965L-183.5018797793601,218.06434857041918A285,285,0,0,0,-163.4295685020311,233.48613693159587Z"/><text dy="0.35em" transform="&#xA;        rotate(127.53548848726825)&#xA;        translate(305)&#xA;        rotate(180)&#xA;      " text-anchor="end">KR</text></g><g><path fill="#f781bf" d="M-201.09341381983685,222.62398549636075A300,300,0,0,1,-201.97091629785126,221.8281969673972L-191.8723704829587,210.73678711902733A285,285,0,0,0,-191.038743128845,211.4927862215427Z"/><text dy="0.35em" transform="&#xA;        rotate(132.20422332024808)&#xA;        translate(305)&#xA;        rotate(180)&#xA;      " text-anchor="end">MK</text></g><g><path fill="#999999" d="M-209.62844951373557,214.60641452311535A300,300,0,0,1,-210.47422665395973,213.77698640035504L-199.95051532126175,203.08813708033728A285,285,0,0,0,-199.1470270380488,203.8760937969596Z"/><text dy="0.35em" transform="&#xA;        rotate(134.44084466404965)&#xA;        translate(305)&#xA;        rotate(180)&#xA;      " text-anchor="end">MY</text></g><g><path fill="#e41a1c" d="M-217.84408533620203,206.2618590142965A300,300,0,0,1,-248.574847003378,167.95995188510628L-236.1461046532091,159.56195429085096A285,285,0,0,0,-206.95188106939193,195.94876606358167Z"/><text dy="0.35em" transform="&#xA;        rotate(141.2588890921172)&#xA;        translate(305)&#xA;        rotate(180)&#xA;      " text-anchor="end">NL</text></g><g><path fill="#377eb8" d="M-254.3139689419099,159.136435805925A300,300,0,0,1,-266.3489426323247,138.0515873093918L-253.03149550070842,131.14900794392221A285,285,0,0,0,-241.59827049481441,151.17961401562877Z"/><text dy="0.35em" transform="&#xA;        rotate(150.2828038940906)&#xA;        translate(305)&#xA;        rotate(180)&#xA;      " text-anchor="end">NO</text></g><g><path fill="#4daf4a" d="M-271.0279234387709,128.6229556357174A300,300,0,0,1,-272.5325469453974,125.4033925197191L-258.9059195981276,119.13322289373315A285,285,0,0,0,-257.47652726683236,122.19180785393154Z"/><text dy="0.35em" transform="&#xA;        rotate(154.95153872707053)&#xA;        translate(305)&#xA;        rotate(180)&#xA;      " text-anchor="end">NZ</text></g><g><path fill="#984ea3" d="M-276.764016425317,115.76562189236871A300,300,0,0,1,-277.2189798074203,114.67186766828699L-263.35803081704927,108.93827428487263A285,285,0,0,0,-262.92581560405114,109.97734079775027Z"/><text dy="0.35em" transform="&#xA;        rotate(157.41440318614454)&#xA;        translate(305)&#xA;        rotate(180)&#xA;      " text-anchor="end">PE</text></g><g><path fill="#ff7f00" d="M-281.0710972643042,104.87629990917888A300,300,0,0,1,-281.6873489028247,103.20967720179304L-267.6029814576834,98.04919334170339A285,285,0,0,0,-267.01754240108903,99.63248491371995Z"/><text dy="0.35em" transform="&#xA;        rotate(159.70758530876427)&#xA;        translate(305)&#xA;        rotate(180)&#xA;      " text-anchor="end">PL</text></g><g><path fill="#ffff33" d="M-285.1346164275363,93.26441183389174A300,300,0,0,1,-285.68201961766,91.57392460288537L-271.397918636777,86.9952283727411A285,285,0,0,0,-270.87788560615945,88.60119124219715Z"/><text dy="0.35em" transform="&#xA;        rotate(162.05732821020212)&#xA;        translate(305)&#xA;        rotate(180)&#xA;      " text-anchor="end">QA</text></g><g><path fill="#a65628" d="M-288.71864012683636,81.49568604110495A300,300,0,0,1,-289.19627433022293,79.78417708743028L-274.7364606137118,75.79496823305877A285,285,0,0,0,-274.28270812049453,77.4209017390497Z"/><text dy="0.35em" transform="&#xA;        rotate(164.40707111163997)&#xA;        translate(305)&#xA;        rotate(180)&#xA;      " text-anchor="end">RU</text></g><g><path fill="#f781bf" d="M-291.8171413033789,69.58991336051362A300,300,0,0,1,-295.11050825680115,53.94245004087695L-280.35498284396107,51.2453275388331A285,285,0,0,0,-277.22628423821,66.11041769248794Z"/><text dy="0.35em" transform="&#xA;        rotate(168.11427270471216)&#xA;        translate(305)&#xA;        rotate(180)&#xA;      " text-anchor="end">SA</text></g><g><path fill="#999999" d="M-296.82119373102614,43.556617776046934A300,300,0,0,1,-298.37150063682293,31.21614338335787L-283.45292560498183,29.655336214189976A285,285,0,0,0,-281.9801340444748,41.37878688724459Z"/><text dy="0.35em" transform="&#xA;        rotate(172.8395683165101)&#xA;        translate(305)&#xA;        rotate(180)&#xA;      " text-anchor="end">SE</text></g><g><path fill="#e41a1c" d="M-299.28292827853693,20.72990209875888A300,300,0,0,1,-299.8849673214777,8.307007559660878L-284.8907189554038,7.891657181677833A285,285,0,0,0,-284.31878186461006,19.693406993820936Z"/><text dy="0.35em" transform="&#xA;        rotate(177.22549925539948)&#xA;        translate(305)&#xA;        rotate(180)&#xA;      " text-anchor="end">SG</text></g><g><path fill="#377eb8" d="M-299.991799009513,-2.218226101182006A300,300,0,0,1,-299.96492605493006,-4.58727989775692L-284.96667975218355,-4.357915902869074A285,285,0,0,0,-284.99220905903735,-2.1073147961229055Z"/><text dy="0.35em" transform="&#xA;        rotate(180.64989695438118)&#xA;        translate(305)&#xA;        rotate(180)&#xA;      " text-anchor="end">SK</text></g><g><path fill="#4daf4a" d="M-299.6193702178765,-15.10738197845874A300,300,0,0,1,-299.5573801967504,-16.290364319422828L-284.5795111869129,-15.475846103451687A285,285,0,0,0,-284.6384017069827,-14.352012879535804Z"/><text dy="0.35em" transform="&#xA;        rotate(182.999639855819)&#xA;        translate(305)&#xA;        rotate(180)&#xA;      " text-anchor="end">TR</text></g><g><path fill="#984ea3" d="M-298.80152492095715,-26.788966103801734A300,300,0,0,1,-298.7480519617016,-27.378850397495082L-283.81064936361656,-26.00990787762033A285,285,0,0,0,-283.8614486749093,-25.449517798611648Z"/><text dy="0.35em" transform="&#xA;        rotate(185.17970042080253)&#xA;        translate(305)&#xA;        rotate(180)&#xA;      " text-anchor="end">TW</text></g><g><path fill="#ff7f00" d="M-297.6037049781012,-37.84223544278675A300,300,0,0,1,-21.626160443750322,-299.2195000070369L-20.544852421562805,-284.2585250066851A285,285,0,0,0,-282.72351972919614,-35.950123670647415Z"/><text dy="0.35em" transform="&#xA;        rotate(226.55638070672808)&#xA;        translate(305)&#xA;        rotate(180)&#xA;      " text-anchor="end">US</text></g><g><path fill="#ffff33" d="M-11.116073638989945,-299.7939841071741A300,300,0,0,1,-10.524156013571611,-299.8153467389587L-9.99794821289303,-284.8245794020107A285,285,0,0,0,-10.560269957040449,-284.8042849018154Z"/><text dy="0.35em" transform="&#xA;        rotate(267.9330609926536)&#xA;        translate(305)&#xA;        rotate(180)&#xA;      " text-anchor="end">ZA</text></g></g><g fill-opacity="0.75"><path style="mix-blend-mode: multiply;" fill="#999999" d="M10.803375475020161,-283.7944451153788Q0,0,262.3756671167181,-108.69686888340956Q0,0,10.803375475020161,-283.7944451153788Z"><title>AR &lt;&gt; CH 1</title></path><path style="mix-blend-mode: multiply;" fill="#377eb8" d="M11.363661811625585,-283.7725624337755Q0,0,279.0593722616015,52.743404829048856Q0,0,11.363661811625585,-283.7725624337755Z"><title>AR &lt;&gt; CZ 1</title></path><path style="mix-blend-mode: multiply;" fill="#ff7f00" d="M11.923903852319018,-283.74957359777767Q0,0,-176.66328433081443,-222.3647543327175Q0,0,11.923903852319018,-283.74957359777767Z"><title>AR &lt;&gt; US 1</title></path><path style="mix-blend-mode: multiply;" fill="#984ea3" d="M109.27372087914435,-262.13594550390616Q0,0,150.46567834007828,-240.86527280133203Q0,0,109.27372087914435,-262.13594550390616Z"><title>AT &lt;&gt; AU 1</title></path><path style="mix-blend-mode: multiply;" fill="#4daf4a" d="M161.6005555269777,-233.54070406113837Q0,0,108.75596180347198,-262.3511783320246Q0,0,161.6005555269777,-233.54070406113837Z"><title>BE &lt;&gt; AT 1</title></path><path style="mix-blend-mode: multiply;" fill="#984ea3" d="M162.06132986813907,-233.22119406556988Q0,0,149.9898345706263,-241.16187411254742Q0,0,162.06132986813907,-233.22119406556988Z"><title>BE &lt;&gt; AU 1</title></path><path style="mix-blend-mode: multiply;" fill="#ff7f00" d="M162.5214724891276,-232.90077496643445Q0,0,-138.62185545254883,247.8708962159387Q0,0,162.5214724891276,-232.90077496643445Z"><title>BE &lt;&gt; IT 1</title></path><path style="mix-blend-mode: multiply;" fill="#e41a1c" d="M211.64511916628334,-189.37355552740127Q0,0,-225.66295970411107,172.43035874688874Q0,0,211.64511916628334,-189.37355552740127Z"><title>CA &lt;&gt; NL 1</title></path><path style="mix-blend-mode: multiply;" fill="#ff7f00" d="M262.5897605742887,-108.17863763949771Q0,0,161.13915126175618,-233.85930370767986Q0,0,262.5897605742887,-108.17863763949771Z"><title>CH &lt;&gt; BE 1</title></path><path style="mix-blend-mode: multiply;" fill="#f781bf" d="M262.8028304486942,-107.65998471184592Q0,0,211.27081843538252,-189.791046357945Q0,0,262.8028304486942,-107.65998471184592Z"><title>CH &lt;&gt; CA 1</title></path><path style="mix-blend-mode: multiply;" fill="#ff7f00" d="M263.01487590938154,-107.14091212217969Q0,0,-266.56744192906206,97.9683566433372Q0,0,263.01487590938154,-107.14091212217969Z"><title>CH &lt;&gt; PL 1</title></path><path style="mix-blend-mode: multiply;" fill="#e41a1c" d="M263.2258961297909,-106.62142189386027Q0,0,-283.848828950944,9.265112151384768Q0,0,263.2258961297909,-106.62142189386027Z"><title>CH &lt;&gt; SG 1</title></path><path style="mix-blend-mode: multiply;" fill="#ff7f00" d="M263.4358902873587,-106.10151605187701Q0,0,-177.1019641635954,-222.01552713582123Q0,0,263.4358902873587,-106.10151605187701Z"><title>CH &lt;&gt; US 1</title></path><path style="mix-blend-mode: multiply;" fill="#a65628" d="M271.2809864293413,-84.03943361258173Q0,0,189.97017338598124,-211.1097658179276Q0,0,271.2809864293413,-84.03943361258173Z"><title>CN &lt;&gt; BR 1</title></path><path style="mix-blend-mode: multiply;" fill="#ff7f00" d="M271.44638031153113,-83.50366827731344Q0,0,167.127367502288,229.61803725264087Q0,0,271.44638031153113,-83.50366827731344Z"><title>CN &lt;&gt; ES 1</title></path><path style="mix-blend-mode: multiply;" fill="#984ea3" d="M271.61071608717293,-82.9675774421137Q0,0,-122.30501782975384,256.3152016827398Q0,0,271.61071608717293,-82.9675774421137Z"><title>CN &lt;&gt; IN 1</title></path><path style="mix-blend-mode: multiply;" fill="#ffff33" d="M271.7739931156807,-82.43116319668148Q0,0,-154.35856039574014,238.3892506648625Q0,0,271.7739931156807,-82.43116319668148Z"><title>CN &lt;&gt; JP 1</title></path><path style="mix-blend-mode: multiply;" fill="#a65628" d="M271.93621076059543,-81.89442763197641Q0,0,-164.91681647632302,231.21082077470942Q0,0,271.93621076059543,-81.89442763197641Z"><title>CN &lt;&gt; KR 1</title></path><path style="mix-blend-mode: multiply;" fill="#ffff33" d="M272.0973683895876,-81.35737284021064Q0,0,-270.18772591121945,87.49052958419986Q0,0,272.0973683895876,-81.35737284021064Z"><title>CN &lt;&gt; QA 1</title></path><path style="mix-blend-mode: multiply;" fill="#984ea3" d="M272.25746537445974,-80.8200009148407Q0,0,-282.84027087286194,-25.63944563687113Q0,0,272.25746537445974,-80.8200009148407Z"><title>CN &lt;&gt; TW 1</title></path><path style="mix-blend-mode: multiply;" fill="#e41a1c" d="M265.5873531270863,100.59501905635469Q0,0,0.28035675073959654,-283.99986161984714Q0,0,265.5873531270863,100.59501905635469Z"><title>DE &lt;&gt; AE 1</title></path><path style="mix-blend-mode: multiply;" fill="#ffff33" d="M265.38822648651876,101.11918335479291Q0,0,172.3795276118638,-225.70179099934205Q0,0,265.38822648651876,101.11918335479291Z"><title>DE &lt;&gt; BG 1</title></path><path style="mix-blend-mode: multiply;" fill="#a65628" d="M265.1880653542778,101.64295348746654Q0,0,189.5530001793198,-211.4844205208005Q0,0,265.1880653542778,101.64295348746654Z"><title>DE &lt;&gt; BR 1</title></path><path style="mix-blend-mode: multiply;" fill="#377eb8" d="M264.98687051059784,102.16632741270313Q0,0,-87.1395781253108,270.3011171344707Q0,0,264.98687051059784,102.16632741270313Z"><title>DE &lt;&gt; IE 1</title></path><path style="mix-blend-mode: multiply;" fill="#f781bf" d="M264.7846427397427,102.68930309037458Q0,0,-190.57638611568925,210.56267726043882Q0,0,264.7846427397427,102.68930309037458Z"><title>DE &lt;&gt; MK 1</title></path><path style="mix-blend-mode: multiply;" fill="#ffff33" d="M264.58138283000267,103.21187848190523Q0,0,-270.0144630530329,88.02380213432228Q0,0,264.58138283000267,103.21187848190523Z"><title>DE &lt;&gt; QA 1</title></path><path style="mix-blend-mode: multiply;" fill="#a65628" d="M264.3770915736912,103.73405155027973Q0,0,-273.3963390294325,76.87939779488134Q0,0,264.3770915736912,103.73405155027973Z"><title>DE &lt;&gt; RU 1</title></path><path style="mix-blend-mode: multiply;" fill="#ffff33" d="M264.1717697671421,104.25582026005098Q0,0,-10.243047026511922,-283.81522155728834Q0,0,264.1717697671421,104.25582026005098Z"><title>DE &lt;&gt; ZA 1</title></path><path style="mix-blend-mode: multiply;" fill="#4daf4a" d="M187.58894956577174,213.2284830898779Q0,0,108.23777879363189,-262.565388506979Q0,0,187.58894956577174,213.2284830898779Z"><title>DK &lt;&gt; AT 1</title></path><path style="mix-blend-mode: multiply;" fill="#ff7f00" d="M187.16759792690897,213.59843231229706Q0,0,160.67711887104312,-234.1769917632829Q0,0,187.16759792690897,213.59843231229706Z"><title>DK &lt;&gt; BE 1</title></path><path style="mix-blend-mode: multiply;" fill="#4daf4a" d="M186.74551670284887,213.96754892129317Q0,0,265.7854444997785,100.07046263536085Q0,0,186.74551670284887,213.96754892129317Z"><title>DK &lt;&gt; DE 1</title></path><path style="mix-blend-mode: multiply;" fill="#ffff33" d="M186.32270753887738,214.33583147803813Q0,0,148.12242760062156,242.31332287288419Q0,0,186.32270753887738,214.33583147803813Z"><title>DK &lt;&gt; FI 1</title></path><path style="mix-blend-mode: multiply;" fill="#e41a1c" d="M185.89917208311795,214.7032785469549Q0,0,-225.32208332321807,172.8755586162624Q0,0,185.89917208311795,214.7032785469549Z"><title>DK &lt;&gt; NL 1</title></path><path style="mix-blend-mode: multiply;" fill="#4daf4a" d="M166.67369715243987,229.94755636348205Q0,0,107.71917386951785,-262.7785751937714Q0,0,166.67369715243987,229.94755636348205Z"><title>ES &lt;&gt; AT 1</title></path><path style="mix-blend-mode: multiply;" fill="#4daf4a" d="M147.64372945161668,242.60529498264836Q0,0,107.20014905266807,-262.9907375613935Q0,0,147.64372945161668,242.60529498264836Z"><title>FI &lt;&gt; AT 1</title></path><path style="mix-blend-mode: multiply;" fill="#4daf4a" d="M147.16445578269975,242.89632140932437Q0,0,265.982499832429,99.54551613654887Q0,0,147.16445578269975,242.89632140932437Z"><title>FI &lt;&gt; DE 1</title></path><path style="mix-blend-mode: multiply;" fill="#a65628" d="M146.68460846209476,243.18640101848203Q0,0,61.26652870131202,277.31284222136435Q0,0,146.68460846209476,243.18640101848203Z"><title>FI &lt;&gt; FR 1</title></path><path style="mix-blend-mode: multiply;" fill="#f781bf" d="M60.71889880243669,277.4332628367036Q0,0,210.89569416417106,-190.20779737700664Q0,0,60.71889880243669,277.4332628367036Z"><title>FR &lt;&gt; CA 1</title></path><path style="mix-blend-mode: multiply;" fill="#999999" d="M4.686904426840912,283.9613229418641Q0,0,262.1605509105255,-109.21467642349975Q0,0,4.686904426840912,283.9613229418641Z"><title>GB &lt;&gt; CH 1</title></path><path style="mix-blend-mode: multiply;" fill="#e41a1c" d="M4.1262584254751715,283.97002305068435Q0,0,271.11453508531406,-84.57487135948837Q0,0,4.1262584254751715,283.97002305068435Z"><title>GB &lt;&gt; CN 1</title></path><path style="mix-blend-mode: multiply;" fill="#377eb8" d="M3.5655963398240056,283.9776162354023Q0,0,279.16296190848476,52.192343293646914Q0,0,3.5655963398240056,283.9776162354023Z"><title>GB &lt;&gt; CZ 1</title></path><path style="mix-blend-mode: multiply;" fill="#ff7f00" d="M3.0049203553658987,283.9841024664196Q0,0,167.58038638438876,229.28762308345162Q0,0,3.0049203553658987,283.9841024664196Z"><title>GB &lt;&gt; ES 1</title></path><path style="mix-blend-mode: multiply;" fill="#984ea3" d="M2.4442326576335147,283.9894817184526Q0,0,-121.7987254969307,256.5561740970646Q0,0,2.4442326576335147,283.9894817184526Z"><title>GB &lt;&gt; IN 1</title></path><path style="mix-blend-mode: multiply;" fill="#999999" d="M1.8835354322051752,283.993753970533Q0,0,-199.04905807659603,202.57214141835968Q0,0,1.8835354322051752,283.993753970533Z"><title>GB &lt;&gt; MY 1</title></path><path style="mix-blend-mode: multiply;" fill="#4daf4a" d="M1.3228308646963405,283.99691920600725Q0,0,-257.64476996307974,119.47875338599633Q0,0,1.3228308646963405,283.99691920600725Z"><title>GB &lt;&gt; NZ 1</title></path><path style="mix-blend-mode: multiply;" fill="#ff7f00" d="M0.7621211407510919,283.9989774125372Q0,0,-266.3734993091352,98.49446109201341Q0,0,0.7621211407510919,283.9989774125372Z"><title>GB &lt;&gt; PL 1</title></path><path style="mix-blend-mode: multiply;" fill="#4daf4a" d="M0.20140844603361055,283.9999285820999Q0,0,-283.59607212230003,-15.141594262269853Q0,0,0.20140844603361055,283.9999285820999Z"><title>GB &lt;&gt; TR 1</title></path><path style="mix-blend-mode: multiply;" fill="#4daf4a" d="M-108.59251030463896,262.4188764280056Q0,0,106.68070636625771,-263.2018747828296Q0,0,-108.59251030463896,262.4188764280056Z"><title>IL &lt;&gt; AT 1</title></path><path style="mix-blend-mode: multiply;" fill="#4daf4a" d="M-139.1109672848577,247.596726111375Q0,0,106.16084783509082,-263.4119860350601Q0,0,-139.1109672848577,247.596726111375Z"><title>IT &lt;&gt; AT 1</title></path><path style="mix-blend-mode: multiply;" fill="#984ea3" d="M-165.37298436678932,230.8847678856742Q0,0,149.51340613607067,-241.45753536717464Q0,0,-165.37298436678932,230.8847678856742Z"><title>KR &lt;&gt; AU 1</title></path><path style="mix-blend-mode: multiply;" fill="#ff7f00" d="M-165.82850762814934,230.5578150005348Q0,0,168.03275203286032,228.95631514387907Q0,0,-165.82850762814934,230.5578150005348Z"><title>KR &lt;&gt; ES 1</title></path><path style="mix-blend-mode: multiply;" fill="#a65628" d="M-166.2833844847585,230.22996339376414Q0,0,61.81391978132699,277.1913406318236Q0,0,-166.2833844847585,230.22996339376414Z"><title>KR &lt;&gt; FR 1</title></path><path style="mix-blend-mode: multiply;" fill="#f781bf" d="M-166.73761316349294,229.90121434333787Q0,0,-278.25270881205495,56.84566860151944Q0,0,-166.73761316349294,229.90121434333787Z"><title>KR &lt;&gt; SA 1</title></path><path style="mix-blend-mode: multiply;" fill="#a65628" d="M-190.99173749099762,210.1860038398605Q0,0,62.36106990873392,277.06875854169846Q0,0,-190.99173749099762,210.1860038398605Z"><title>MK &lt;&gt; FR 1</title></path><path style="mix-blend-mode: multiply;" fill="#377eb8" d="M-226.00295644367293,171.98448673854068Q0,0,279.2654633693417,51.64107831084541Q0,0,-226.00295644367293,171.98448673854068Z"><title>NL &lt;&gt; CZ 1</title></path><path style="mix-blend-mode: multiply;" fill="#999999" d="M-240.89915653854447,150.41142369852716Q0,0,261.9444127942407,-109.7320582413382Q0,0,-240.89915653854447,150.41142369852716Z"><title>NO &lt;&gt; CH 1</title></path><path style="mix-blend-mode: multiply;" fill="#377eb8" d="M-241.19565066648323,149.93551313672083Q0,0,279.36687624461837,51.08961202949263Q0,0,-241.19565066648323,149.93551313672083Z"><title>NO &lt;&gt; CZ 1</title></path><path style="mix-blend-mode: multiply;" fill="#ff7f00" d="M-241.49120460617186,149.45901812155742Q0,0,168.4844626843671,228.62411472537212Q0,0,-241.49120460617186,149.45901812155742Z"><title>NO &lt;&gt; ES 1</title></path><path style="mix-blend-mode: multiply;" fill="#f781bf" d="M-241.78581720553174,148.9819405104296Q0,0,-278.1399336820313,57.39492391627678Q0,0,-241.78581720553174,148.9819405104296Z"><title>NO &lt;&gt; SA 1</title></path><path style="mix-blend-mode: multiply;" fill="#4daf4a" d="M-242.0794873161537,148.5042821630009Q0,0,-283.62541407993,-14.581649014711257Q0,0,-242.0794873161537,148.5042821630009Z"><title>NO &lt;&gt; TR 1</title></path><path style="mix-blend-mode: multiply;" fill="#984ea3" d="M-257.8801597724627,118.96984153863997Q0,0,149.03639489354433,-241.75225541271692Q0,0,-257.8801597724627,118.96984153863997Z"><title>NZ &lt;&gt; AU 1</title></path><path style="mix-blend-mode: multiply;" fill="#f781bf" d="M-270.3599355691325,86.95691599323494Q0,0,-278.02607435377774,57.94395550381128Q0,0,-270.3599355691325,86.95691599323494Z"><title>QA &lt;&gt; SA 1</title></path><path style="mix-blend-mode: multiply;" fill="#984ea3" d="M-273.54759242680245,76.33946998440564Q0,0,148.5588027024523,-242.0460331003461Q0,0,-273.54759242680245,76.33946998440564Z"><title>RU &lt;&gt; AU 1</title></path><path style="mix-blend-mode: multiply;" fill="#4daf4a" d="M-273.69777952703333,75.7992446002693Q0,0,266.1785183569098,99.02018160617673Q0,0,-273.69777952703333,75.7992446002693Z"><title>RU &lt;&gt; DE 1</title></path><path style="mix-blend-mode: multiply;" fill="#f781bf" d="M-281.34597710859987,38.73552845653724Q0,0,210.51974781489506,-190.62380696007773Q0,0,-281.34597710859987,38.73552845653724Z"><title>SE &lt;&gt; CA 1</title></path><path style="mix-blend-mode: multiply;" fill="#ffff33" d="M-281.42190595525557,38.179979681912954Q0,0,148.60054836373405,242.02040621814834Q0,0,-281.42190595525557,38.179979681912954Z"><title>SE &lt;&gt; FI 1</title></path><path style="mix-blend-mode: multiply;" fill="#a65628" d="M-281.4967378104498,37.62428208052421Q0,0,62.90797695072437,276.9450964288177Q0,0,-281.4967378104498,37.62428208052421Z"><title>SE &lt;&gt; FR 1</title></path><path style="mix-blend-mode: multiply;" fill="#4daf4a" d="M-281.5704723824857,37.06843781849779Q0,0,-257.408375846261,119.98719950140533Q0,0,-281.5704723824857,37.06843781849779Z"><title>SE &lt;&gt; NZ 1</title></path><path style="mix-blend-mode: multiply;" fill="#4daf4a" d="M-283.86656822842843,8.704679328670618Q0,0,105.64057548559214,-263.62107049906484Q0,0,-283.86656822842843,8.704679328670618Z"><title>SG &lt;&gt; AT 1</title></path><path style="mix-blend-mode: multiply;" fill="#984ea3" d="M-283.8832009850808,8.144212574842024Q0,0,-121.291958388836,256.79614644733454Q0,0,-283.8832009850808,8.144212574842024Z"><title>SG &lt;&gt; IN 1</title></path><path style="mix-blend-mode: multiply;" fill="#4daf4a" d="M-283.99002503709517,-2.3802687726535017Q0,0,266.3734993091346,98.49446109201502Q0,0,-283.99002503709517,-2.3802687726535017Z"><title>SK &lt;&gt; DE 1</title></path><path style="mix-blend-mode: multiply;" fill="#ff7f00" d="M-283.98477207061035,-2.940957667749639Q0,0,-177.53995364733714,-221.66543451540065Q0,0,-283.98477207061035,-2.940957667749639Z"><title>SK &lt;&gt; US 1</title></path><path style="mix-blend-mode: multiply;" fill="#ff7f00" d="M-176.22391585898134,-222.71311474479148Q0,0,160.2144601558552,-234.4937669895895Q0,0,-176.22391585898134,-222.71311474479148Z"><title>US &lt;&gt; BE 1</title></path><path style="mix-blend-mode: multiply;" fill="#e41a1c" d="M-175.78386046076906,-223.06060701412267Q0,0,270.94702692828196,-85.10997943088017Q0,0,-175.78386046076906,-223.06060701412267Z"><title>US &lt;&gt; CN 1</title></path><path style="mix-blend-mode: multiply;" fill="#e41a1c" d="M-175.34311985152658,-223.4072297861759Q0,0,-75.98416465785009,273.64649955964853Q0,0,-175.34311985152658,-223.4072297861759Z"><title>US &lt;&gt; HU 1</title></path><path style="mix-blend-mode: multiply;" fill="#999999" d="M-174.90169574927546,-223.752981709804Q0,0,-198.64872336849194,202.9647375877602Q0,0,-174.90169574927546,-223.752981709804Z"><title>US &lt;&gt; MY 1</title></path><path style="mix-blend-mode: multiply;" fill="#ff7f00" d="M-174.45958987470001,-224.09786143725572Q0,0,-266.1785183569104,99.0201816061752Q0,0,-174.45958987470001,-224.09786143725572Z"><title>US &lt;&gt; PL 1</title></path><path style="mix-blend-mode: multiply;" fill="#4daf4a" d="M12.701773918857958,-283.71581721735964A284,284,0,0,1,12.826583626435694,-283.7102020592034Q0,0,104.80133891520782,-263.95582842888643A284,284,0,0,1,104.9174469890397,-263.909699172467Q0,0,12.701773918857958,-283.71581721735964Z"><title>AR &lt;&gt; AT 2</title></path><path style="mix-blend-mode: multiply;" fill="#a65628" d="M151.12545811599162,-240.45185777870725A284,284,0,0,1,151.23122195042907,-240.38535210652927Q0,0,63.78875047577719,276.7435551421912A284,284,0,0,1,63.667000571719655,276.77159001277687Q0,0,151.12545811599162,-240.45185777870725Z"><title>AU &lt;&gt; FR 2</title></path><path style="mix-blend-mode: multiply;" fill="#e41a1c" d="M190.54822836178712,-210.58815889832036A284,284,0,0,1,190.64085088269675,-210.50431343495404Q0,0,-224.770944979107,173.59153865669617A284,284,0,0,1,-224.84728880822396,173.49264167563743Q0,0,190.54822836178712,-210.58815889832036Z"><title>BR &lt;&gt; NL 2</title></path><path style="mix-blend-mode: multiply;" fill="#984ea3" d="M212.16350168434576,-188.792607252076A284,284,0,0,1,212.24653391646245,-188.69925500766547Q0,0,147.787989213861,-242.51744317496772A284,284,0,0,1,147.89466205391713,-242.45240550664298Q0,0,212.16350168434576,-188.792607252076Z"><title>CA &lt;&gt; AU 2</title></path><path style="mix-blend-mode: multiply;" fill="#4daf4a" d="M263.7257833502945,-105.37889350469356A284,284,0,0,1,263.77211562190513,-105.26286629359998Q0,0,266.6855081767067,97.64650392375394A284,284,0,0,1,266.6425261777341,97.76381351786745Q0,0,263.7257833502945,-105.37889350469356Z"><title>CH &lt;&gt; DE 2</title></path><path style="mix-blend-mode: multiply;" fill="#ff7f00" d="M264.1398345435916,-104.33670402731758A284,284,0,0,1,264.1857083000123,-104.22049476960284Q0,0,-137.832560639475,248.31066273433657A284,284,0,0,1,-137.94178296892545,248.25000405106516Q0,0,264.1398345435916,-104.33670402731758Z"><title>CH &lt;&gt; IT 2</title></path><path style="mix-blend-mode: multiply;" fill="#e41a1c" d="M264.54976723929315,-103.29288772048059A284,284,0,0,1,264.59518176525523,-103.17649822809234Q0,0,-224.0837357345188,174.47773319040556A284,284,0,0,1,-224.1604694806905,174.379138437476Q0,0,264.54976723929315,-103.29288772048059Z"><title>CH &lt;&gt; NL 2</title></path><path style="mix-blend-mode: multiply;" fill="#999999" d="M272.47801463756406,-80.07328854974936A284,284,0,0,1,272.51321373879443,-79.95341354660303Q0,0,261.593978119398,-110.56487060394868A284,284,0,0,1,261.6425919881018,-110.44978070484191Q0,0,272.47801463756406,-80.07328854974936Z"><title>CN &lt;&gt; CH 2</title></path><path style="mix-blend-mode: multiply;" fill="#984ea3" d="M263.8849539944969,104.9796697238196A284,284,0,0,1,263.83874629447945,105.09574660164567Q0,0,146.8292139980952,-243.09911953090565A284,284,0,0,1,146.93614281926963,-243.0345035862093Q0,0,263.8849539944969,104.9796697238196Z"><title>DE &lt;&gt; AU 2</title></path><path style="mix-blend-mode: multiply;" fill="#ff7f00" d="M263.46836592439865,106.02084774763483A284,284,0,0,1,263.4217002345201,106.13674126123638Q0,0,-136.85098748389402,248.85298315407653A284,284,0,0,1,-136.96044848338923,248.79275622740485Q0,0,263.46836592439865,106.02084774763483Z"><title>DE &lt;&gt; IT 2</title></path><path style="mix-blend-mode: multiply;" fill="#f781bf" d="M185.30985275461072,215.212124361209A284,284,0,0,1,185.2151597113579,215.29362418124737Q0,0,209.91221890379148,-191.29260402557838A284,284,0,0,1,209.99635114064776,-191.2002419130629Q0,0,185.30985275461072,215.212124361209Z"><title>DK &lt;&gt; CA 2</title></path><path style="mix-blend-mode: multiply;" fill="#999999" d="M184.45860490096857,215.94217531086505A284,284,0,0,1,184.3635907794822,216.02330058328343Q0,0,261.1553537555627,-111.5969587614595A284,284,0,0,1,261.20442169810883,-111.48206172006569Q0,0,184.45860490096857,215.94217531086505Z"><title>DK &lt;&gt; CH 2</title></path><path style="mix-blend-mode: multiply;" fill="#f781bf" d="M183.60448094830076,216.66885926617388A284,284,0,0,1,183.50914723005167,216.74960872605797Q0,0,5.590294500263887,283.94497461198415A284,284,0,0,1,5.465382212844907,283.9474063929226Q0,0,183.60448094830076,216.66885926617388Z"><title>DK &lt;&gt; GB 2</title></path><path style="mix-blend-mode: multiply;" fill="#ffff33" d="M-0.5771935500394422,283.999413463489A284,284,0,0,1,-0.7021291891604894,283.99913206663456Q0,0,-153.59935149067763,238.8791309881281A284,284,0,0,1,-153.70442321911344,238.81153716451738Q0,0,-0.5771935500394422,283.999413463489Z"><title>GB &lt;&gt; JP 2</title></path><path style="mix-blend-mode: multiply;" fill="#a65628" d="M-1.698611005023772,283.9949202374113A284,284,0,0,1,-1.8235445589943584,283.99414551226465Q0,0,-164.18039208042342,231.73432817845188A284,284,0,0,1,-164.28231967674094,231.66208028425604Q0,0,-1.698611005023772,283.9949202374113Z"><title>GB &lt;&gt; KR 2</title></path><path style="mix-blend-mode: multiply;" fill="#a65628" d="M-139.78924437763155,247.21441534896547A284,284,0,0,1,-139.89798426172038,247.15289599660255Q0,0,64.88102408901673,276.48951646158383A284,284,0,0,1,64.75938583477716,276.5180318646552Q0,0,-139.78924437763155,247.21441534896547Z"><title>IT &lt;&gt; FR 2</title></path><path style="mix-blend-mode: multiply;" fill="#f781bf" d="M-167.36727322623966,229.44323013070846A284,284,0,0,1,-167.46819262503786,229.36958050034275Q0,0,209.15522970877979,-192.11998825074807A284,284,0,0,1,209.23972599788678,-192.02795906932218Q0,0,-167.36727322623966,229.44323013070846Z"><title>KR &lt;&gt; CA 2</title></path><path style="mix-blend-mode: multiply;" fill="#4daf4a" d="M-168.2719656296302,228.78056207453588A284,284,0,0,1,-168.37259342305296,228.70651452023685Q0,0,267.0690035868538,96.59268773113773A284,284,0,0,1,267.02648514066857,96.71016613273035Q0,0,-168.2719656296302,228.78056207453588Z"><title>KR &lt;&gt; DE 2</title></path><path style="mix-blend-mode: multiply;" fill="#f781bf" d="M-169.17403431786985,228.11432684646573A284,284,0,0,1,-169.27436893691745,228.03988252279106Q0,0,6.711457911393819,283.9206866938434A284,284,0,0,1,6.586556200115445,283.9236116941011Q0,0,-169.17403431786985,228.11432684646573Z"><title>KR &lt;&gt; GB 2</title></path><path style="mix-blend-mode: multiply;" fill="#ff7f00" d="M-170.0734652258036,227.44453483451161A284,284,0,0,1,-170.17350510604757,227.36969490220548Q0,0,-135.86728053253825,249.3914234305032A284,284,0,0,1,-135.97697849535018,249.33162919949623Q0,0,-170.0734652258036,227.44453483451161Z"><title>KR &lt;&gt; IT 2</title></path><path style="mix-blend-mode: multiply;" fill="#f781bf" d="M-242.4857101257053,147.8400500028068A284,284,0,0,1,-242.55072376612907,147.73336251682267Q0,0,7.83251667672764,283.89197185286656A284,284,0,0,1,7.707627489071205,283.89539002683665Q0,0,-242.4857101257053,147.8400500028068Z"><title>NO &lt;&gt; GB 2</title></path><path style="mix-blend-mode: multiply;" fill="#a65628" d="M-278.4075086096266,56.08261004786324A284,284,0,0,1,-278.4321532699137,55.96012889083856Q0,0,65.97228607013284,276.2311667257708A284,284,0,0,1,65.85076136230838,276.2601622167125Q0,0,-278.4075086096266,56.08261004786324Z"><title>SA &lt;&gt; FR 2</title></path><path style="mix-blend-mode: multiply;" fill="#4daf4a" d="M-281.6710393586253,36.29635775985991A284,284,0,0,1,-281.6869794274698,36.17244284020934Q0,0,267.44833482747674,95.53736545462148A284,284,0,0,1,267.40628059703124,95.65501083195691Q0,0,-281.6710393586253,36.29635775985991Z"><title>SE &lt;&gt; DE 2</title></path><path style="mix-blend-mode: multiply;" fill="#f781bf" d="M-281.8121660290184,35.183846833923624A284,284,0,0,1,-281.8276166735987,35.059869938137254Q0,0,8.953453316592748,283.8588305367786A284,284,0,0,1,8.828578599844317,283.86274183116456Q0,0,-281.8121660290184,35.183846833923624Z"><title>SE &lt;&gt; GB 2</title></path><path style="mix-blend-mode: multiply;" fill="#4daf4a" d="M-283.97564204147494,-3.7195063021997368A284,284,0,0,1,-283.97397829537726,-3.8444311798490536Q0,0,103.75824556676632,-264.3675972522098A284,284,0,0,1,103.87453488494754,-264.32192682869845Q0,0,-283.97564204147494,-3.7195063021997368Z"><title>SK &lt;&gt; AT 2</title></path><path style="mix-blend-mode: multiply;" fill="#ffff33" d="M-173.8445577773364,-224.5753097096881A284,284,0,0,1,-173.74574683474864,-224.65176486472444Q0,0,149.36977643300753,241.54641352823552A284,284,0,0,1,149.2635020099731,241.61210020965166Q0,0,-173.8445577773364,-224.5753097096881Z"><title>US &lt;&gt; FI 2</title></path><path style="mix-blend-mode: multiply;" fill="#377eb8" d="M-172.9564271130432,-225.26001491674143A284,284,0,0,1,-172.857315044078,-225.33607930323177Q0,0,-86.27918283329045,270.57698093078733A284,284,0,0,1,-86.3982054458482,270.53899921404496Q0,0,-172.9564271130432,-225.26001491674143Z"><title>US &lt;&gt; IE 2</title></path><path style="mix-blend-mode: multiply;" fill="#a65628" d="M-172.0655996929561,-225.94120784465895A284,284,0,0,1,-171.96618804297992,-226.01688027659898Q0,0,-163.2640681068595,232.38081690449138A284,284,0,0,1,-163.36628019214265,232.3089720527004Q0,0,-172.0655996929561,-225.94120784465895Z"><title>US &lt;&gt; KR 2</title></path><path style="mix-blend-mode: multiply;" fill="#984ea3" d="M-171.17208940695514,-226.618877872205A284,284,0,0,1,-171.07237972600535,-226.69415716970175Q0,0,-262.19513128930623,109.13163211545717A284,284,0,0,1,-262.2431145962618,109.01627789854086Q0,0,-171.17208940695514,-226.618877872205Z"><title>US &lt;&gt; PE 2</title></path><path style="mix-blend-mode: multiply;" fill="#4daf4a" d="M109.9919701624437,-261.8353805347629A284,284,0,0,1,110.62378741441614,-261.5690686187686Q0,0,268.00951095019764,93.9515941335531A284,284,0,0,1,267.78190662500924,94.59836406764566Q0,0,109.9919701624437,-261.8353805347629Z"><title>AT &lt;&gt; DE 3</title></path><path style="mix-blend-mode: multiply;" fill="#a65628" d="M191.37828745886733,-209.83410373271343A284,284,0,0,1,191.88432309752622,-209.3714559088802Q0,0,67.60724501547105,275.83556772363147A284,284,0,0,1,66.94111013746503,275.997985089681Q0,0,191.37828745886733,-209.83410373271343Z"><title>BR &lt;&gt; FR 3</title></path><path style="mix-blend-mode: multiply;" fill="#a65628" d="M212.90732867384912,-187.95337027296316A284,284,0,0,1,213.36047586408424,-187.43880958609273Q0,0,188.46011070462538,-212.45890584581377A284,284,0,0,1,188.97249179369982,-212.00329560004502Q0,0,212.90732867384912,-187.95337027296316Z"><title>CA &lt;&gt; BR 3</title></path><path style="mix-blend-mode: multiply;" fill="#a65628" d="M264.9555750456832,-102.24746085948223A284,284,0,0,1,265.20165449037034,-101.60749212322004Q0,0,69.23983215042091,275.4302918049893A284,284,0,0,1,68.57467095460504,275.59665183646126Q0,0,264.9555750456832,-102.24746085948223Z"><title>CH &lt;&gt; FR 3</title></path><path style="mix-blend-mode: multiply;" fill="#4daf4a" d="M278.9137246268704,53.50826305129231A284,284,0,0,1,278.783729103583,54.18147642045234Q0,0,102.19057723963098,-264.97751965672677A284,284,0,0,1,102.8300031575869,-264.73003314813127Q0,0,278.9137246268704,53.50826305129231Z"><title>CZ &lt;&gt; AT 3</title></path><path style="mix-blend-mode: multiply;" fill="#ff7f00" d="M182.7474942142028,217.39216489659862A284,284,0,0,1,182.22212115333582,217.8327306957772Q0,0,-178.68045522847407,-220.74712890396847A284,284,0,0,1,-178.1469942761624,-221.17786604985807Q0,0,182.7474942142028,217.39216489659862Z"><title>DK &lt;&gt; US 3</title></path><path style="mix-blend-mode: multiply;" fill="#4daf4a" d="M-243.06759230027626,146.8813996847344A284,284,0,0,1,-243.421493316413,146.29414407831743Q0,0,268.56128471164646,92.36252678456763A284,284,0,0,1,268.33751519479785,93.01063347317678Q0,0,-243.06759230027626,146.8813996847344Z"><title>NO &lt;&gt; DE 3</title></path><path style="mix-blend-mode: multiply;" fill="#ffff33" d="M-170.27591018675167,-227.29301443307332A284,284,0,0,1,-169.72667028043733,-227.70344177353954Q0,0,171.21356456088057,-226.58754447311793A284,284,0,0,1,171.76010607144838,-226.17353064035768Q0,0,-170.27591018675167,-227.29301443307332Z"><title>US &lt;&gt; BG 3</title></path><path style="mix-blend-mode: multiply;" fill="#377eb8" d="M-168.9266676827923,-228.29757104618406A284,284,0,0,1,-168.37500645113928,-228.70473804138558Q0,0,279.6265706362935,49.648574946174975A284,284,0,0,1,279.505891313149,50.32352055691406Q0,0,-168.9266676827923,-228.29757104618406Z"><title>US &lt;&gt; CZ 3</title></path><path style="mix-blend-mode: multiply;" fill="#4daf4a" d="M-167.5714988609481,-229.29411847994547A284,284,0,0,1,-167.01743565744198,-229.6980108455714Q0,0,-256.7863253082485,121.31274926686973A284,284,0,0,1,-257.0784570597381,120.69244763357969Q0,0,-167.5714988609481,-229.29411847994547Z"><title>US &lt;&gt; NZ 3</title></path><path style="mix-blend-mode: multiply;" fill="#4daf4a" d="M214.01684115790118,-186.68902405013986A284,284,0,0,1,214.83408150575718,-185.74799439987956Q0,0,100.09478555250743,-265.77628544548054A284,284,0,0,1,101.26020440637956,-265.33445121879333Q0,0,214.01684115790118,-186.68902405013986Z"><title>CA &lt;&gt; AT 4</title></path><path style="mix-blend-mode: multiply;" fill="#984ea3" d="M272.7920739374691,-78.99673662180204A284,284,0,0,1,273.1361311487231,-77.79880372542718Q0,0,144.90481041942158,-244.25109194701975A284,284,0,0,1,145.9753325399869,-243.61281224484117Q0,0,272.7920739374691,-78.99673662180204Z"><title>CN &lt;&gt; AU 4</title></path><path style="mix-blend-mode: multiply;" fill="#4daf4a" d="M273.4074274939362,-76.83995439319317A284,284,0,0,1,273.7420135496551,-75.6393417328604Q0,0,-106.71867711307047,263.1864813307025A284,284,0,0,1,-107.87266659490034,262.71560250907345Q0,0,273.4074274939362,-76.83995439319317Z"><title>CN &lt;&gt; IL 4</title></path><path style="mix-blend-mode: multiply;" fill="#ff7f00" d="M263.04766982631804,107.06037268263337A284,284,0,0,1,262.57529278017415,108.2137496873934Q0,0,170.11029269194862,227.41699215375172A284,284,0,0,1,169.11061494432496,228.16134622926876Q0,0,263.04766982631804,107.06037268263337Z"><title>DE &lt;&gt; ES 4</title></path><path style="mix-blend-mode: multiply;" fill="#f781bf" d="M262.1939798483213,109.13439847865605A284,284,0,0,1,261.7125089773166,110.28400901671094Q0,0,-277.60586087786396,59.924836305659156A284,284,0,0,1,-277.8661730099329,58.70596133966343Q0,0,262.1939798483213,109.13439847865605Z"><title>DE &lt;&gt; SA 4</title></path><path style="mix-blend-mode: multiply;" fill="#999999" d="M261.32393730361434,111.20161775863085A284,284,0,0,1,260.8334026362207,112.34739013084004Q0,0,-281.0626372477855,40.74056876529484A284,284,0,0,1,-281.23872423503593,39.50670817278269Q0,0,261.32393730361434,111.20161775863085Z"><title>DE &lt;&gt; SE 4</title></path><path style="mix-blend-mode: multiply;" fill="#a65628" d="M181.45667563991123,218.4707643272025A284,284,0,0,1,180.49614994053232,219.264999160023Q0,0,71.41282653305868,274.87489555534034A284,284,0,0,1,70.2058260219336,275.18565004843185Q0,0,181.45667563991123,218.4707643272025Z"><title>DK &lt;&gt; FR 4</title></path><path style="mix-blend-mode: multiply;" fill="#ff7f00" d="M59.95807224859823,277.5986843849082A284,284,0,0,1,58.73922845721855,277.85914244496377Q0,0,-180.41818787412328,-219.32915329298464A284,284,0,0,1,-179.45390505931277,-220.11882236411122Q0,0,59.95807224859823,277.5986843849082Z"><title>FR &lt;&gt; US 4</title></path><path style="mix-blend-mode: multiply;" fill="#ff7f00" d="M-166.21045126351265,-230.2826217732886A284,284,0,0,1,-165.1982350017082,-231.0098334537307Q0,0,171.90096645110344,226.0664896289952A284,284,0,0,1,170.90719825935304,226.81871524003083Q0,0,-166.21045126351265,-230.2826217732886Z"><title>US &lt;&gt; ES 4</title></path><path style="mix-blend-mode: multiply;" fill="#e41a1c" d="M274.0057291211418,-74.67837979490082A284,284,0,0,1,274.47535360342636,-72.93339608350945Q0,0,-222.35045021546563,176.68128731979442A284,284,0,0,1,-223.47015501825564,175.26291626044798Q0,0,274.0057291211418,-74.67837979490082Z"><title>CN &lt;&gt; NL 5</title></path><path style="mix-blend-mode: multiply;" fill="#4daf4a" d="M260.4375964551851,113.26190159381117A284,284,0,0,1,259.71164976456515,114.91674802468026Q0,0,-104.11541666954521,264.22713715991966A284,284,0,0,1,-105.79456073814977,263.5593119550549Q0,0,260.4375964551851,113.26190159381117Z"><title>DE &lt;&gt; IL 5</title></path><path style="mix-blend-mode: multiply;" fill="#984ea3" d="M57.76392451520211,278.06353415110374A284,284,0,0,1,55.9934637900818,278.4254514457843Q0,0,142.48661114762635,-245.66962702716248A284,284,0,0,1,144.0468988072459,-244.7580252903162Q0,0,57.76392451520211,278.06353415110374Z"><title>FR &lt;&gt; AU 5</title></path><path style="mix-blend-mode: multiply;" fill="#4daf4a" d="M-2.8200019750769214,283.98599893103983A284,284,0,0,1,-4.626920341813349,283.962306667893Q0,0,269.45996108509377,89.7069081621909A284,284,0,0,1,268.88370989620626,91.41963986175391Q0,0,-2.8200019750769214,283.98599893103983Z"><title>GB &lt;&gt; DE 5</title></path><path style="mix-blend-mode: multiply;" fill="#ffff33" d="M-5.623248786046358,283.94432389658755A284,284,0,0,1,-7.429845231113565,283.9027956886682Q0,0,151.74693778191474,240.060131787458A284,284,0,0,1,150.21638648888722,241.0208232294904Q0,0,-5.623248786046358,283.94432389658755Z"><title>GB &lt;&gt; FI 5</title></path><path style="mix-blend-mode: multiply;" fill="#999999" d="M-243.93330661143852,145.4391347801888A284,284,0,0,1,-244.85378370634052,143.88406654209012Q0,0,-60.538233800400555,277.47274145099016A284,284,0,0,1,-62.302540522004534,277.0819255103154Q0,0,-243.93330661143852,145.4391347801888Z"><title>NO &lt;&gt; HR 5</title></path><path style="mix-blend-mode: multiply;" fill="#f781bf" d="M-164.38665892939437,-231.58805315911908A284,284,0,0,1,-162.9097587816685,-232.6293414290179Q0,0,207.24851504005105,-194.17531515023666A284,284,0,0,1,208.47983836611158,-192.85268210434614Q0,0,-164.38665892939437,-231.58805315911908Z"><title>US &lt;&gt; CA 5</title></path><path style="mix-blend-mode: multiply;" fill="#ffff33" d="M111.54089076627969,-261.17930562558905A284,284,0,0,1,113.71451651876384,-260.2402903720017Q0,0,154.57999129492438,238.24572670094443A284,284,0,0,1,152.58831819167062,239.5262097379689Q0,0,111.54089076627969,-261.17930562558905Z"><title>AT &lt;&gt; FI 6</title></path><path style="mix-blend-mode: multiply;" fill="#a65628" d="M274.7295701340107,-71.9698776849154A284,284,0,0,1,275.32004868961445,-69.67690284124525Q0,0,74.66392478815955,274.00966832436416A284,284,0,0,1,72.37685827342415,274.6226326916059Q0,0,274.7295701340107,-71.9698776849154Z"><title>CN &lt;&gt; FR 6</title></path><path style="mix-blend-mode: multiply;" fill="#f781bf" d="M259.30683521638474,115.82730770445588A284,284,0,0,1,258.33214835394193,117.9851733347752Q0,0,204.9338147143094,-196.61671237878306A284,284,0,0,1,206.56592377607717,-194.9013061386092Q0,0,259.30683521638474,115.82730770445588Z"><title>DE &lt;&gt; CA 6</title></path><path style="mix-blend-mode: multiply;" fill="#984ea3" d="M-8.425947611261819,283.87497847970377A284,284,0,0,1,-10.792375335181442,283.7948636508853Q0,0,139.5664642264251,-247.34025564661732A284,284,0,0,1,141.62373711538427,-246.16806674601912Q0,0,-8.425947611261819,283.87497847970377Z"><title>GB &lt;&gt; AU 6</title></path><path style="mix-blend-mode: multiply;" fill="#f781bf" d="M-11.78807830836168,283.75524877928854A284,284,0,0,1,-14.153390971773222,283.6471073781647Q0,0,202.59035653058945,-199.0305188678577A284,284,0,0,1,204.24267141052704,-197.3345665997001Q0,0,-11.78807830836168,283.75524877928854Z"><title>GB &lt;&gt; CA 6</title></path><path style="mix-blend-mode: multiply;" fill="#4daf4a" d="M-63.27437229173091,276.86161491092884A284,284,0,0,1,-65.58042199091726,276.32446191297146Q0,0,96.93943385376363,-266.943338864471A284,284,0,0,1,99.16162293916474,-266.125858450604Q0,0,-63.27437229173091,276.86161491092884Z"><title>HR &lt;&gt; AT 6</title></path><path style="mix-blend-mode: multiply;" fill="#4daf4a" d="M-162.09251432414146,-233.1995214404995A284,284,0,0,1,-160.14265131182196,-234.54281321502944Q0,0,270.50370348385314,86.50864928733807A284,284,0,0,1,269.7730627966821,88.7608843426958Q0,0,-162.09251432414146,-233.1995214404995Z"><title>US &lt;&gt; DE 6</title></path><path style="mix-blend-mode: multiply;" fill="#999999" d="M-159.31870996555736,-235.10327231859324A284,284,0,0,1,-157.3530714177486,-236.42337218515624Q0,0,-57.24710383816928,278.17039580469714A284,284,0,0,1,-59.564274574365264,277.6834478222093Q0,0,-159.31870996555736,-235.10327231859324Z"><title>US &lt;&gt; HR 6</title></path><path style="mix-blend-mode: multiply;" fill="#984ea3" d="M-156.52254880440825,-236.97403173295515A284,284,0,0,1,-154.54141055433115,-238.27075444518505Q0,0,-118.43956753631126,258.124134558959A284,284,0,0,1,-120.58748197354699,257.1277098861176Q0,0,-156.52254880440825,-236.97403173295515Z"><title>US &lt;&gt; IN 6</title></path><path style="mix-blend-mode: multiply;" fill="#f781bf" d="M215.48450505575937,-184.9930487366334A284,284,0,0,1,217.38059566375335,-182.76125581991326Q0,0,12.875517503151885,283.7079855221316A284,284,0,0,1,9.949392054440734,283.825667616139Q0,0,215.48450505575937,-184.9930487366334Z"><title>CA &lt;&gt; GB 7</title></path><path style="mix-blend-mode: multiply;" fill="#4daf4a" d="M275.56283375184825,-68.71044065243096A284,284,0,0,1,276.2566879401297,-65.86533510390562Q0,0,93.24102837774596,-268.25754533108733A284,284,0,0,1,96.00219574805166,-267.2818332987724Q0,0,275.56283375184825,-68.71044065243096Z"><title>CN &lt;&gt; AT 7</title></path><path style="mix-blend-mode: multiply;" fill="#f781bf" d="M276.4860933422183,-64.89560993132103A284,284,0,0,1,277.1405620067137,-62.04118705024001Q0,0,199.82041419064515,-201.81130313408866A284,284,0,0,1,201.8907581734379,-199.7401355866027Q0,0,276.4860933422183,-64.89560993132103Z"><title>CN &lt;&gt; CA 7</title></path><path style="mix-blend-mode: multiply;" fill="#a65628" d="M-15.148554813437148,283.5957004029932A284,284,0,0,1,-18.07203255606623,283.424419624161Q0,0,78.44359852413173,272.9516474590048A284,284,0,0,1,75.62490063683764,273.7460034478466Q0,0,-15.148554813437148,283.5957004029932Z"><title>GB &lt;&gt; FR 7</title></path><path style="mix-blend-mode: multiply;" fill="#ffff33" d="M-226.47361192686444,171.36424102128194A284,284,0,0,1,-228.22858552536638,169.019859037601Q0,0,157.85777658465028,236.08668402040516A284,284,0,0,1,155.41498794458298,237.70187530220522Q0,0,-226.47361192686444,171.36424102128194Z"><title>NL &lt;&gt; FI 7</title></path><path style="mix-blend-mode: multiply;" fill="#ff7f00" d="M-245.35713178951153,143.02404650975402A284,284,0,0,1,-246.81887293573007,140.48645473046835Q0,0,-183.43207921694614,-216.81483416534948A284,284,0,0,1,-181.1866516651302,-218.6947581867905Q0,0,-245.35713178951153,143.02404650975402Z"><title>NO &lt;&gt; US 7</title></path><path style="mix-blend-mode: multiply;" fill="#4daf4a" d="M-19.066390916678184,283.359264428415A284,284,0,0,1,-22.546209812656645,283.1036354819268Q0,0,88.99251356049558,-269.696741786372A284,284,0,0,1,92.29920179713582,-268.5830548407915Q0,0,-19.066390916678184,283.359264428415Z"><title>GB &lt;&gt; AT 8</title></path><path style="mix-blend-mode: multiply;" fill="#4daf4a" d="M-228.8202315310058,168.21801818502348A284,284,0,0,1,-230.86963282185613,165.39411307752562Q0,0,84.7217978776858,-271.0686572888362A284,284,0,0,1,88.04566333085018,-270.00733539781953Q0,0,-228.8202315310058,168.21801818502348Z"><title>NL &lt;&gt; AT 8</title></path><path style="mix-blend-mode: multiply;" fill="#4daf4a" d="M-278.6267902422114,54.98283149604712A284,284,0,0,1,-279.28126263110335,51.55556558875753Q0,0,80.42994674011257,-272.37294958821195A284,284,0,0,1,83.77016020870195,-271.3642575185767Q0,0,-278.6267902422114,54.98283149604712Z"><title>SA &lt;&gt; AT 8</title></path><path style="mix-blend-mode: multiply;" fill="#ff7f00" d="M-153.70442321910983,-238.8115371645197A284,284,0,0,1,-150.7588636121991,-240.68187518456463Q0,0,-131.91142202475532,251.50621610490447A284,284,0,0,1,-134.99138833918147,249.86661456517217Q0,0,-153.70442321910983,-238.8115371645197Z"><title>US &lt;&gt; IT 8</title></path><path style="mix-blend-mode: multiply;" fill="#e41a1c" d="M-149.91343950591985,-241.20937099438098A284,284,0,0,1,-146.93870702034434,-243.0329532783351Q0,0,-283.6775526605814,13.52945366609737A284,284,0,0,1,-283.822361419467,10.043264323786566Q0,0,-149.91343950591985,-241.20937099438098Z"><title>US &lt;&gt; SG 8</title></path><path style="mix-blend-mode: multiply;" fill="#4daf4a" d="M218.02052377510444,-181.99739342317275A284,284,0,0,1,220.59360942931653,-178.86995130246484Q0,0,271.9980994190276,81.68864004521551A284,284,0,0,1,270.80557683250305,85.55898290895752Q0,0,218.02052377510444,-181.99739342317275Z"><title>CA &lt;&gt; DE 9</title></path><path style="mix-blend-mode: multiply;" fill="#ff7f00" d="M-281.9488986528633,34.070787317545324A284,284,0,0,1,-282.4060749227431,30.04677764303538Q0,0,-187.25552165404133,-213.52135633250566A284,284,0,0,1,-184.19170230096458,-216.1698795009907Q0,0,-281.9488986528633,34.070787317545324Z"><title>SE &lt;&gt; US 9</title></path><path style="mix-blend-mode: multiply;" fill="#ffff33" d="M-146.08505705003935,-243.54703058482718A284,284,0,0,1,-142.59726253703872,-245.60541670928768Q0,0,-149.33066128627837,241.57059754821736A284,284,0,0,1,-152.76023530436495,239.41660449884225Q0,0,-146.08505705003935,-243.54703058482718Z"><title>US &lt;&gt; JP 9</title></path><path style="mix-blend-mode: multiply;" fill="#e41a1c" d="M277.3565439320952,-61.06838411194259A284,284,0,0,1,278.31137526223193,-56.557743940552676Q0,0,-283.3551646825818,19.12722268670877A284,284,0,0,1,-283.6283347472088,14.524728173886345Q0,0,277.3565439320952,-61.06838411194259Z"><title>CN &lt;&gt; SG 10</title></path><path style="mix-blend-mode: multiply;" fill="#999999" d="M257.9165759151,118.89087378024632A284,284,0,0,1,255.95251920313208,123.06221155809892Q0,0,258.90129148928037,-116.7309781728171A284,284,0,0,1,260.76217867980296,-112.51260449461883Q0,0,257.9165759151,118.89087378024632Z"><title>DE &lt;&gt; CH 10</title></path><path style="mix-blend-mode: multiply;" fill="#e41a1c" d="M-23.539415075339676,283.02278342548834A284,284,0,0,1,-28.130891148640714,282.60334917191506Q0,0,-218.81904602456137,181.03652973060684A284,284,0,0,1,-221.72914841583676,177.46037513424747Q0,0,-23.539415075339676,283.02278342548834Z"><title>GB &lt;&gt; NL 10</title></path><path style="mix-blend-mode: multiply;" fill="#f781bf" d="M-141.73461312255472,-246.10424507309853A284,284,0,0,1,-137.72069111177493,-248.37272644091797Q0,0,-276.36871146877405,65.39369481142285A284,284,0,0,1,-277.39388985796364,60.89852107783842Q0,0,-141.73461312255472,-246.10424507309853Z"><title>US &lt;&gt; SA 10</title></path><path style="mix-blend-mode: multiply;" fill="#a65628" d="M114.62693847467501,-259.83969091715585A284,284,0,0,1,119.33909725550667,-257.70948734231865Q0,0,84.35253766501536,271.18379263789376A284,284,0,0,1,79.40083875984791,272.67472710948596Q0,0,114.62693847467501,-259.83969091715585Z"><title>AT &lt;&gt; FR 11</title></path><path style="mix-blend-mode: multiply;" fill="#4daf4a" d="M265.55653876423145,-100.67633644288635A284,284,0,0,1,267.53429897218365,-95.29637387362776Q0,0,73.95488455211625,-274.20188739482296A284,284,0,0,1,79.4737590358045,-272.6534826931776Q0,0,265.55653876423145,-100.67633644288635Z"><title>CH &lt;&gt; AT 12</title></path><path style="mix-blend-mode: multiply;" fill="#a65628" d="M255.51914728000253,123.95953119183851A284,284,0,0,1,252.96535497378082,129.09116616945195Q0,0,90.75318341643684,269.1093824075678A284,284,0,0,1,85.30353854023018,270.88615009356874Q0,0,255.51914728000253,123.95953119183851Z"><title>DE &lt;&gt; FR 12</title></path><path style="mix-blend-mode: multiply;" fill="#a65628" d="M-231.448540680366,164.58302773047092A284,284,0,0,1,-235.0382088034684,159.41468063656245Q0,0,97.6296212499752,266.6916891367003A284,284,0,0,1,91.69686627352755,268.7892942726976Q0,0,-231.448540680366,164.58302773047092Z"><title>NL &lt;&gt; FR 13</title></path><path style="mix-blend-mode: multiply;" fill="#4daf4a" d="M-136.8483618773833,-248.85442702808555A284,284,0,0,1,-131.30118008988353,-251.82533650727834Q0,0,-97.30009203518794,266.81209134884415A284,284,0,0,1,-103.18766490313334,264.5908271498441Q0,0,-136.8483618773833,-248.85442702808555Z"><title>US &lt;&gt; IL 13</title></path><path style="mix-blend-mode: multiply;" fill="#e41a1c" d="M252.51084725553952,129.97796743406013A284,284,0,0,1,249.03193449578163,136.52507315979994Q0,0,-213.36245348223025,187.43655845123476A284,284,0,0,1,-218.1824844423548,181.80319986887363Q0,0,252.51084725553952,129.97796743406013Z"><title>DE &lt;&gt; NL 15</title></path><path style="mix-blend-mode: multiply;" fill="#f781bf" d="M248.5513671599753,137.39802721621277A284,284,0,0,1,244.5956494896176,144.322445415646Q0,0,21.829796228788137,283.1597782111887A284,284,0,0,1,13.870902818149245,283.66106192956664Q0,0,248.5513671599753,137.39802721621277Z"><title>DE &lt;&gt; GB 16</title></path><path style="mix-blend-mode: multiply;" fill="#f781bf" d="M278.5081098686155,-55.58086664861542A284,284,0,0,1,280.05256549174715,-47.186444679491125Q0,0,31.319647096690584,282.267744713665A284,284,0,0,1,22.823202893150842,283.08143953586585Q0,0,278.5081098686155,-55.58086664861542Z"><title>CN &lt;&gt; GB 17</title></path><path style="mix-blend-mode: multiply;" fill="#a65628" d="M-130.41677597586585,-252.28449128723872A284,284,0,0,1,-122.27074274362934,-256.3315537910251Q0,0,180.79229940903474,-219.02087680034964A284,284,0,0,1,187.7134822788964,-213.11886019479942Q0,0,-130.41677597586585,-252.28449128723872Z"><title>US &lt;&gt; BR 18</title></path><path style="mix-blend-mode: multiply;" fill="#e41a1c" d="M-121.37058296230954,-256.75899515185273A284,284,0,0,1,-113.08589827110337,-260.5140679737232Q0,0,-206.56798012993505,194.89912669131883A284,284,0,0,1,-212.70346929430866,188.18404329316846Q0,0,-121.37058296230954,-256.75899515185273Z"><title>US &lt;&gt; NL 18</title></path><path style="mix-blend-mode: multiply;" fill="#a65628" d="M221.2198640901648,-178.09483915018146A284,284,0,0,1,227.14670977121804,-170.47103050110903Q0,0,107.56287118814903,262.8425930890229A284,284,0,0,1,98.56477866066723,266.34748808196724Q0,0,221.2198640901648,-178.09483915018146Z"><title>CA &lt;&gt; FR 19</title></path><path style="mix-blend-mode: multiply;" fill="#4daf4a" d="M-247.31028750184336,139.61956057714684A284,284,0,0,1,-251.91399911729707,131.1309919459563Q0,0,63.619262322446694,-276.78256712001877A284,284,0,0,1,72.99231939409863,-274.4596897715034Q0,0,-247.31028750184336,139.61956057714684Z"><title>NO &lt;&gt; AT 19</title></path><path style="mix-blend-mode: multiply;" fill="#984ea3" d="M-112.17111957099465,-260.9092561297694A284,284,0,0,1,-102.19057723962725,-264.9775196567282Q0,0,129.19443178562238,-252.91263075534636A284,284,0,0,1,138.69774632705335,-247.82843897300478Q0,0,-112.17111957099465,-260.9092561297694Z"><title>US &lt;&gt; AU 21</title></path><path style="mix-blend-mode: multiply;" fill="#999999" d="M-101.26020440637569,-265.3344512187948A284,284,0,0,1,-90.58836533122768,-269.16490868353554Q0,0,253.5884208482733,-127.86286721202144A284,284,0,0,1,258.4901162226937,-117.63868332813958Q0,0,-101.26020440637569,-265.3344512187948Z"><title>US &lt;&gt; CH 22</title></path><path style="mix-blend-mode: multiply;" fill="#f781bf" d="M-89.64337135517681,-269.4811050372138A284,284,0,0,1,-77.19783213702948,-273.3065947125005Q0,0,45.20818494103898,280.37870820434426A284,284,0,0,1,32.30986540838227,282.15611387544345Q0,0,-89.64337135517681,-269.4811050372138Z"><title>US &lt;&gt; GB 25</title></path><path style="mix-blend-mode: multiply;" fill="#ff7f00" d="M-170.97024432940503,226.7711964821449A284,284,0,0,1,-182.47650563844905,217.61967946392411Q0,0,-198.76725827590508,-202.8486554983287A284,284,0,0,1,-188.00356516310597,-212.86300638194925Q0,0,-170.97024432940503,226.7711964821449Z"><title>KR &lt;&gt; US 28</title></path><path style="mix-blend-mode: multiply;" fill="#4daf4a" d="M244.08775031764233,145.17978559314756A284,284,0,0,1,235.9360298807896,158.0828574010831Q0,0,47.67621514948672,-279.9696028304142A284,284,0,0,1,62.6477057897698,-277.00408834397814Q0,0,244.08775031764233,145.17978559314756Z"><title>DE &lt;&gt; AT 29</title></path><path style="mix-blend-mode: multiply;" fill="#4daf4a" d="M280.2164076955043,-46.20351564791276A284,284,0,0,1,282.41441662717295,-29.968271240323404Q0,0,276.48540862600976,64.89852707811175A284,284,0,0,1,272.2830512901461,80.7337598537791Q0,0,280.2164076955043,-46.20351564791276Z"><title>CN &lt;&gt; DE 31</title></path><path style="mix-blend-mode: multiply;" fill="#ff7f00" d="M-29.12230664655192,282.50290486220524A284,284,0,0,1,-46.470733146909616,280.1722166111207Q0,0,-211.5524471746893,-189.4770753795833A284,284,0,0,1,-199.47778292552002,-202.14997927063737Q0,0,-29.12230664655192,282.50290486220524Z"><title>GB &lt;&gt; US 33</title></path><path style="mix-blend-mode: multiply;" fill="#4daf4a" d="M-76.23838838767618,-273.5757813404722A284,284,0,0,1,-53.744812337163225,-278.86823976000403Q0,0,23.764530791970568,-283.0039700715124A284,284,0,0,1,46.693574199471676,-280.13516403421835Q0,0,-76.23838838767618,-273.5757813404722Z"><title>US &lt;&gt; AT 43</title></path><path style="mix-blend-mode: multiply;" fill="#a65628" d="M-52.76599845437506,-279.0551010232798A284,284,0,0,1,-20.96968280395238,-283.22477363942164Q0,0,137.38229244131648,248.56006461933623A284,284,0,0,1,108.48446187994259,262.46356229126224Q0,0,-52.76599845437506,-279.0551010232798Z"><title>US &lt;&gt; FR 59</title></path><path style="mix-blend-mode: multiply;" fill="#ff7f00" d="M227.74345425584534,-169.67297676299455A284,284,0,0,1,248.46572749735856,-137.5528344281148Q0,0,-235.63851460863157,-158.5259929255695A284,284,0,0,1,-212.2159753933765,-188.73362124390508Q0,0,227.74345425584534,-169.67297676299455Z"><title>CA &lt;&gt; US 70</title></path><path style="mix-blend-mode: multiply;" fill="#ff7f00" d="M235.3799019668818,158.90972830529012A284,284,0,0,1,195.51909621997598,205.98126859819993Q0,0,-264.6702708095095,-102.98372565420681A284,284,0,0,1,-236.19329449342266,-157.69821697261932Q0,0,235.3799019668818,158.90972830529012Z"><title>DE &lt;&gt; US 112</title></path><path style="mix-blend-mode: multiply;" fill="#ff7f00" d="M282.5178297723223,-28.97716101927738A284,284,0,0,1,281.3341032094434,38.82167398938679Q0,0,-281.66822475234505,-36.318193303941214A284,284,0,0,1,-265.029987234101,-102.05442600246342Q0,0,282.5178297723223,-28.97716101927738Z"><title>CN &lt;&gt; US 123</title></path></g></svg>