<svg viewBox="-375,-375,750,750" xmlns="http://www.w3.org/2000/svg" xmlns:xlink="http://www.w3.org/1999/xlink"><g font-size="16" font-family="sans-serif"><g><path fill="#e41a1c" d="M1.8369701987210297e-14,-300A300,300,0,0,1,2.956612646290208,-299.9854303823101L2.8087820139756974,-284.98615886319453A285,285,0,0,0,1.7451216887849784e-14,-285Z"/><text dy="0.35em" transform="&#xA;        rotate(-89.71765971885064)&#xA;        translate(305)&#xA;        &#xA;      ">AE</text></g><g><path fill="#377eb8" d="M13.478437722878489,-299.6970665798224A300,300,0,0,1,16.431410260949477,-299.54967660946716L15.609839747902,-284.5721927789938A285,285,0,0,0,12.804515836734565,-284.71221325083127Z"/><text dy="0.35em" transform="&#xA;        rotate(-87.14260092802272)&#xA;        translate(305)&#xA;        &#xA;      ">AR</text></g><g><path fill="#4daf4a" d="M26.929654984170007,-298.78887811033655A300,300,0,0,1,130.11890915634257,-270.3129103094476L123.61296369852543,-256.7972647939752A285,285,0,0,0,25.583172234961506,-283.8494342048197Z"/><text dy="0.35em" transform="&#xA;        rotate(-74.57269618450752)&#xA;        translate(305)&#xA;        &#xA;      ">AT</text></g><g><path fill="#984ea3" d="M139.5215370219479,-265.5818907738877A300,300,0,0,1,165.47022117451172,-250.2390974737125L157.19671011578615,-237.72714260002687A285,285,0,0,0,132.5454601708505,-252.30279623519334Z"/><text dy="0.35em" transform="&#xA;        rotate(-59.405260854418216)&#xA;        translate(305)&#xA;        &#xA;      ">AU</text></g><g><path fill="#ff7f00" d="M174.14689012972755,-244.28029117827867A300,300,0,0,1,176.5459066114811,-242.5521446178743L167.71861128090706,-230.42453738698057A285,285,0,0,0,165.43954562324117,-232.06627661936474Z"/><text dy="0.35em" transform="&#xA;        rotate(-54.2326714770162)&#xA;        translate(305)&#xA;        &#xA;      ">BE</text></g><g><path fill="#ffff33" d="M184.94609605817007,-236.20952892049493A300,300,0,0,1,185.87584503477385,-235.47859824750265L176.58205278303515,-223.7046683351275A285,285,0,0,0,175.69879125526157,-224.39905247447018Z"/><text dy="0.35em" transform="&#xA;        rotate(-51.82701685487788)&#xA;        translate(305)&#xA;        &#xA;      ">BG</text></g><g><path fill="#a65628" d="M194.0221481177087,-228.81303730292535A300,300,0,0,1,194.4727858933392,-228.43015463568608L184.7491465986722,-217.00864690390176A285,285,0,0,0,184.32104071182326,-217.3723854377791Z"/><text dy="0.35em" transform="&#xA;        rotate(-49.64723445765907)&#xA;        translate(305)&#xA;        &#xA;      ">BM</text></g><g><path fill="#f781bf" d="M202.3665343983135,-221.46734692865263A300,300,0,0,1,213.44580517300784,-210.8100762630818L202.77351491435746,-200.26957244992772A285,285,0,0,0,192.24820767839782,-210.39397958222Z"/><text dy="0.35em" transform="&#xA;        rotate(-46.11221871092333)&#xA;        translate(305)&#xA;        &#xA;      ">BR</text></g><g><path fill="#999999" d="M220.7097540658271,-203.19253052266A300,300,0,0,1,268.5181293847345,-133.78346008278817L255.09222291549779,-127.09428707864875A285,285,0,0,0,209.67426636253575,-193.032903996527Z"/><text dy="0.35em" transform="&#xA;        rotate(-34.558738979545815)&#xA;        translate(305)&#xA;        &#xA;      ">CA</text></g><g><path fill="#e41a1c" d="M273.04604691042675,-124.28135928846706A300,300,0,0,1,285.98200503053704,-90.63273580066918L271.6829047790102,-86.10109901063572A285,285,0,0,0,259.39374456490543,-118.0672913240437Z"/><text dy="0.35em" transform="&#xA;        rotate(-21.028877280122785)&#xA;        translate(305)&#xA;        &#xA;      ">CH</text></g><g><path fill="#377eb8" d="M288.98542350278836,-80.54455290653767A300,300,0,0,1,296.2686257769227,47.168860281479496L281.4551944880766,44.810417267405526A285,285,0,0,0,274.53615232764895,-76.51732526121079Z"/><text dy="0.35em" transform="&#xA;        rotate(-3.2639113634593713)&#xA;        translate(305)&#xA;        &#xA;      ">CN</text></g><g><path fill="#4daf4a" d="M294.43156106865985,57.53308480059149A300,300,0,0,1,292.98848143204816,64.4806152897317L278.33905736044574,61.25658452524512A285,285,0,0,0,279.70998301522684,54.65643056056191Z"/><text dy="0.35em" transform="&#xA;        rotate(11.734119797940295)&#xA;        translate(305)&#xA;        &#xA;      ">CZ</text></g><g><path fill="#984ea3" d="M290.5461303196996,74.7191150660133A300,300,0,0,1,198.6729684240532,224.7866802494649L188.73932000285055,213.54734623699164A285,285,0,0,0,276.0188238037146,70.98315931271263Z"/><text dy="0.35em" transform="&#xA;        rotate(31.47546768264921)&#xA;        translate(305)&#xA;        &#xA;      ">DE</text></g><g><path fill="#ff7f00" d="M190.66504940998797,231.6178726555592A300,300,0,0,1,182.32899402468482,238.2354674223518L173.21254432345057,226.3236940512342A285,285,0,0,0,181.1317969394886,220.03697902278122Z"/><text dy="0.35em" transform="&#xA;        rotate(51.55562390473733)&#xA;        translate(305)&#xA;        &#xA;      ">DK</text></g><g><path fill="#ffff33" d="M173.85934445652083,244.48502683221486A300,300,0,0,1,168.0283769211859,248.5285990569936L159.6269580751266,236.1021691041439A285,285,0,0,0,165.1663772336948,232.26077549060412Z"/><text dy="0.35em" transform="&#xA;        rotate(55.26004382016268)&#xA;        translate(305)&#xA;        &#xA;      ">ES</text></g><g><path fill="#a65628" d="M159.2064411276613,254.270149847489A300,300,0,0,1,146.48840914173684,261.80364013344644L139.16398868465,248.7134581267741A285,285,0,0,0,151.24611907127823,241.55664235511455Z"/><text dy="0.35em" transform="&#xA;        rotate(59.35974012919709)&#xA;        translate(305)&#xA;        &#xA;      ">FI</text></g><g><path fill="#f781bf" d="M137.21403608793887,266.7813867203966A300,300,0,0,1,47.11374445656828,296.27739549834234L44.75805723373986,281.4635257234252A285,285,0,0,0,130.35333428354193,253.44231738437676Z"/><text dy="0.35em" transform="&#xA;        rotate(71.87317681648233)&#xA;        translate(305)&#xA;        &#xA;      ">FR</text></g><g><path fill="#999999" d="M36.69118032298694,297.7478081976525A300,300,0,0,1,-59.79208629150387,293.9811327566947L-56.80248197692868,279.28207611885995A285,285,0,0,0,34.85662130683759,282.86041778776985Z"/><text dy="0.35em" transform="&#xA;        rotate(92.23567331971967)&#xA;        translate(305)&#xA;        rotate(180)&#xA;      " text-anchor="end">GB</text></g><g><path fill="#e41a1c" d="M-70.06829463304105,291.7026466921707A300,300,0,0,1,-79.80174264224901,289.1914277278292L-75.81165551013656,274.7318563414377A285,285,0,0,0,-66.564879901389,277.11751435756213Z"/><text dy="0.35em" transform="&#xA;        rotate(104.46676972585558)&#xA;        translate(305)&#xA;        rotate(180)&#xA;      " text-anchor="end">HR</text></g><g><path fill="#377eb8" d="M-89.89760947951861,286.21394062810424A300,300,0,0,1,-90.46159278016061,286.03618692689287L-85.93851314115258,271.73437758054826A285,285,0,0,0,-85.40272900554268,271.903243596699Z"/><text dy="0.35em" transform="&#xA;        rotate(107.49357296652246)&#xA;        translate(305)&#xA;        rotate(180)&#xA;      " text-anchor="end">HU</text></g><g><path fill="#4daf4a" d="M-100.44021087563142,282.6866888257363A300,300,0,0,1,-101.55383894304829,282.2885364231594L-96.47614699589587,268.17410960200147A285,285,0,0,0,-95.41820033184985,268.55235438444953Z"/><text dy="0.35em" transform="&#xA;        rotate(109.67335536374128)&#xA;        translate(305)&#xA;        rotate(180)&#xA;      " text-anchor="end">IE</text></g><g><path fill="#984ea3" d="M-111.39416011181275,278.55222327776136A300,300,0,0,1,-124.9797902267446,272.72706509416867L-118.73080071540736,259.09071183946025A285,285,0,0,0,-105.82445210622213,264.6246121138733Z"/><text dy="0.35em" transform="&#xA;        rotate(113.208371110477)&#xA;        translate(305)&#xA;        rotate(180)&#xA;      " text-anchor="end">IL</text></g><g><path fill="#ff7f00" d="M-134.47027108123183,268.17484258472126A300,300,0,0,1,-139.20627459026267,265.74727301460763L-132.24596086074953,252.45990936387722A285,285,0,0,0,-127.74675752717025,254.7661004554852Z"/><text dy="0.35em" transform="&#xA;        rotate(117.13866325082182)&#xA;        translate(305)&#xA;        rotate(180)&#xA;      " text-anchor="end">IN</text></g><g><path fill="#ffff33" d="M-148.44314415302154,260.70027417316857A300,300,0,0,1,-148.9567235871514,260.40717059670413L-141.50888740779382,247.38681206686894A285,285,0,0,0,-141.02098694537048,247.66526046451014Z"/><text dy="0.35em" transform="&#xA;        rotate(119.7137220416497)&#xA;        translate(305)&#xA;        rotate(180)&#xA;      " text-anchor="end">IQ</text></g><g><path fill="#a65628" d="M-158.000258072649,255.02140782486538A300,300,0,0,1,-165.47022117451021,250.23909747371349L-157.1967101157847,237.7271426000278A285,285,0,0,0,-150.10024516901655,242.2703374336221Z"/><text dy="0.35em" transform="&#xA;        rotate(122.62758916985686)&#xA;        translate(305)&#xA;        rotate(180)&#xA;      " text-anchor="end">IT</text></g><g><path fill="#f781bf" d="M-174.1468901297261,244.2802911782797A300,300,0,0,1,-180.3485687413295,239.7381775040303L-171.33114030426304,227.7512686288288A285,285,0,0,0,-165.4395456232398,232.0662766193657Z"/><text dy="0.35em" transform="&#xA;        rotate(126.21907297282243)&#xA;        translate(305)&#xA;        rotate(180)&#xA;      " text-anchor="end">JP</text></g><g><path fill="#999999" d="M-188.64770217839822,233.26389446892622A300,300,0,0,1,-207.29066220620535,216.86535306985502L-196.92612909589508,206.02208541636227A285,285,0,0,0,-179.2153170694783,221.60069974547991Z"/><text dy="0.35em" transform="&#xA;        rotate(131.3351942939945)&#xA;        translate(305)&#xA;        rotate(180)&#xA;      " text-anchor="end">KR</text></g><g><path fill="#e41a1c" d="M-214.77082191582753,209.46000585696524A300,300,0,0,1,-215.1832725132608,209.03626295569805L-204.42410888759775,198.58444980791316A285,285,0,0,0,-204.03228082003614,198.98700556411697Z"/><text dy="0.35em" transform="&#xA;        rotate(135.7736989404082)&#xA;        translate(305)&#xA;        rotate(180)&#xA;      " text-anchor="end">MY</text></g><g><path fill="#377eb8" d="M-222.38392568275938,201.35885775879078A300,300,0,0,1,-252.21037053288825,162.44977376304107L-239.59985200624382,154.327285074889A285,285,0,0,0,-211.26472939862143,191.29091487085125Z"/><text dy="0.35em" transform="&#xA;        rotate(142.52739389224652)&#xA;        translate(305)&#xA;        rotate(180)&#xA;      " text-anchor="end">NL</text></g><g><path fill="#4daf4a" d="M-257.75395485310503,153.50211320233834A300,300,0,0,1,-269.5645784536752,131.66221190262752L-256.08634953099147,125.07910130749613A285,285,0,0,0,-244.86625711044977,145.82700754222142Z"/><text dy="0.35em" transform="&#xA;        rotate(151.59627914950957)&#xA;        translate(305)&#xA;        rotate(180)&#xA;      " text-anchor="end">NO</text></g><g><path fill="#984ea3" d="M-274.01743738928536,122.12470678208024A300,300,0,0,1,-275.44256579908506,118.87553552357485L-261.6704375091308,112.9317587473961A285,285,0,0,0,-260.3165655198211,116.01847144297624Z"/><text dy="0.35em" transform="&#xA;        rotate(156.31712407707258)&#xA;        translate(305)&#xA;        rotate(180)&#xA;      " text-anchor="end">NZ</text></g><g><path fill="#ff7f00" d="M-279.44324351256205,109.13969788843544A300,300,0,0,1,-279.87132302651264,108.03722759951503L-265.877756875187,102.63536621953929A285,285,0,0,0,-265.47108133693393,103.68271299401367Z"/><text dy="0.35em" transform="&#xA;        rotate(158.77924675544074)&#xA;        translate(305)&#xA;        rotate(180)&#xA;      " text-anchor="end">PE</text></g><g><path fill="#ffff33" d="M-283.48906131338833,98.15269795402445A300,300,0,0,1,-284.25411978773957,95.91452123478169L-270.0414137983526,91.11879517304261A285,285,0,0,0,-269.3146082477189,93.24506305632323Z"/><text dy="0.35em" transform="&#xA;        rotate(161.12843332134912)&#xA;        translate(305)&#xA;        rotate(180)&#xA;      " text-anchor="end">PL</text></g><g><path fill="#a65628" d="M-287.4438895719364,85.8837024571976A300,300,0,0,1,-288.11209211281357,83.61472584645384L-273.7064875071729,79.43398955413114A285,285,0,0,0,-273.07169509333954,81.58951733433771Z"/><text dy="0.35em" transform="&#xA;        rotate(163.59055599971728)&#xA;        translate(305)&#xA;        rotate(180)&#xA;      " text-anchor="end">RU</text></g><g><path fill="#f781bf" d="M-290.8680040544348,73.45613805114795A300,300,0,0,1,-294.36366266801605,57.87947909812655L-279.6454795346152,54.98550514322022A285,285,0,0,0,-276.32460385171305,69.78333114859055Z"/><text dy="0.35em" transform="&#xA;        rotate(167.35144397137242)&#xA;        translate(305)&#xA;        rotate(180)&#xA;      " text-anchor="end">SA</text></g><g><path fill="#999999" d="M-296.2129208605808,47.51742328076383A300,300,0,0,1,-297.7843746205167,36.393216838688L-282.89515588949087,34.5735559967536A285,285,0,0,0,-281.40227481755176,45.14155211672564Z"/><text dy="0.35em" transform="&#xA;        rotate(171.95935278647562)&#xA;        translate(305)&#xA;        rotate(180)&#xA;      " text-anchor="end">SE</text></g><g><path fill="#e41a1c" d="M-298.8777780738013,25.924385695085867A300,300,0,0,1,-299.6672944771709,14.12489365384888L-284.6839297533123,13.418648971156435A285,285,0,0,0,-283.9338891701113,24.628166410331573Z"/><text dy="0.35em" transform="&#xA;        rotate(176.17198520796978)&#xA;        translate(305)&#xA;        rotate(180)&#xA;      " text-anchor="end">SG</text></g><g><path fill="#377eb8" d="M-299.9783546149562,3.6037150974518086A300,300,0,0,1,-299.99744364318053,1.2384698448958675L-284.9975714610215,1.1765463526510742A285,285,0,0,0,-284.9794368842084,3.423529342579218Z"/><text dy="0.35em" transform="&#xA;        rotate(179.53759678601585)&#xA;        translate(305)&#xA;        rotate(180)&#xA;      " text-anchor="end">SK</text></g><g><path fill="#4daf4a" d="M-299.85623812182376,-9.286358782005708A300,300,0,0,1,-299.8172993653443,-10.468381024376898L-284.8264343970771,-9.944961973158053A285,285,0,0,0,-284.86342621573255,-8.822040842905423Z"/><text dy="0.35em" transform="&#xA;        rotate(181.8867833519243)&#xA;        translate(305)&#xA;        rotate(180)&#xA;      " text-anchor="end">TR</text></g><g><path fill="#984ea3" d="M-299.26552230816236,-20.97968440236367A300,300,0,0,1,-299.18049066912334,-22.159287059438807L-284.22146613566713,-21.051322706466866A285,285,0,0,0,-284.30224619275424,-19.930700182245488Z"/><text dy="0.35em" transform="&#xA;        rotate(184.12303380537293)&#xA;        translate(305)&#xA;        rotate(180)&#xA;      " text-anchor="end">TW</text></g><g><path fill="#ff7f00" d="M-298.21898251110593,-32.641054977446466A300,300,0,0,1,-21.625191981163848,-299.21957000132494L-20.543932382105655,-284.2585915012587A285,285,0,0,0,-283.3080333855507,-31.009002228574143Z"/><text dy="0.35em" transform="&#xA;        rotate(226.05632778842124)&#xA;        translate(305)&#xA;        rotate(180)&#xA;      " text-anchor="end">US</text></g><g><path fill="#ffff33" d="M-11.115103317066701,-299.79402008420874A300,300,0,0,1,-10.524156013583063,-299.8153467389583L-9.99794821290391,-284.82457940201033A285,285,0,0,0,-10.559348151213367,-284.80431907999827Z"/><text dy="0.35em" transform="&#xA;        rotate(267.93315371523965)&#xA;        translate(305)&#xA;        rotate(180)&#xA;      " text-anchor="end">ZA</text></g></g><g fill-opacity="0.75"><path style="mix-blend-mode: multiply;" fill="#377eb8" d="M1.3994803109247396,-283.99655183621394Q0,0,281.84076835389874,34.95398823716685Q0,0,1.3994803109247396,-283.99655183621394Z"><title>AE &lt;&gt; CN 1</title></path><path style="mix-blend-mode: multiply;" fill="#984ea3" d="M1.9592648230028822,-283.9932416121083Q0,0,262.81374356883725,107.6333414483331Q0,0,1.9592648230028822,-283.9932416121083Z"><title>AE &lt;&gt; DE 1</title></path><path style="mix-blend-mode: multiply;" fill="#ff7f00" d="M2.5190417228245674,-283.98882799997375Q0,0,-117.85704333722028,-258.39062934984423Q0,0,2.5190417228245674,-283.98882799997375Z"><title>AE &lt;&gt; US 1</title></path><path style="mix-blend-mode: multiply;" fill="#ff7f00" d="M72.57609230795084,-274.57004721073963Q0,0,166.4504987535583,-230.1091729260085Q0,0,72.57609230795084,-274.57004721073963Z"><title>AT &lt;&gt; BE 1</title></path><path style="mix-blend-mode: multiply;" fill="#999999" d="M73.11715791286571,-274.42645867107103Q0,0,216.17591843162018,-184.18461469472828Q0,0,73.11715791286571,-274.42645867107103Z"><title>AT &lt;&gt; CA 1</title></path><path style="mix-blend-mode: multiply;" fill="#e41a1c" d="M73.65793943849661,-274.2818039128275Q0,0,262.60107632265203,-108.15116603247829Q0,0,73.65793943849661,-274.2818039128275Z"><title>AT &lt;&gt; CH 1</title></path><path style="mix-blend-mode: multiply;" fill="#ff7f00" d="M74.19843478376566,-274.13608349803076Q0,0,172.8269686107705,225.35935507720052Q0,0,74.19843478376566,-274.13608349803076Z"><title>AT &lt;&gt; DK 1</title></path><path style="mix-blend-mode: multiply;" fill="#a65628" d="M74.73864184870729,-273.9892979928425Q0,0,-156.41159593554593,237.04727937037268Q0,0,74.73864184870729,-273.9892979928425Z"><title>AT &lt;&gt; IT 1</title></path><path style="mix-blend-mode: multiply;" fill="#e41a1c" d="M75.2785585344755,-273.84144796756306Q0,0,-283.67172260628934,13.651146236870751Q0,0,75.2785585344755,-273.84144796756306Z"><title>AT &lt;&gt; SG 1</title></path><path style="mix-blend-mode: multiply;" fill="#4daf4a" d="M141.64408663959927,-246.1563582766728Q0,0,72.0347447259332,-274.7125689739544Q0,0,141.64408663959927,-246.1563582766728Z"><title>AU &lt;&gt; AT 1</title></path><path style="mix-blend-mode: multiply;" fill="#ff7f00" d="M142.12901168582084,-245.8766846148935Q0,0,165.99660589231195,-230.43681744077372Q0,0,142.12901168582084,-245.8766846148935Z"><title>AU &lt;&gt; BE 1</title></path><path style="mix-blend-mode: multiply;" fill="#e41a1c" d="M142.61338452365484,-245.59605565787933Q0,0,262.38738880259524,-108.66857042105467Q0,0,142.61338452365484,-245.59605565787933Z"><title>AU &lt;&gt; CH 1</title></path><path style="mix-blend-mode: multiply;" fill="#984ea3" d="M143.09720327118583,-245.31447249594737Q0,0,263.02538971488366,107.11509868050145Q0,0,143.09720327118583,-245.31447249594737Z"><title>AU &lt;&gt; DE 1</title></path><path style="mix-blend-mode: multiply;" fill="#999999" d="M143.58046604865163,-245.03193622312173Q0,0,-183.11821138715786,217.0799867753086Q0,0,143.58046604865163,-245.03193622312173Z"><title>AU &lt;&gt; KR 1</title></path><path style="mix-blend-mode: multiply;" fill="#a65628" d="M144.0631709784498,-244.7484479371298Q0,0,-272.66796966073576,79.42404120347999Q0,0,144.0631709784498,-244.7484479371298Z"><title>AU &lt;&gt; RU 1</title></path><path style="mix-blend-mode: multiply;" fill="#a65628" d="M166.9037449110778,-229.7806343769158Q0,0,-155.94404683481036,237.35512266808666Q0,0,166.9037449110778,-229.7806343769158Z"><title>BE &lt;&gt; IT 1</title></path><path style="mix-blend-mode: multiply;" fill="#ff7f00" d="M183.887691405057,-216.42854929449237Q0,0,-118.36612963470446,-258.15781869875707Q0,0,183.887691405057,-216.42854929449237Z"><title>BM &lt;&gt; US 1</title></path><path style="mix-blend-mode: multiply;" fill="#377eb8" d="M192.1926951997821,-209.08842127636734Q0,0,281.9091188478613,34.39838238089714Q0,0,192.1926951997821,-209.08842127636734Z"><title>BR &lt;&gt; CN 1</title></path><path style="mix-blend-mode: multiply;" fill="#984ea3" d="M192.60445722568332,-208.70918297190457Q0,0,263.2360139384904,106.59643974249283Q0,0,192.60445722568332,-208.70918297190457Z"><title>BR &lt;&gt; DE 1</title></path><path style="mix-blend-mode: multiply;" fill="#e41a1c" d="M216.53854583111055,-183.75815130041997Q0,0,262.1726818388991,-109.18555260381005Q0,0,216.53854583111055,-183.75815130041997Z"><title>CA &lt;&gt; CH 1</title></path><path style="mix-blend-mode: multiply;" fill="#377eb8" d="M262.81374356883754,-107.63334144833227Q0,0,15.275583823711989,-283.58888648683813Q0,0,262.81374356883754,-107.63334144833227Z"><title>CH &lt;&gt; AR 1</title></path><path style="mix-blend-mode: multiply;" fill="#ff7f00" d="M263.025389714884,-107.11509868050062Q0,0,165.54206809083124,-230.7635666482268Q0,0,263.025389714884,-107.11509868050062Z"><title>CH &lt;&gt; BE 1</title></path><path style="mix-blend-mode: multiply;" fill="#4daf4a" d="M263.23601393849066,-106.59643974249202Q0,0,-254.81816723029257,125.39418507010062Q0,0,263.23601393849066,-106.59643974249202Z"><title>CH &lt;&gt; NO 1</title></path><path style="mix-blend-mode: multiply;" fill="#e41a1c" d="M263.4456154213274,-106.07736664943212Q0,0,-283.64426368429287,14.210266675728823Q0,0,263.4456154213274,-106.07736664943212Z"><title>CH &lt;&gt; SG 1</title></path><path style="mix-blend-mode: multiply;" fill="#984ea3" d="M281.77132283482877,35.50945828804918Q0,0,141.1586112690505,-246.43507555661205Q0,0,281.77132283482877,35.50945828804918Z"><title>CN &lt;&gt; AU 1</title></path><path style="mix-blend-mode: multiply;" fill="#999999" d="M281.7007825604654,36.064790375397706Q0,0,215.81245113214055,-184.6103624836305Q0,0,281.7007825604654,36.064790375397706Z"><title>CN &lt;&gt; CA 1</title></path><path style="mix-blend-mode: multiply;" fill="#f781bf" d="M281.62914780487614,36.619982341602Q0,0,105.71562872949205,263.5909820959894Q0,0,281.62914780487614,36.619982341602Z"><title>CN &lt;&gt; FR 1</title></path><path style="mix-blend-mode: multiply;" fill="#999999" d="M281.5564188463806,37.17503202959604Q0,0,22.761481872702007,283.08640896899067Q0,0,281.5564188463806,37.17503202959604Z"><title>CN &lt;&gt; GB 1</title></path><path style="mix-blend-mode: multiply;" fill="#f781bf" d="M281.4825959675499,37.72993728286661Q0,0,-168.71022732212097,228.45756541843448Q0,0,281.4825959675499,37.72993728286661Z"><title>CN &lt;&gt; JP 1</title></path><path style="mix-blend-mode: multiply;" fill="#377eb8" d="M278.5662929229432,55.28852003055433Q0,0,14.716570469647264,-283.61844536914714Q0,0,278.5662929229432,55.28852003055433Z"><title>CZ &lt;&gt; AR 1</title></path><path style="mix-blend-mode: multiply;" fill="#377eb8" d="M278.4567722528261,55.837496241663Q0,0,-221.24548909348152,178.06300445568738Q0,0,278.4567722528261,55.837496241663Z"><title>CZ &lt;&gt; NL 1</title></path><path style="mix-blend-mode: multiply;" fill="#e41a1c" d="M262.6010763226517,108.15116603247908Q0,0,0.8396903614996467,-283.99875865942937Q0,0,262.6010763226517,108.15116603247908Z"><title>DE &lt;&gt; AE 1</title></path><path style="mix-blend-mode: multiply;" fill="#ff7f00" d="M262.3873888025949,108.66857042105548Q0,0,173.27083998798292,225.01825705897468Q0,0,262.3873888025949,108.66857042105548Z"><title>DE &lt;&gt; DK 1</title></path><path style="mix-blend-mode: multiply;" fill="#a65628" d="M262.17268183889877,109.18555260381086Q0,0,139.8953070664031,247.15441137231758Q0,0,262.17268183889877,109.18555260381086Z"><title>DE &lt;&gt; FI 1</title></path><path style="mix-blend-mode: multiply;" fill="#999999" d="M261.95695626575605,109.70211057213423Q0,0,23.319430898477005,283.04099374926443Q0,0,261.95695626575605,109.70211057213423Z"><title>DE &lt;&gt; GB 1</title></path><path style="mix-blend-mode: multiply;" fill="#4daf4a" d="M261.74021292131704,110.21824231906277Q0,0,-95.34709744576334,267.5162256923271Q0,0,261.74021292131704,110.21824231906277Z"><title>DE &lt;&gt; IE 1</title></path><path style="mix-blend-mode: multiply;" fill="#f781bf" d="M261.5224526476862,110.7339458392896Q0,0,-168.25958556407903,228.78966730559395Q0,0,261.5224526476862,110.7339458392896Z"><title>DE &lt;&gt; JP 1</title></path><path style="mix-blend-mode: multiply;" fill="#377eb8" d="M261.30367629091927,111.24921912917169Q0,0,-283.99628657596844,1.452312315041823Q0,0,261.30367629091927,111.24921912917169Z"><title>DE &lt;&gt; SK 1</title></path><path style="mix-blend-mode: multiply;" fill="#ffff33" d="M261.08388470101966,111.76406018673752Q0,0,-10.242587724233534,-283.81523813338737Q0,0,261.08388470101966,111.76406018673752Z"><title>DE &lt;&gt; ZA 1</title></path><path style="mix-blend-mode: multiply;" fill="#4daf4a" d="M164.35866394547062,231.60792211420545Q0,0,71.49311727008997,-274.85402340698084Q0,0,164.35866394547062,231.60792211420545Z"><title>ES &lt;&gt; AT 1</title></path><path style="mix-blend-mode: multiply;" fill="#999999" d="M163.90182095477368,231.9314404898769Q0,0,-182.68996805018455,217.44051042485748Q0,0,163.90182095477368,231.9314404898769Z"><title>ES &lt;&gt; KR 1</title></path><path style="mix-blend-mode: multiply;" fill="#4daf4a" d="M163.44434116262977,232.25405775123474Q0,0,-254.5705070159194,125.89621502514579Q0,0,163.44434116262977,232.25405775123474Z"><title>ES &lt;&gt; NO 1</title></path><path style="mix-blend-mode: multiply;" fill="#4daf4a" d="M139.40786782491136,247.42967968397008Q0,0,70.95121204478524,-274.99440996023156Q0,0,139.40786782491136,247.42967968397008Z"><title>FI &lt;&gt; AT 1</title></path><path style="mix-blend-mode: multiply;" fill="#ff7f00" d="M138.9198869473876,247.70398666659577Q0,0,173.71403816265882,224.67628478596117Q0,0,138.9198869473876,247.70398666659577Z"><title>FI &lt;&gt; DK 1</title></path><path style="mix-blend-mode: multiply;" fill="#f781bf" d="M105.19585766775342,263.79884671761886Q0,0,191.78018645498727,-209.4668472176213Q0,0,105.19585766775342,263.79884671761886Z"><title>FR &lt;&gt; BR 1</title></path><path style="mix-blend-mode: multiply;" fill="#e41a1c" d="M104.67567789259121,264.0056864117258Q0,0,261.95695626575645,-109.70211057213342Q0,0,104.67567789259121,264.0056864117258Z"><title>FR &lt;&gt; CH 1</title></path><path style="mix-blend-mode: multiply;" fill="#a65628" d="M104.15509142503993,264.21150037468385Q0,0,140.38220277803384,246.87818280112762Q0,0,104.15509142503993,264.21150037468385Z"><title>FR &lt;&gt; FI 1</title></path><path style="mix-blend-mode: multiply;" fill="#e41a1c" d="M22.20344441261611,283.13072432396996Q0,0,261.7402129213174,-110.21824231906194Q0,0,22.20344441261611,283.13072432396996Z"><title>GB &lt;&gt; CH 1</title></path><path style="mix-blend-mode: multiply;" fill="#4daf4a" d="M21.64532068634082,283.17393964202546Q0,0,278.67473129014644,54.739329009083285Q0,0,21.64532068634082,283.17393964202546Z"><title>GB &lt;&gt; CZ 1</title></path><path style="mix-blend-mode: multiply;" fill="#ff7f00" d="M21.087112862332805,283.2160547552544Q0,0,-127.54866604687473,253.74660153322807Q0,0,21.087112862332805,283.2160547552544Z"><title>GB &lt;&gt; IN 1</title></path><path style="mix-blend-mode: multiply;" fill="#f781bf" d="M20.528823109375466,283.2570695000285Q0,0,-167.80829007353475,229.12088028505048Q0,0,20.528823109375466,283.2570695000285Z"><title>GB &lt;&gt; JP 1</title></path><path style="mix-blend-mode: multiply;" fill="#e41a1c" d="M19.970453596570533,283.2969837169948Q0,0,-203.5117035334844,198.08833010780612Q0,0,19.970453596570533,283.2969837169948Z"><title>GB &lt;&gt; MY 1</title></path><path style="mix-blend-mode: multiply;" fill="#4daf4a" d="M19.41200649332962,283.33579725107614Q0,0,-283.8366724564051,-9.630335865140355Q0,0,19.41200649332962,283.33579725107614Z"><title>GB &lt;&gt; TR 1</title></path><path style="mix-blend-mode: multiply;" fill="#ff7f00" d="M-95.87421498700607,267.3277667969142Q0,0,-118.87475604881392,-257.9240050370166Q0,0,-95.87421498700607,267.3277667969142Z"><title>IE &lt;&gt; US 1</title></path><path style="mix-blend-mode: multiply;" fill="#4daf4a" d="M-105.71297360279628,263.5920469438608Q0,0,70.40903115546281,-275.13372808826813Q0,0,-105.71297360279628,263.5920469438608Z"><title>IL &lt;&gt; AT 1</title></path><path style="mix-blend-mode: multiply;" fill="#377eb8" d="M-128.04857964727282,253.49469669071192Q0,0,281.97637405115694,33.842642877914145Q0,0,-128.04857964727282,253.49469669071192Z"><title>IN &lt;&gt; CN 1</title></path><path style="mix-blend-mode: multiply;" fill="#e41a1c" d="M-128.54799574544472,253.24180695499138Q0,0,-283.6157027301379,14.769331903983819Q0,0,-128.54799574544472,253.24180695499138Z"><title>IN &lt;&gt; SG 1</title></path><path style="mix-blend-mode: multiply;" fill="#377eb8" d="M-183.54574326198087,216.7186197132286Q0,0,282.0425337024816,33.2867718874112Q0,0,-183.54574326198087,216.7186197132286Z"><title>KR &lt;&gt; CN 1</title></path><path style="mix-blend-mode: multiply;" fill="#f781bf" d="M-183.97256201358047,216.35641064262293Q0,0,106.23498905836054,263.38209335444583Q0,0,-183.97256201358047,216.35641064262293Z"><title>KR &lt;&gt; FR 1</title></path><path style="mix-blend-mode: multiply;" fill="#999999" d="M-221.59604030364613,177.62656029362515Q0,0,215.4481453448373,-185.0353930129851Q0,0,-221.59604030364613,177.62656029362515Z"><title>NL &lt;&gt; CA 1</title></path><path style="mix-blend-mode: multiply;" fill="#e41a1c" d="M-221.94573055523026,177.18942600591362Q0,0,261.5224526476866,-110.7339458392888Q0,0,-221.94573055523026,177.18942600591362Z"><title>NL &lt;&gt; CH 1</title></path><path style="mix-blend-mode: multiply;" fill="#984ea3" d="M-222.29455848959586,176.75160329093382Q0,0,263.4456154213271,106.07736664943295Q0,0,-222.29455848959586,176.75160329093382Z"><title>NL &lt;&gt; DE 1</title></path><path style="mix-blend-mode: multiply;" fill="#999999" d="M-222.64252275145515,176.31309384974156Q0,0,23.877289322163193,282.9944788412412Q0,0,-222.64252275145515,176.31309384974156Z"><title>NL &lt;&gt; GB 1</title></path><path style="mix-blend-mode: multiply;" fill="#4daf4a" d="M-255.0648374094322,124.89166792584653Q0,0,-283.85510347675654,-9.07084506536358Q0,0,-255.0648374094322,124.89166792584653Z"><title>NO &lt;&gt; TR 1</title></path><path style="mix-blend-mode: multiply;" fill="#984ea3" d="M-259.5169892717818,115.35567727385548Q0,0,140.6725874603736,-246.7128353718216Q0,0,-259.5169892717818,115.35567727385548Z"><title>NZ &lt;&gt; AU 1</title></path><path style="mix-blend-mode: multiply;" fill="#999999" d="M-259.7438633626027,114.84391775566337Q0,0,24.43505497633468,282.9468644256435Q0,0,-259.7438633626027,114.84391775566337Z"><title>NZ &lt;&gt; GB 1</title></path><path style="mix-blend-mode: multiply;" fill="#999999" d="M-259.96972828057216,114.33171203881054Q0,0,-281.12917270654935,40.27888098409815Q0,0,-259.96972828057216,114.33171203881054Z"><title>NZ &lt;&gt; SE 1</title></path><path style="mix-blend-mode: multiply;" fill="#e41a1c" d="M-268.4610899088209,92.65334966944248Q0,0,261.30367629091967,-111.24921912917088Q0,0,-268.4610899088209,92.65334966944248Z"><title>PL &lt;&gt; CH 1</title></path><path style="mix-blend-mode: multiply;" fill="#984ea3" d="M-268.643197936521,92.12400448547154Q0,0,263.65419334903726,105.5578814180565Q0,0,-268.643197936521,92.12400448547154Z"><title>PL &lt;&gt; DE 1</title></path><path style="mix-blend-mode: multiply;" fill="#999999" d="M-268.82426221512696,91.5943013756459Q0,0,24.992725693925998,282.89815068746594Q0,0,-268.82426221512696,91.5943013756459Z"><title>PL &lt;&gt; GB 1</title></path><path style="mix-blend-mode: multiply;" fill="#ff7f00" d="M-269.00428204115667,91.06424239800069Q0,0,-119.38292060340109,-257.6891892730505Q0,0,-269.00428204115667,91.06424239800069Z"><title>PL &lt;&gt; US 1</title></path><path style="mix-blend-mode: multiply;" fill="#e41a1c" d="M-275.96100883552975,67.09337972167344Q0,0,0.27989714965773194,-283.9998620731806Q0,0,-275.96100883552975,67.09337972167344Z"><title>SA &lt;&gt; AE 1</title></path><path style="mix-blend-mode: multiply;" fill="#999999" d="M-276.09272089042236,66.54930105811272Q0,0,-182.26101491489834,217.80018926114641Q0,0,-276.09272089042236,66.54930105811272Z"><title>SA &lt;&gt; KR 1</title></path><path style="mix-blend-mode: multiply;" fill="#4daf4a" d="M-276.2233602528756,66.0049638331098Q0,0,-254.32185772853725,126.39775584046438Q0,0,-276.2233602528756,66.0049638331098Z"><title>SA &lt;&gt; NO 1</title></path><path style="mix-blend-mode: multiply;" fill="#a65628" d="M-281.208020509487,39.72466741378617Q0,0,140.86855306808638,246.60099504362046Q0,0,-281.208020509487,39.72466741378617Z"><title>SE &lt;&gt; FI 1</title></path><path style="mix-blend-mode: multiply;" fill="#f781bf" d="M-281.2857757457082,39.17029950275033Q0,0,106.7539366365082,263.17218130457553Q0,0,-281.2857757457082,39.17029950275033Z"><title>SE &lt;&gt; FR 1</title></path><path style="mix-blend-mode: multiply;" fill="#377eb8" d="M-283.28498301637177,-20.139970144316745Q0,0,282.10759754478767,32.730771569092504Q0,0,-283.28498301637177,-20.139970144316745Z"><title>TW &lt;&gt; CN 1</title></path><path style="mix-blend-mode: multiply;" fill="#f781bf" d="M-283.2447346876797,-20.698315673163847Q0,0,-167.35634260388917,229.45120306995491Q0,0,-283.2447346876797,-20.698315673163847Z"><title>TW &lt;&gt; JP 1</title></path><path style="mix-blend-mode: multiply;" fill="#377eb8" d="M-117.34749913429387,-258.6224360857482Q0,0,14.157499937856661,-283.6469023196086Q0,0,-117.34749913429387,-258.6224360857482Z"><title>US &lt;&gt; AR 1</title></path><path style="mix-blend-mode: multiply;" fill="#984ea3" d="M-116.83749900563872,-258.8532380058387Q0,0,140.18601710189793,-246.989636643132Q0,0,-116.83749900563872,-258.8532380058387Z"><title>US &lt;&gt; AU 1</title></path><path style="mix-blend-mode: multiply;" fill="#ff7f00" d="M-116.32704493273772,-259.0830342133904Q0,0,165.08688711511442,-231.08941927886158Q0,0,-116.32704493273772,-259.0830342133904Z"><title>US &lt;&gt; BE 1</title></path><path style="mix-blend-mode: multiply;" fill="#377eb8" d="M-115.81613889883947,-259.3118238155845Q0,0,-85.37006386355348,270.8651919238291Q0,0,-115.81613889883947,-259.3118238155845Z"><title>US &lt;&gt; HU 1</title></path><path style="mix-blend-mode: multiply;" fill="#ffff33" d="M-115.3047828889466,-259.53960592351393Q0,0,-140.7693390960781,246.65764364895193Q0,0,-115.3047828889466,-259.53960592351393Z"><title>US &lt;&gt; IQ 1</title></path><path style="mix-blend-mode: multiply;" fill="#377eb8" d="M-114.79297888981188,-259.7663796521852Q0,0,-220.89407828671966,178.49875679640058Q0,0,-114.79297888981188,-259.7663796521852Z"><title>US &lt;&gt; NL 1</title></path><path style="mix-blend-mode: multiply;" fill="#a65628" d="M-114.28072888992679,-259.99214412052345Q0,0,-272.51088678479175,79.96134430939993Q0,0,-114.28072888992679,-259.99214412052345Z"><title>US &lt;&gt; RU 1</title></path><path style="mix-blend-mode: multiply;" fill="#377eb8" d="M-113.76803487951753,-260.21689845137433Q0,0,-283.9928722149121,2.0120962016307717Q0,0,-113.76803487951753,-260.21689845137433Z"><title>US &lt;&gt; SK 1</title></path><path style="mix-blend-mode: multiply;" fill="#377eb8" d="M76.02858401903933,-273.63416163202265A284,284,0,0,1,76.14718143472679,-273.60118194106326Q0,0,13.257310316030674,-283.69040118267037A284,284,0,0,1,13.380272425491455,-283.6846282578942Q0,0,76.02858401903933,-273.63416163202265Z"><title>AT &lt;&gt; AR 2</title></path><path style="mix-blend-mode: multiply;" fill="#f781bf" d="M77.10671487025718,-273.33231518047194A284,284,0,0,1,77.22518135171845,-273.2988682105987Q0,0,-275.74670678852846,67.96876999976762A284,284,0,0,1,-275.77614141036196,67.84924339159592Q0,0,77.10671487025718,-273.33231518047194Z"><title>AT &lt;&gt; SA 2</title></path><path style="mix-blend-mode: multiply;" fill="#377eb8" d="M78.18364740361329,-273.0262208628825A284,284,0,0,1,78.3019811097571,-272.9923071338957Q0,0,-283.98505712398355,2.9133022994155944A284,284,0,0,1,-283.98629319533796,2.7902109546706315Q0,0,78.18364740361329,-273.0262208628825Z"><title>AT &lt;&gt; SK 2</title></path><path style="mix-blend-mode: multiply;" fill="#f781bf" d="M193.17558407178942,-208.18067566064585A284,284,0,0,1,193.26580018868935,-208.09692567989947Q0,0,107.5885434556711,262.8320857830854A284,284,0,0,1,107.47461086584076,262.87869449469673Q0,0,193.17558407178942,-208.18067566064585Z"><title>BR &lt;&gt; FR 2</title></path><path style="mix-blend-mode: multiply;" fill="#377eb8" d="M193.99477364912374,-207.41752046735408A284,284,0,0,1,194.08465890550536,-207.33341548706915Q0,0,-220.326522336076,179.19883804112848A284,284,0,0,1,-220.40417395482734,179.10332242392994Q0,0,193.99477364912374,-207.41752046735408Z"><title>BR &lt;&gt; NL 2</title></path><path style="mix-blend-mode: multiply;" fill="#984ea3" d="M217.0412186065467,-183.16415977419058A284,284,0,0,1,217.12058927116755,-183.07006777335545Q0,0,139.40152020034262,-247.43325598195864A284,284,0,0,1,139.50875508824126,-247.37281025555157Q0,0,217.0412186065467,-183.16415977419058Z"><title>CA &lt;&gt; AU 2</title></path><path style="mix-blend-mode: multiply;" fill="#ff7f00" d="M217.76160253153932,-182.30711577691062A284,284,0,0,1,217.8406016495657,-182.21271161188295Q0,0,174.42614586344973,224.12389350362125A284,284,0,0,1,174.3289847541585,224.19947608008448Q0,0,217.76160253153932,-182.30711577691062Z"><title>CA &lt;&gt; DK 2</title></path><path style="mix-blend-mode: multiply;" fill="#999999" d="M218.4786022166723,-181.44723853905592A284,284,0,0,1,218.55722856037647,-181.35252367697385Q0,0,-181.56893525690498,218.37747537160018A284,284,0,0,1,-181.66357218606407,218.298755242898Q0,0,218.4786022166723,-181.44723853905592Z"><title>CA &lt;&gt; KR 2</title></path><path style="mix-blend-mode: multiply;" fill="#377eb8" d="M263.7352717434085,-105.35514433776109A284,284,0,0,1,263.7809123210408,-105.24082047893492Q0,0,282.21004413714536,31.835373220844513A284,284,0,0,1,282.19621883738125,31.957691936133507Q0,0,263.7352717434085,-105.35514433776109Z"><title>CH &lt;&gt; CN 2</title></path><path style="mix-blend-mode: multiply;" fill="#ff7f00" d="M264.14855383500014,-104.31462748281301A284,284,0,0,1,264.1937433700306,-104.20012458788347Q0,0,175.30833254759298,223.43452852990865A284,284,0,0,1,175.21147015521402,223.51049354795077Q0,0,264.14855383500014,-104.31462748281301Z"><title>CH &lt;&gt; DK 2</title></path><path style="mix-blend-mode: multiply;" fill="#f781bf" d="M264.5577307856745,-103.27248947098434A284,284,0,0,1,264.60246857581114,-103.15780931944448Q0,0,108.62384508524374,262.4059074771316A284,284,0,0,1,108.51009712176852,262.4529649720581Q0,0,264.5577307856745,-103.27248947098434Z"><title>CH &lt;&gt; FR 2</title></path><path style="mix-blend-mode: multiply;" fill="#a65628" d="M264.9627962363999,-102.22874649817446A284,284,0,0,1,265.0070815863714,-102.11389087227211Q0,0,-155.19004452647772,237.84879667526144A284,284,0,0,1,-155.29312362338123,237.78150843851006Q0,0,264.9627962363999,-102.22874649817446Z"><title>CH &lt;&gt; IT 2</title></path><path style="mix-blend-mode: multiply;" fill="#ff7f00" d="M281.37816177057607,38.501039967921855A284,284,0,0,1,281.36144736856124,38.62299748424948Q0,0,-120.20006423690988,-257.30904484188414A284,284,0,0,1,-120.08852438070338,-257.3611204359843Q0,0,281.37816177057607,38.501039967921855Z"><title>CN &lt;&gt; US 2</title></path><path style="mix-blend-mode: multiply;" fill="#984ea3" d="M260.77667831175677,112.4789938107846A284,284,0,0,1,260.7279006874965,112.59201482827709Q0,0,138.4250046560251,-247.9808825010094A284,284,0,0,1,138.53247700002586,-247.92085998607965Q0,0,260.77667831175677,112.4789938107846Z"><title>DE &lt;&gt; AU 2</title></path><path style="mix-blend-mode: multiply;" fill="#a65628" d="M260.33123682539235,113.50615460388701A284,284,0,0,1,260.2820140282744,113.61898245181209Q0,0,-154.25119018911064,238.45873925113926A284,284,0,0,1,-154.35453374897918,238.39185789605995Q0,0,260.33123682539235,113.50615460388701Z"><title>DE &lt;&gt; IT 2</title></path><path style="mix-blend-mode: multiply;" fill="#999999" d="M259.88174952315336,114.53155139429909A284,284,0,0,1,259.8320823181508,114.64418431919562Q0,0,-180.70663585884154,219.09156021303065A284,284,0,0,1,-180.8015823834136,219.01321377408647Q0,0,259.88174952315336,114.53155139429909Z"><title>DE &lt;&gt; KR 2</title></path><path style="mix-blend-mode: multiply;" fill="#a65628" d="M259.4282233905362,115.55516824629727A284,284,0,0,1,259.37811254952857,115.66760449773349Q0,0,-272.2557672168456,80.82572125979931A284,284,0,0,1,-272.2907749101754,80.70770656397188Q0,0,259.4282233905362,115.55516824629727Z"><title>DE &lt;&gt; RU 2</title></path><path style="mix-blend-mode: multiply;" fill="#999999" d="M103.43077785309606,264.49588691074854A284,284,0,0,1,103.31612449242441,264.54069331553865Q0,0,25.890342117042156,282.8174149253587A284,284,0,0,1,25.767754719177443,282.8286103221036Q0,0,103.43077785309606,264.49588691074854Z"><title>FR &lt;&gt; GB 2</title></path><path style="mix-blend-mode: multiply;" fill="#a65628" d="M102.38727745146274,264.90157684709465A284,284,0,0,1,102.27244834572745,264.9459309168014Q0,0,-153.30993862918382,239.06497593230984A284,284,0,0,1,-153.41354504595196,238.9985024983079Q0,0,102.38727745146274,264.90157684709465Z"><title>FR &lt;&gt; IT 2</title></path><path style="mix-blend-mode: multiply;" fill="#f781bf" d="M101.34218584595581,265.30314993976936A284,284,0,0,1,101.22718277971963,265.3470509850849Q0,0,-275.47661735088803,69.05529156344512A284,284,0,0,1,-275.50652294224864,68.93588192133491Q0,0,101.34218584595581,265.30314993976936Z"><title>FR &lt;&gt; SA 2</title></path><path style="mix-blend-mode: multiply;" fill="#999999" d="M18.635611665471053,283.3879213690198A284,284,0,0,1,18.5127776675928,283.3959722067875Q0,0,214.8598736094297,-185.71815935050586A284,284,0,0,1,214.94035148982124,-185.62501259644966Q0,0,18.635611665471053,283.3879213690198Z"><title>GB &lt;&gt; CA 2</title></path><path style="mix-blend-mode: multiply;" fill="#4daf4a" d="M17.518293915918623,283.4591846779276A284,284,0,0,1,17.395429134480604,283.46675121648263Q0,0,-253.91946954109068,127.20417834320982A284,284,0,0,1,-253.97458133131266,127.09410701360014Q0,0,17.518293915918623,283.4591846779276Z"><title>GB &lt;&gt; NO 2</title></path><path style="mix-blend-mode: multiply;" fill="#999999" d="M16.40070391401383,283.5260427388018A284,284,0,0,1,16.27781025846145,283.5331248605523Q0,0,-280.9999371297644,41.170806806139325A284,284,0,0,1,-281.0177558934852,41.04900574422696Q0,0,16.40070391401383,283.5260427388018Z"><title>GB &lt;&gt; SE 2</title></path><path style="mix-blend-mode: multiply;" fill="#ff7f00" d="M-223.1247736335798,175.70240576316473A284,284,0,0,1,-223.20090948862946,175.60567759457163Q0,0,176.18779475947002,222.74169115321646A284,284,0,0,1,176.0912325893448,222.81803743226283Q0,0,-223.1247736335798,175.70240576316473Z"><title>NL &lt;&gt; DK 2</title></path><path style="mix-blend-mode: multiply;" fill="#ff7f00" d="M-264.72045790904315,102.8546506698969A284,284,0,0,1,-264.76501457497886,102.7399000248259Q0,0,-121.21349491546293,-256.8331922676254A284,284,0,0,1,-121.10216121858369,-256.88570716991666Q0,0,-264.72045790904315,102.8546506698969Z"><title>PE &lt;&gt; US 2</title></path><path style="mix-blend-mode: multiply;" fill="#ffff33" d="M-113.05463017789876,-260.52763883192614A284,284,0,0,1,-112.94169591886353,-260.576616991953Q0,0,175.47433583285866,-223.30418147454634A284,284,0,0,1,175.57110877621284,-223.22810253884083Q0,0,-113.05463017789876,-260.52763883192614Z"><title>US &lt;&gt; BG 2</title></path><path style="mix-blend-mode: multiply;" fill="#e41a1c" d="M-112.02669863663704,-260.97129879083656A284,284,0,0,1,-111.91357217327052,-261.01983136041247Q0,0,260.9493249550805,-112.07787384442926A284,284,0,0,1,260.99787970820864,-111.9647569006402Q0,0,-112.02669863663704,-260.97129879083656Z"><title>US &lt;&gt; CH 2</title></path><path style="mix-blend-mode: multiply;" fill="#ff7f00" d="M-110.9970260849563,-261.4109029866496A284,284,0,0,1,-110.88370917536041,-261.4589892115284Q0,0,177.06451883133127,222.04539214095198A284,284,0,0,1,176.96825838413545,222.12211849450264Q0,0,-110.9970260849563,-261.4109029866496Z"><title>US &lt;&gt; DK 2</title></path><path style="mix-blend-mode: multiply;" fill="#a65628" d="M-109.96562852502981,-261.84644458746266A284,284,0,0,1,-109.85212293026615,-261.8940837203347Q0,0,141.6504015058048,246.1527244481448A284,284,0,0,1,141.54369525324665,246.21409856881883Q0,0,-109.96562852502981,-261.84644458746266Z"><title>US &lt;&gt; FI 2</title></path><path style="mix-blend-mode: multiply;" fill="#f781bf" d="M-108.93252198583923,-262.27791682451016A284,284,0,0,1,-108.8188294699018,-262.3251081250143Q0,0,109.65745858825059,261.97565111278203A284,284,0,0,1,109.54389701889114,262.02315665970167Q0,0,-108.93252198583923,-262.27791682451016Z"><title>US &lt;&gt; FR 2</title></path><path style="mix-blend-mode: multiply;" fill="#377eb8" d="M144.73322531160773,-244.352805367361A284,284,0,0,1,145.3203646481998,-244.00408115134928Q0,0,282.39336176518975,30.166027762280148A284,284,0,0,1,282.3200097619342,30.844968601400325Q0,0,144.73322531160773,-244.352805367361Z"><title>AU &lt;&gt; CN 3</title></path><path style="mix-blend-mode: multiply;" fill="#f781bf" d="M146.17562300865535,-243.49268415710455A284,284,0,0,1,146.76068997370038,-243.1404941149117Q0,0,111.20467847395449,261.32263485106756A284,284,0,0,1,110.57599449089214,261.58927623729187Q0,0,146.17562300865535,-243.49268415710455Z"><title>AU &lt;&gt; FR 3</title></path><path style="mix-blend-mode: multiply;" fill="#999999" d="M194.8109483476277,-206.65114179190476A284,284,0,0,1,195.30728749968273,-206.18211234128987Q0,0,213.75791238318672,-186.98544032512763A284,284,0,0,1,214.20690966194513,-186.4709088653758Q0,0,194.8109483476277,-206.65114179190476Z"><title>BR &lt;&gt; CA 3</title></path><path style="mix-blend-mode: multiply;" fill="#4daf4a" d="M219.1922065190312,-180.58454142400552A284,284,0,0,1,219.62579682684284,-180.05696145435294Q0,0,68.99268337019342,-275.4923041418403A284,284,0,0,1,69.65491804845331,-275.3256115795682Q0,0,219.1922065190312,-180.58454142400552Z"><title>CA &lt;&gt; AT 3</title></path><path style="mix-blend-mode: multiply;" fill="#4daf4a" d="M278.30273586029125,56.60024039416226A284,284,0,0,1,278.16583338204094,57.269268712588136Q0,0,67.36241218851632,-275.895461043027A284,284,0,0,1,68.02562098939678,-275.7326873785677Q0,0,278.30273586029125,56.60024039416226Z"><title>CZ &lt;&gt; AT 3</title></path><path style="mix-blend-mode: multiply;" fill="#4daf4a" d="M277.96317667700794,58.244934643507506A284,284,0,0,1,277.8223204361477,58.91314172130415Q0,0,-253.16283534861876,128.70345293832702A284,284,0,0,1,-253.4715769459049,128.0943389871551Q0,0,277.96317667700794,58.244934643507506Z"><title>CZ &lt;&gt; NO 3</title></path><path style="mix-blend-mode: multiply;" fill="#ff7f00" d="M277.6138978820552,59.88759222686979A284,284,0,0,1,277.46909280394226,60.55495469866419Q0,0,-122.73010392691693,-256.11193176048664A284,284,0,0,1,-122.11391600399784,-256.4063016350584Q0,0,277.6138978820552,59.88759222686979Z"><title>CZ &lt;&gt; US 3</title></path><path style="mix-blend-mode: multiply;" fill="#4daf4a" d="M258.9706654758044,116.57698925182015A284,284,0,0,1,258.68960198720174,117.19935931438847Q0,0,-252.3973487445499,130.19822712587933A284,284,0,0,1,-252.70968680925162,129.59094950176868Q0,0,258.9706654758044,116.57698925182015Z"><title>DE &lt;&gt; NO 3</title></path><path style="mix-blend-mode: multiply;" fill="#377eb8" d="M100.29551927837653,265.7005999479128A284,284,0,0,1,99.65633981104634,265.940997094215Q0,0,-219.26301614802765,180.49855885759803A284,284,0,0,1,-219.69639950203128,179.97080887144963Q0,0,100.29551927837653,265.7005999479128Z"><title>FR &lt;&gt; NL 3</title></path><path style="mix-blend-mode: multiply;" fill="#ff7f00" d="M15.282859028257771,283.588494512599A284,284,0,0,1,14.60091304714237,283.6244230283947Q0,0,178.3744411331646,220.99447674191134A284,284,0,0,1,177.8425339097007,221.42274754996822Q0,0,15.282859028257771,283.588494512599Z"><title>GB &lt;&gt; DK 3</title></path><path style="mix-blend-mode: multiply;" fill="#ff7f00" d="M-260.28201402827335,113.61898245181449A284,284,0,0,1,-260.5544637296966,112.99279371061783Q0,0,-124.24242140247546,-255.38171571991938A284,284,0,0,1,-123.62798494618161,-255.67972414359863Q0,0,-260.28201402827335,113.61898245181449Z"><title>NZ &lt;&gt; US 3</title></path><path style="mix-blend-mode: multiply;" fill="#4daf4a" d="M-107.89772252292549,-262.70531299226855A284,284,0,0,1,-107.2657233857674,-262.9639986510093Q0,0,65.72978552761562,-276.28897063490183A284,284,0,0,1,66.3939452605197,-276.13012156000497Q0,0,-107.89772252292549,-262.70531299226855Z"><title>US &lt;&gt; AT 3</title></path><path style="mix-blend-mode: multiply;" fill="#999999" d="M-106.34238428275485,-263.33875010157334A284,284,0,0,1,-105.7088665128083,-263.59369404554667Q0,0,212.6484766276752,-188.24618293056852A284,284,0,0,1,213.10050862829527,-187.73431551626848Q0,0,-106.34238428275485,-263.33875010157334Z"><title>US &lt;&gt; CA 3</title></path><path style="mix-blend-mode: multiply;" fill="#f781bf" d="M79.25936488246558,-272.7158834362754A284,284,0,0,1,80.45191322957257,-272.3664620648095Q0,0,113.26158017610607,260.437736236536A284,284,0,0,1,112.1209135718948,260.93083516480704Q0,0,79.25936488246558,-272.7158834362754Z"><title>AT &lt;&gt; FR 4</title></path><path style="mix-blend-mode: multiply;" fill="#984ea3" d="M162.80736638946576,232.7010129959177A284,284,0,0,1,161.7875914500107,233.41117208223866Q0,0,264.39861960181906,103.67916836400924A284,284,0,0,1,263.9424255318859,104.83508956616045Q0,0,162.80736638946576,232.7010129959177Z"><title>ES &lt;&gt; DE 4</title></path><path style="mix-blend-mode: multiply;" fill="#ff7f00" d="M98.72260196223526,266.28903068246365A284,284,0,0,1,97.55647137158407,266.7184562296455Q0,0,180.11129390291222,219.58124193249927A284,284,0,0,1,179.14876073311441,220.36724241091125Q0,0,98.72260196223526,266.28903068246365Z"><title>FR &lt;&gt; DK 4</title></path><path style="mix-blend-mode: multiply;" fill="#999999" d="M13.60565179568047,283.67390828064305A284,284,0,0,1,12.364266040959805,283.7307260859641Q0,0,-178.97362540498233,220.50950412487228A284,284,0,0,1,-179.93678273772989,219.72426861408596Q0,0,13.60565179568047,283.67390828064305Z"><title>GB &lt;&gt; KR 4</title></path><path style="mix-blend-mode: multiply;" fill="#377eb8" d="M-106.43480214451786,263.3014107300934A284,284,0,0,1,-107.58589597315482,262.83316949664766Q0,0,282.62242384175937,27.93860307547441A284,284,0,0,1,282.4974689210566,29.174990200454715Q0,0,-106.43480214451786,263.3014107300934Z"><title>IL &lt;&gt; CN 4</title></path><path style="mix-blend-mode: multiply;" fill="#ff7f00" d="M-169.3355531631667,227.99445264068237A284,284,0,0,1,-170.33155421889808,227.2513182302241Q0,0,-126.25207760225811,-254.3942076799576A284,284,0,0,1,-125.13773095602767,-254.94420623182796Q0,0,-169.3355531631667,227.99445264068237Z"><title>JP &lt;&gt; US 4</title></path><path style="mix-blend-mode: multiply;" fill="#984ea3" d="M-276.4031727913182,65.2478817349093A284,284,0,0,1,-276.68602811785235,64.03781573700817Q0,0,265.2078440509122,101.59133552556072A284,284,0,0,1,264.7607778434752,102.75081759148188Q0,0,-276.4031727913182,65.2478817349093Z"><title>SA &lt;&gt; DE 4</title></path><path style="mix-blend-mode: multiply;" fill="#999999" d="M-104.78332754040134,-263.9629789753877A284,284,0,0,1,-103.62731689926342,-264.41894635645843Q0,0,28.11936784501166,282.6044959868773A284,284,0,0,1,26.88252251354263,282.72483085733535Q0,0,-104.78332754040134,-263.9629789753877Z"><title>US &lt;&gt; GB 4</title></path><path style="mix-blend-mode: multiply;" fill="#984ea3" d="M81.40708782476605,-272.0824986137308A284,284,0,0,1,83.13227980473242,-271.56035066715407Q0,0,266.1961848858195,98.97267881710906A284,284,0,0,1,265.56267159697194,100.66015822697102Q0,0,81.40708782476605,-272.0824986137308Z"><title>AT &lt;&gt; DE 5</title></path><path style="mix-blend-mode: multiply;" fill="#377eb8" d="M220.25622238464322,-179.28523782187585A284,284,0,0,1,221.38965957815586,-177.8837222228843Q0,0,282.88404359678157,25.151896118069967A284,284,0,0,1,282.71871407840104,26.946775500147382Q0,0,220.25622238464322,-179.28523782187585Z"><title>CA &lt;&gt; CN 5</title></path><path style="mix-blend-mode: multiply;" fill="#ff7f00" d="M160.96761064042627,233.97740985982412A284,284,0,0,1,159.47937942828352,234.9943138400791Q0,0,-128.75309655914577,-253.1375912945987A284,284,0,0,1,-127.14390985152016,-253.94965285990946Q0,0,160.96761064042627,233.97740985982412Z"><title>ES &lt;&gt; US 5</title></path><path style="mix-blend-mode: multiply;" fill="#377eb8" d="M96.62001852781084,267.05911708774426A284,284,0,0,1,94.92312296765537,267.66695859980064Q0,0,283.1181866026985,22.362746137261414A284,284,0,0,1,282.97055432387623,24.15916773480033Q0,0,96.62001852781084,267.05911708774426Z"><title>FR &lt;&gt; CN 5</title></path><path style="mix-blend-mode: multiply;" fill="#a65628" d="M11.368645565282627,283.77236281571004A284,284,0,0,1,9.567392722572892,283.83880107640687Q0,0,144.06944972522675,244.7447520497025A284,284,0,0,1,142.51322154139433,245.65419126465855Q0,0,11.368645565282627,283.77236281571004Z"><title>GB &lt;&gt; FI 5</title></path><path style="mix-blend-mode: multiply;" fill="#f781bf" d="M8.571410253988974,283.87062357041776A284,284,0,0,1,6.769590115824266,283.9193065814013Q0,0,115.82279126479271,259.30885257474773A284,284,0,0,1,114.17469771125842,260.03872481332996Q0,0,8.571410253988974,283.87062357041776Z"><title>GB &lt;&gt; FR 5</title></path><path style="mix-blend-mode: multiply;" fill="#4daf4a" d="M-66.8156818055822,276.0283765572938A284,284,0,0,1,-68.56621105012213,275.59875671386857Q0,0,-251.1019385521429,132.679374641863A284,284,0,0,1,-251.9389601063658,131.08302857549108Q0,0,-66.8156818055822,276.0283765572938Z"><title>HR &lt;&gt; NO 5</title></path><path style="mix-blend-mode: multiply;" fill="#984ea3" d="M-108.50745345804536,262.45405796834257A284,284,0,0,1,-110.1709905979053,261.76010549867266Q0,0,267.15866987643136,96.34440881470995A284,284,0,0,1,266.54181809761707,98.03804978281039Q0,0,-108.50745345804536,262.45405796834257Z"><title>IL &lt;&gt; DE 5</title></path><path style="mix-blend-mode: multiply;" fill="#377eb8" d="M-223.8156945311765,174.82143713379972A284,284,0,0,1,-224.92072953935335,173.3974204637574Q0,0,283.3248301170163,19.571424045374744A284,284,0,0,1,283.1949094173914,21.36921337053593Q0,0,-223.8156945311765,174.82143713379972Z"><title>NL &lt;&gt; CN 5</title></path><path style="mix-blend-mode: multiply;" fill="#f781bf" d="M-102.69889512412,-264.78092253839776A284,284,0,0,1,-101.01633619557785,-265.42739086541536Q0,0,-165.26450735295631,230.9624268347227A284,284,0,0,1,-166.72703278906855,229.90888746926Q0,0,-102.69889512412,-264.78092253839776Z"><title>US &lt;&gt; JP 5</title></path><path style="mix-blend-mode: multiply;" fill="#a65628" d="M84.08460944506183,-271.26698740257984A284,284,0,0,1,86.33803823069418,-270.5582065923619Q0,0,146.9538154832598,243.02381799920772A284,284,0,0,1,144.92731462590646,244.23773966224695Q0,0,84.08460944506183,-271.26698740257984Z"><title>AT &lt;&gt; FI 6</title></path><path style="mix-blend-mode: multiply;" fill="#f781bf" d="M258.2767845844896,118.10631881782264A284,284,0,0,1,257.28546825167234,120.25052110705263Q0,0,118.88137281055886,257.9209553306534A284,284,0,0,1,116.73193204663418,258.90086141351475Q0,0,258.2767845844896,118.10631881782264Z"><title>DE &lt;&gt; FR 6</title></path><path style="mix-blend-mode: multiply;" fill="#999999" d="M256.86195368354976,121.15253505341907A284,284,0,0,1,255.84534855557484,123.2848637200708Q0,0,-280.4933846597927,44.491135769876294A284,284,0,0,1,-280.8537486940896,42.15651603817802Q0,0,256.86195368354976,121.15253505341907Z"><title>DE &lt;&gt; SE 6</title></path><path style="mix-blend-mode: multiply;" fill="#984ea3" d="M93.98335826241136,267.99837381916933A284,284,0,0,1,91.75095711105497,268.77083522809045Q0,0,135.48261129033557,-249.60060504324073A284,284,0,0,1,137.55404597426286,-248.46505677078696Q0,0,93.98335826241136,267.99837381916933Z"><title>FR &lt;&gt; AU 6</title></path><path style="mix-blend-mode: multiply;" fill="#984ea3" d="M90.80733868944013,269.0911132686126A284,284,0,0,1,88.56595824702856,269.83711946243716Q0,0,268.2793906984505,93.17815477067644A284,284,0,0,1,267.4950751823418,95.40641882595375Q0,0,90.80733868944013,269.0911132686126Z"><title>FR &lt;&gt; DE 6</title></path><path style="mix-blend-mode: multiply;" fill="#984ea3" d="M5.773342394892226,283.9413117487333A284,284,0,0,1,3.411382959771364,283.97951064522556Q0,0,132.52126826557404,-251.18541649005772A284,284,0,0,1,134.6059874958352,-250.07444517637356Q0,0,5.773342394892226,283.9413117487333Z"><title>GB &lt;&gt; AU 6</title></path><path style="mix-blend-mode: multiply;" fill="#4daf4a" d="M-69.53280017199762,275.3564774982442A284,284,0,0,1,-71.82074780766946,274.76859388282924Q0,0,62.45769420245904,-277.04699318872264A284,284,0,0,1,64.75994791705735,-276.5179002266942Q0,0,-69.53280017199762,275.3564774982442Z"><title>HR &lt;&gt; AT 6</title></path><path style="mix-blend-mode: multiply;" fill="#ff7f00" d="M-72.78440404942084,274.51490037367853A284,284,0,0,1,-75.06523915295104,273.89999976434876Q0,0,-131.73779024131852,-251.59720710360511A284,284,0,0,1,-129.64050424154834,-252.68426872284132Q0,0,-72.78440404942084,274.51490037367853Z"><title>HR &lt;&gt; US 6</title></path><path style="mix-blend-mode: multiply;" fill="#ff7f00" d="M-129.24137957733203,252.88864309206926A284,284,0,0,1,-131.3403793239895,251.80489423168595Q0,0,-134.70405804441947,-250.0216325567963A284,284,0,0,1,-132.61977470502077,-251.13342142612066Q0,0,-129.24137957733203,252.88864309206926Z"><title>IN &lt;&gt; US 6</title></path><path style="mix-blend-mode: multiply;" fill="#4daf4a" d="M-276.9090185415388,63.06659536047384A284,284,0,0,1,-277.4240130492998,60.76114699067119Q0,0,59.17686705504248,-277.76626578033165A284,284,0,0,1,61.485217011222815,-277.26443711569436Q0,0,-276.9090185415388,63.06659536047384Z"><title>SA &lt;&gt; AT 6</title></path><path style="mix-blend-mode: multiply;" fill="#984ea3" d="M-100.08439209841158,-265.7801995226345A284,284,0,0,1,-97.87023016519822,-266.60348468729944Q0,0,269.36258786380733,89.99886810017489A284,284,0,0,1,268.60467946498545,92.236251926845Q0,0,-100.08439209841158,-265.7801995226345Z"><title>US &lt;&gt; DE 6</title></path><path style="mix-blend-mode: multiply;" fill="#4daf4a" d="M-96.93417879810197,-266.94524715892135A284,284,0,0,1,-94.71043523793901,-267.7422892578611Q0,0,-249.51526311933756,135.63971936895086A284,284,0,0,1,-250.63485212526496,133.5596155285967Q0,0,-96.93417879810197,-266.94524715892135Z"><title>US &lt;&gt; NO 6</title></path><path style="mix-blend-mode: multiply;" fill="#377eb8" d="M87.2868318494436,-270.2536012446217A284,284,0,0,1,90.06279572353365,-269.34122006566514Q0,0,283.56789418403855,15.660440224652914A284,284,0,0,1,283.39175756716025,18.577183397810572Q0,0,87.2868318494436,-270.2536012446217Z"><title>AT &lt;&gt; CN 7</title></path><path style="mix-blend-mode: multiply;" fill="#4daf4a" d="M87.61861809090549,270.1462155275177A284,284,0,0,1,84.83450115597249,271.03340645318485Q0,0,55.338806536296374,-278.55630757737003A284,284,0,0,1,58.2018863014044,-277.9721936290722Q0,0,87.61861809090549,270.1462155275177Z"><title>FR &lt;&gt; AT 7</title></path><path style="mix-blend-mode: multiply;" fill="#a65628" d="M-225.5277557404101,172.60715915249264A284,284,0,0,1,-227.2917380941457,170.27761389607934Q0,0,150.29290258647572,240.97311765450544A284,284,0,0,1,147.80562427585213,242.50669564452366Q0,0,-225.5277557404101,172.60715915249264Z"><title>NL &lt;&gt; FI 7</title></path><path style="mix-blend-mode: multiply;" fill="#a65628" d="M-93.77040752438786,-268.0729577423098A284,284,0,0,1,-91.00729629427133,-269.0235529116488Q0,0,-149.99689156732143,241.15748489346382A284,284,0,0,1,-152.4701721382343,239.60143281737112Q0,0,-93.77040752438786,-268.0729577423098Z"><title>US &lt;&gt; IT 7</title></path><path style="mix-blend-mode: multiply;" fill="#e41a1c" d="M-90.06279572353972,-269.3412200656631A284,284,0,0,1,-87.28683184944975,-270.2536012446197Q0,0,-283.3992078603816,18.463179144129604A284,284,0,0,1,-283.57417111644645,15.546365350793556Q0,0,-90.06279572353972,-269.3412200656631Z"><title>US &lt;&gt; SG 7</title></path><path style="mix-blend-mode: multiply;" fill="#4daf4a" d="M2.414944669173242,283.98973228313173A284,284,0,0,1,-1.0668876091879367,283.9979960331223Q0,0,50.9395942115552,-279.3942693427374A284,284,0,0,1,54.3610773379448,-278.7487637114432Q0,0,2.414944669173242,283.98973228313173Z"><title>GB &lt;&gt; AT 8</title></path><path style="mix-blend-mode: multiply;" fill="#4daf4a" d="M-227.88780303265523,169.47905247832176A284,284,0,0,1,-229.94845176601228,166.67246182382357Q0,0,46.527715671705515,-280.1627592567808A284,284,0,0,1,49.958951882896606,-279.5712845174955Q0,0,-227.88780303265523,169.47905247832176Z"><title>NL &lt;&gt; AT 8</title></path><path style="mix-blend-mode: multiply;" fill="#ff7f00" d="M-281.39204401778477,38.399447437340434A284,284,0,0,1,-281.84166497326765,34.94675786244477Q0,0,-138.6297025958243,-247.86650753620043A284,284,0,0,1,-135.58049592816687,-249.5474486422819Q0,0,-281.39204401778477,38.399447437340434Z"><title>SE &lt;&gt; US 8</title></path><path style="mix-blend-mode: multiply;" fill="#999999" d="M83.8829864801061,271.3294023492079A284,284,0,0,1,80.01328209872707,272.4956415941171Q0,0,209.27571142352568,-191.98874083700122A284,284,0,0,1,211.9866560529873,-188.99115761186408Q0,0,83.8829864801061,271.3294023492079Z"><title>FR &lt;&gt; CA 9</title></path><path style="mix-blend-mode: multiply;" fill="#377eb8" d="M-2.0633631936211234,283.992504359413A284,284,0,0,1,-6.10456944441659,283.93438367323233Q0,0,-216.02664550855462,184.35967137723281A284,284,0,0,1,-218.62833944608417,181.2667900941808Q0,0,-2.0633631936211234,283.992504359413Z"><title>GB &lt;&gt; NL 9</title></path><path style="mix-blend-mode: multiply;" fill="#4daf4a" d="M265.36374389204155,-101.18341478522545A284,284,0,0,1,266.96824586946326,-96.87081963822654Q0,0,40.99672715257588,-281.0253873990342A284,284,0,0,1,45.544404051091405,-280.32428945710524Q0,0,265.36374389204155,-101.18341478522545Z"><title>CH &lt;&gt; AT 10</title></path><path style="mix-blend-mode: multiply;" fill="#e41a1c" d="M281.2241963710133,39.6099908543A284,284,0,0,1,280.5455396664538,44.1610707893072Q0,0,-282.98025017014976,24.045332470969182A284,284,0,0,1,-283.33268037848,19.45744663479958Q0,0,281.2241963710133,39.6099908543Z"><title>CN &lt;&gt; SG 10</title></path><path style="mix-blend-mode: multiply;" fill="#e41a1c" d="M255.4111960581062,124.18180594663468A284,284,0,0,1,253.3657296114705,128.30357383349545Q0,0,258.68960198720214,-117.19935931438762A284,284,0,0,1,260.5544637296979,-112.99279371061479Q0,0,255.4111960581062,124.18180594663468Z"><title>DE &lt;&gt; CH 10</title></path><path style="mix-blend-mode: multiply;" fill="#f781bf" d="M-230.53185072006144,165.86460081519297A284,284,0,0,1,-233.1888625441533,162.10784800670191Q0,0,123.94184811363552,255.52772508316295A284,284,0,0,1,119.78562495968707,257.50224086989454Q0,0,-230.53185072006144,165.86460081519297Z"><title>NL &lt;&gt; FR 10</title></path><path style="mix-blend-mode: multiply;" fill="#ff7f00" d="M-277.63550187041784,59.78735736893895A284,284,0,0,1,-278.567711206922,55.281373652767336Q0,0,-143.48817055857836,-245.08599492780553A284,284,0,0,1,-139.49855448768713,-247.3785627249172Q0,0,-277.63550187041784,59.78735736893895Z"><title>SA &lt;&gt; US 10</title></path><path style="mix-blend-mode: multiply;" fill="#f781bf" d="M222.012448892921,-177.10582298887903A284,284,0,0,1,225.19422628908558,-173.0420770970463Q0,0,129.4526789696851,252.78054495465358A284,284,0,0,1,124.83767182994082,255.09126933723152Q0,0,222.012448892921,-177.10582298887903Z"><title>CA &lt;&gt; FR 11</title></path><path style="mix-blend-mode: multiply;" fill="#999999" d="M225.80000399029703,-172.2508583374314A284,284,0,0,1,228.89292955780846,-168.11908517013805Q0,0,34.239759040509576,281.928428685097A284,284,0,0,1,29.110787437761143,282.50409210266935Q0,0,225.80000399029703,-172.2508583374314Z"><title>CA &lt;&gt; GB 11</title></path><path style="mix-blend-mode: multiply;" fill="#377eb8" d="M-7.100790817416083,283.91121635075865A284,284,0,0,1,-13.377414902517277,283.68476302143176Q0,0,283.8760479341935,8.389839644681098A284,284,0,0,1,283.6210974158545,14.665370797438953Q0,0,-7.100790817416083,283.91121635075865Z"><title>GB &lt;&gt; CN 13</title></path><path style="mix-blend-mode: multiply;" fill="#984ea3" d="M229.48141087034688,-167.31491883557496A284,284,0,0,1,233.4445238873631,-161.73946416073713Q0,0,271.7432814107926,82.5323512817537A284,284,0,0,1,269.6767145935323,89.05318414317662Q0,0,229.48141087034688,-167.31491883557496Z"><title>CA &lt;&gt; DE 14</title></path><path style="mix-blend-mode: multiply;" fill="#377eb8" d="M252.91398290483957,129.19178476672005A284,284,0,0,1,249.72911359653276,135.24559076838713Q0,0,-210.85754605204596,190.25008613114824A284,284,0,0,1,-215.37844099341967,185.1165231826809Q0,0,252.91398290483957,129.19178476672005Z"><title>DE &lt;&gt; NL 14</title></path><path style="mix-blend-mode: multiply;" fill="#ff7f00" d="M-111.08876704053193,261.3719300870207A284,284,0,0,1,-117.8610693558068,258.3887929657664Q0,0,-150.67076268472533,-240.73703759912635A284,284,0,0,1,-144.34723637843317,-244.58102001158784Q0,0,-111.08876704053193,261.3719300870207Z"><title>IL &lt;&gt; US 15</title></path><path style="mix-blend-mode: multiply;" fill="#ff7f00" d="M196.02952976375713,-205.49555581715205A284,284,0,0,1,201.71160079681488,-199.9210596810311Q0,0,-158.1868751337631,-235.86630224645327A284,284,0,0,1,-151.51452482236647,-240.20688742800962Q0,0,196.02952976375713,-205.49555581715205Z"><title>BR &lt;&gt; US 16</title></path><path style="mix-blend-mode: multiply;" fill="#ff7f00" d="M-233.75622539512779,161.2886452575699A284,284,0,0,1,-238.48898385054108,154.20442465096892Q0,0,-166.00019635147444,-230.4342309885229A284,284,0,0,1,-159.01350073980066,-235.3098097880184Q0,0,-233.75622539512779,161.2886452575699Z"><title>NL &lt;&gt; US 17</title></path><path style="mix-blend-mode: multiply;" fill="#4daf4a" d="M91.00729629426515,-269.02355291165094A284,284,0,0,1,100.0843920984057,-265.78019952263674Q0,0,-244.26164080137272,144.88702782865403A284,284,0,0,1,-249.0377993064439,136.51437476179333Q0,0,91.00729629426515,-269.02355291165094Z"><title>AT &lt;&gt; NO 19</title></path><path style="mix-blend-mode: multiply;" fill="#ff7f00" d="M147.61290934416158,-242.62404867397692A284,284,0,0,1,156.22930008250472,-237.16746361111737Q0,0,-174.95307993684997,-223.7128065637061A284,284,0,0,1,-166.80771400074423,-229.8503568625594Q0,0,147.61290934416158,-242.62404867397692Z"><title>AU &lt;&gt; US 20</title></path><path style="mix-blend-mode: multiply;" fill="#ff7f00" d="M267.3064993993043,-95.9334945620648A284,284,0,0,1,270.57869032724136,-86.27382187427904Q0,0,-183.63410325369424,-216.6437539422994A284,284,0,0,1,-175.73695857759262,-223.09756025088555Q0,0,267.3064993993043,-95.9334945620648Z"><title>CH &lt;&gt; US 20</title></path><path style="mix-blend-mode: multiply;" fill="#984ea3" d="M-14.372715645676394,283.63607853192536A284,284,0,0,1,-25.10523658867776,282.88818832858067Q0,0,274.9258185772558,71.21653094349512A284,284,0,0,1,272.03119523473214,81.57835999309532Q0,0,-14.372715645676394,283.63607853192536Z"><title>GB &lt;&gt; DE 21</title></path><path style="mix-blend-mode: multiply;" fill="#4daf4a" d="M249.2530313717652,136.1209989383924A284,284,0,0,1,242.18117804480647,148.33838680810084Q0,0,25.98960139123947,-282.80831073277267A284,284,0,0,1,40.01042282005461,-281.16750535181063Q0,0,249.2530313717652,136.1209989383924Z"><title>DE &lt;&gt; AT 27</title></path><path style="mix-blend-mode: multiply;" fill="#ff7f00" d="M-184.56467417534455,215.85152546727323A284,284,0,0,1,-195.8746843768685,205.64315699838434Q0,0,-195.71124185630757,-205.79871187901514A284,284,0,0,1,-184.3931248138538,-215.99809147625018Q0,0,-184.56467417534455,215.85152546727323Z"><title>KR &lt;&gt; US 29</title></path><path style="mix-blend-mode: multiply;" fill="#377eb8" d="M241.65920274215884,149.1872304522883A284,284,0,0,1,232.6707218290933,162.8506530644832Q0,0,283.85858993579507,-8.961078041292227A284,284,0,0,1,283.9037384422151,7.393733734339688Q0,0,241.65920274215884,149.1872304522883Z"><title>DE &lt;&gt; CN 31</title></path><path style="mix-blend-mode: multiply;" fill="#ff7f00" d="M101.01633619557187,-265.42739086541764A284,284,0,0,1,122.73010392691246,-256.1119317604888Q0,0,-212.80193496110758,-188.07268934326575A284,284,0,0,1,-196.4321363717268,-205.1107403341895Q0,0,101.01633619557187,-265.42739086541764Z"><title>AT &lt;&gt; US 44</title></path><path style="mix-blend-mode: multiply;" fill="#ff7f00" d="M-26.09767014530001,282.7983585754824A284,284,0,0,1,-56.11483879781331,278.40101448575115Q0,0,-232.22454863095493,-163.4862655183892A284,284,0,0,1,-213.46052782808874,-187.32485969393852Q0,0,-26.09767014530001,282.7983585754824Z"><title>GB &lt;&gt; US 56</title></path><path style="mix-blend-mode: multiply;" fill="#ff7f00" d="M79.05666646191268,272.7747119656254A284,284,0,0,1,45.093005571240504,280.39725542264506Q0,0,-250.94845581602448,-132.96944206678768A284,284,0,0,1,-232.79675396073765,-162.67043783473315Q0,0,79.05666646191268,272.7747119656254Z"><title>FR &lt;&gt; US 64</title></path><path style="mix-blend-mode: multiply;" fill="#ff7f00" d="M234.01059259230854,-160.919366623774A284,284,0,0,1,253.97458133131403,-127.09410701359745Q0,0,-267.23319317759444,-96.13750810223085A284,284,0,0,1,-251.41346953261413,-132.0881044514354Q0,0,234.01059259230854,-160.919366623774Z"><title>CA &lt;&gt; US 72</title></path><path style="mix-blend-mode: multiply;" fill="#ff7f00" d="M232.0978849422888,163.666037421684A284,284,0,0,1,188.4501170700203,212.46777020596713Q0,0,-282.2593248006351,-31.395438571384467A284,284,0,0,1,-267.56887205883663,-95.19925790236978Q0,0,232.0978849422888,163.666037421684Z"><title>DE &lt;&gt; US 119</title></path><path style="mix-blend-mode: multiply;" fill="#377eb8" d="M-86.33803823070022,-270.55820659236A284,284,0,0,1,-20.968766110362534,-283.224841509019Q0,0,273.7062164039837,-75.76877392313826A284,284,0,0,1,283.8254002632715,-9.95701588799219Q0,0,-86.33803823070022,-270.55820659236Z"><title>US &lt;&gt; CN 121</title></path></g></svg>