<svg width="560" height="600" viewBox="0,0,560,600" style="max-width: 100%; height: auto; height: intrinsic;" xmlns="http://www.w3.org/2000/svg" xmlns:xlink="http://www.w3.org/1999/xlink"><g stroke="currentColor"><rect x="1" y="222.69894049202424" height="66.10117351139581" width="15" fill="#4e79a7"><title>Computer graphics (images)(v)
16,990 citations</title></rect><rect x="1" y="5" height="63.70067768699727" width="15" fill="#f28e2c"><title>Human–computer interaction(v)
16,373 citations</title></rect><rect x="1" y="90.00402631126548" height="66.0077992815975" width="15" fill="#e15759"><title>Data mining(v)
16,966 citations</title></rect><rect x="1" y="166.01182559286298" height="46.68711489916126" width="15" fill="#e15759"><title>Data science(v)
12,000 citations</title></rect><rect x="1" y="315.28962297440336" height="48.89697167105487" width="15" fill="#76b7b2"><title>Artificial intelligence(v)
12,568 citations</title></rect><rect x="1" y="510.4838359436495" height="35.7623300127575" width="15" fill="#59a14f"><title>Algorithm(v)
9,192 citations</title></rect><rect x="1" y="404.19202337974883" height="35.88293839291367" width="15" fill="#edc949"><title>Theoretical computer science(v)
9,223 citations</title></rect><rect x="1" y="450.0749617726625" height="22.530423531753627" width="15" fill="#af7aa1"><title>Information retrieval(v)
5,791 citations</title></rect><rect x="1" y="374.18659464545823" height="20.005428734290604" width="15" fill="#4e79a7"><title>Computer vision(v)
5,142 citations</title></rect><rect x="1" y="482.60538530441613" height="6.979723677424545" width="15" fill="#ff9da7"><title>World Wide Web(v)
1,794 citations</title></rect><rect x="1" y="298.80011400342005" height="6.489508970983309" width="15" fill="#9c755f"><title>Programming language(v)
1,668 citations</title></rect><rect x="1" y="569.3002813893938" height="4.727070383540081" width="15" fill="#bab0ab"><title>Machine learning(v)
1,215 citations</title></rect><rect x="1" y="78.70067768699727" height="1.3033486242682102" width="15" fill="#4e79a7"><title>Geometry(v)
335 citations</title></rect><rect x="1" y="556.246165956407" height="3.054115432986805" width="15" fill="#f28e2c"><title>Parallel computing(v)
785 citations</title></rect><rect x="1" y="584.0273517729339" height="0.9726482270658607" width="15" fill="#e15759"><title>Combinatorics(v)
250 citations</title></rect><rect x="1" y="499.5851089818407" height="0.8987269618088476" width="15" fill="#76b7b2"><title>Distributed computing(v)
231 citations</title></rect><rect x="544" y="273.03778399066266" height="51.38695113234348" width="15" fill="#4e79a7"><title>Computer graphics (images)(c)
13,208 citations</title></rect><rect x="544" y="38.16305203441823" height="61.09008984555254" width="15" fill="#f28e2c"><title>Human–computer interaction(c)
15,702 citations</title></rect><rect x="544" y="109.25314187997077" height="60.3897831220651" width="15" fill="#e15759"><title>Data mining(c)
15,522 citations</title></rect><rect x="544" y="179.64292500203587" height="83.3948589886268" width="15" fill="#e15759"><title>Data science(c)
21,435 citations</title></rect><rect x="544" y="334.42473512300614" height="58.098223899097945" width="15" fill="#76b7b2"><title>Artificial intelligence(c)
14,933 citations</title></rect><rect x="544" y="552.4863150656423" height="31.443771884584976" width="15" fill="#59a14f"><title>Algorithm(c)
8,082 citations</title></rect><rect x="544" y="461.5611682636193" height="20.577345891805294" width="15" fill="#edc949"><title>Theoretical computer science(c)
5,289 citations</title></rect><rect x="544" y="433.0380554273771" height="18.523112836242206" width="15" fill="#4e79a7"><title>Computer vision(c)
4,761 citations</title></rect><rect x="544" y="402.5229590221041" height="20.515096405273027" width="15" fill="#af7aa1"><title>Information retrieval(c)
5,273 citations</title></rect><rect x="544" y="492.1385141554246" height="9.975480216787446" width="15" fill="#ff9da7"><title>World Wide Web(c)
2,564 citations</title></rect><rect x="544" y="539.5100114908208" height="2.976303574821486" width="15" fill="#59a14f"><title>Computational science(c)
765 citations</title></rect><rect x="544" y="512.1139943722121" height="4.711508011906972" width="15" fill="#bab0ab"><title>Machine learning(c)
1,211 citations</title></rect><rect x="544" y="526.8255023841191" height="2.6845091067017393" width="15" fill="#f28e2c"><title>Parallel computing(c)
690 citations</title></rect><rect x="544" y="5" height="1.120490757579887" width="15" fill="#edc949"><title>Multimedia(c)
288 citations</title></rect><rect x="544" y="593.9300869502273" height="1.069913049772481" width="15" fill="#4e79a7"><title>Geometry(c)
275 citations</title></rect><rect x="544" y="27.097029577554054" height="1.0660224568641752" width="15" fill="#59a14f"><title>Computational biology(c)
274 citations</title></rect><rect x="544" y="16.120490757579887" height="0.9765388199741665" width="15" fill="#af7aa1"><title>Software engineering(c)
251 citations</title></rect></g><g fill="none" stroke-opacity="0.5"><g style="mix-blend-mode: multiply;"><path d="M16,250.28713480452026C280,250.28713480452026,280,292.9420573093384,544,292.9420573093384" stroke="#4e79a7" stroke-width="24.26951856174733"><title>Computer graphics (images)(v) → Computer graphics (images)(c)
6,238 citations</title></path></g><g style="mix-blend-mode: multiply;"><path d="M16,18.613184586013773C280,18.613184586013773,280,49.679207042878005,544,49.679207042878005" stroke="#f28e2c" stroke-width="23.032310016919556"><title>Human–computer interaction(v) → Human–computer interaction(c)
5,920 citations</title></path></g><g style="mix-blend-mode: multiply;"><path d="M16,107.39108601829477C280,107.39108601829477,280,126.1694398451002,544,126.1694398451002" stroke="#e15759" stroke-width="20.70573545777802"><title>Data mining(v) → Data mining(c)
5,322 citations</title></path></g><g style="mix-blend-mode: multiply;"><path d="M16,190.97192439582707C280,190.97192439582707,280,219.64016539543815,544,219.64016539543815" stroke="#e15759" stroke-width="19.309012603711444"><title>Data science(v) → Data science(c)
4,963 citations</title></path></g><g style="mix-blend-mode: multiply;"><path d="M16,345.6926612560279C280,345.6926612560279,280,367.46170480352515,544,367.46170480352515" stroke="#76b7b2" stroke-width="16.77234602752368"><title>Artificial intelligence(v) → Artificial intelligence(c)
4,311 citations</title></path></g><g style="mix-blend-mode: multiply;"><path d="M16,43.312613664124214C280,43.312613664124214,280,187.56611745971435,544,187.56611745971435" stroke="#f28e2c" stroke-width="15.846384915356985"><title>Human–computer interaction(v) → Data science(c)
4,073 citations</title></path></g><g style="mix-blend-mode: multiply;"><path d="M16,124.99212833527857C280,124.99212833527857,280,202.73748450548766,544,202.73748450548766" stroke="#e15759" stroke-width="14.496349176189572"><title>Data mining(v) → Data science(c)
3,726 citations</title></path></g><g style="mix-blend-mode: multiply;"><path d="M16,538.6847986391971C280,538.6847986391971,280,575.4855550428417,544,575.4855550428417" stroke="#59a14f" stroke-width="12.982908534875094"><title>Algorithm(v) → Algorithm(c)
3,337 citations</title></path></g><g style="mix-blend-mode: multiply;"><path d="M16,139.96118454982215C280,139.96118454982215,280,343.7018539127603,544,343.7018539127603" stroke="#e15759" stroke-width="9.224595785492612"><title>Data mining(v) → Artificial intelligence(c)
2,371 citations</title></path></g><g style="mix-blend-mode: multiply;"><path d="M16,170.3673443536639C280,170.3673443536639,280,71.51905033341481,544,71.51905033341481" stroke="#e15759" stroke-width="8.711037521601838"><title>Data science(v) → Human–computer interaction(c)
2,239 citations</title></path></g><g style="mix-blend-mode: multiply;"><path d="M16,432.24514354478237C280,432.24514354478237,280,475.6353881092623,544,475.6353881092623" stroke="#edc949" stroke-width="7.427141861874904"><title>Theoretical computer science(v) → Theoretical computer science(c)
1,909 citations</title></path></g><g style="mix-blend-mode: multiply;"><path d="M16,322.99688752567323C280,322.99688752567323,280,152.58656569220898,544,152.58656569220898" stroke="#76b7b2" stroke-width="7.252065181003049"><title>Artificial intelligence(v) → Data mining(c)
1,864 citations</title></path></g><g style="mix-blend-mode: multiply;"><path d="M16,265.7872569510418C280,265.7872569510418,280,355.7101689241154,544,355.7101689241154" stroke="#4e79a7" stroke-width="6.730725731295749"><title>Computer graphics (images)(v) → Artificial intelligence(c)
1,730 citations</title></path></g><g style="mix-blend-mode: multiply;"><path d="M16,273.57622395338524C280,273.57622395338524,280,438.5938221003773,544,438.5938221003773" stroke="#4e79a7" stroke-width="6.598445572414792"><title>Computer graphics (images)(v) → Computer vision(c)
1,696 citations</title></path></g><g style="mix-blend-mode: multiply;"><path d="M16,178.02014060421808C280,178.02014060421808,280,139.8195850637425,544,139.8195850637425" stroke="#e15759" stroke-width="6.594554979506528"><title>Data science(v) → Data mining(c)
1,695 citations</title></path></g><g style="mix-blend-mode: multiply;"><path d="M16,518.5626521176587C280,518.5626521176587,280,320.03809161893906,544,320.03809161893906" stroke="#59a14f" stroke-width="6.5011807497082055"><title>Algorithm(v) → Computer graphics (images)(c)
1,671 citations</title></path></g><g style="mix-blend-mode: multiply;"><path d="M16,329.8482216371251C280,329.8482216371251,280,239.60863349710024,544,239.60863349710024" stroke="#76b7b2" stroke-width="6.450603041900781"><title>Artificial intelligence(v) → Data science(c)
1,658 citations</title></path></g><g style="mix-blend-mode: multiply;"><path d="M16,459.5738443581877C280,459.5738443581877,280,253.4649801398805,544,253.4649801398805" stroke="#af7aa1" stroke-width="6.4389312631759905"><title>Information retrieval(v) → Data science(c)
1,655 citations</title></path></g><g style="mix-blend-mode: multiply;"><path d="M16,285.6370619690019C280,285.6370619690019,280,558.3105326493128,544,558.3105326493128" stroke="#4e79a7" stroke-width="6.326104068836351"><title>Computer graphics (images)(v) → Algorithm(c)
1,626 citations</title></path></g><g style="mix-blend-mode: multiply;"><path d="M16,94.05413352876771C280,94.05413352876771,280,64.17944681197584,544,64.17944681197584" stroke="#e15759" stroke-width="5.968169521276114"><title>Data mining(v) → Human–computer interaction(c)
1,534 citations</title></path></g><g style="mix-blend-mode: multiply;"><path d="M16,416.8889733358665C280,416.8889733358665,280,247.26726563701683,544,247.26726563701683" stroke="#edc949" stroke-width="5.956497742551324"><title>Theoretical computer science(v) → Data science(c)
1,531 citations</title></path></g><g style="mix-blend-mode: multiply;"><path d="M16,411.05308397347136C280,411.05308397347136,280,160.48252399952963,544,160.48252399952963" stroke="#edc949" stroke-width="5.715280982238991"><title>Theoretical computer science(v) → Data mining(c)
1,469 citations</title></path></g><g style="mix-blend-mode: multiply;"><path d="M16,225.55269039023545C280,225.55269039023545,280,78.72831899242696,544,78.72831899242696" stroke="#4e79a7" stroke-width="5.707499796422464"><title>Computer graphics (images)(v) → Human–computer interaction(c)
1,467 citations</title></path></g><g style="mix-blend-mode: multiply;"><path d="M16,467.1741176044804C280,467.1741176044804,280,419.34588275743516,544,419.34588275743516" stroke="#af7aa1" stroke-width="5.3301122843209106"><title>Information retrieval(v) → Information retrieval(c)
1,370 citations</title></path></g><g style="mix-blend-mode: multiply;"><path d="M16,524.4646815594942C280,524.4646815594942,280,388.07406603150486,544,388.07406603150486" stroke="#59a14f" stroke-width="5.302878133963066"><title>Algorithm(v) → Artificial intelligence(c)
1,363 citations</title></path></g><g style="mix-blend-mode: multiply;"><path d="M16,32.759380400459634C280,32.759380400459634,280,111.88318268595685,544,111.88318268595685" stroke="#f28e2c" stroke-width="5.2600816119721685"><title>Human–computer interaction(v) → Data mining(c)
1,352 citations</title></path></g><g style="mix-blend-mode: multiply;"><path d="M16,235.7051925843489C280,235.7051925843489,280,231.74185463659157,544,231.74185463659157" stroke="#4e79a7" stroke-width="4.894365878595406"><title>Computer graphics (images)(v) → Data science(c)
1,258 citations</title></path></g><g style="mix-blend-mode: multiply;"><path d="M16,230.83222496674895C280,230.83222496674895,280,145.54264723179801,544,145.54264723179801" stroke="#4e79a7" stroke-width="4.851569356604507"><title>Computer graphics (images)(v) → Data mining(c)
1,247 citations</title></path></g><g style="mix-blend-mode: multiply;"><path d="M16,381.7829772988426C280,381.7829772988426,280,311.66553568035613,544,311.66553568035613" stroke="#4e79a7" stroke-width="4.711508011907024"><title>Computer vision(v) → Computer graphics (images)(c)
1,211 citations</title></path></g><g style="mix-blend-mode: multiply;"><path d="M16,56.906345285596664C280,56.906345285596664,280,336.7571455715101,544,336.7571455715101" stroke="#f28e2c" stroke-width="4.664820897007862"><title>Human–computer interaction(v) → Artificial intelligence(c)
1,199 citations</title></path></g><g style="mix-blend-mode: multiply;"><path d="M16,390.5815531608804C280,390.5815531608804,280,447.0441898971255,544,447.0441898971255" stroke="#4e79a7" stroke-width="4.505306587769062"><title>Computer vision(v) → Computer vision(c)
1,158 citations</title></path></g><g style="mix-blend-mode: multiply;"><path d="M16,335.1900057001708C280,335.1900057001708,280,307.19329913230735,544,307.19329913230735" stroke="#76b7b2" stroke-width="4.232965084190621"><title>Artificial intelligence(v) → Computer graphics (images)(c)
1,088 citations</title></path></g><g style="mix-blend-mode: multiply;"><path d="M16,386.23381558589597C280,386.23381558589597,280,377.94296209838683,544,377.94296209838683" stroke="#4e79a7" stroke-width="4.190168562199723"><title>Computer vision(v) → Artificial intelligence(c)
1,077 citations</title></path></g><g style="mix-blend-mode: multiply;"><path d="M16,317.33023895478755C280,317.33023895478755,280,85.94147824434738,544,85.94147824434738" stroke="#76b7b2" stroke-width="4.0812319607683465"><title>Artificial intelligence(v) → Human–computer interaction(c)
1,049 citations</title></path></g><g style="mix-blend-mode: multiply;"><path d="M16,203.96455941297282C280,203.96455941297282,280,350.3294789319871,544,350.3294789319871" stroke="#e15759" stroke-width="4.030654252960923"><title>Data science(v) → Artificial intelligence(c)
1,036 citations</title></path></g><g style="mix-blend-mode: multiply;"><path d="M16,406.19373343105036C280,406.19373343105036,280,92.35706595007379,544,92.35706595007379" stroke="#edc949" stroke-width="4.003420102603078"><title>Theoretical computer science(v) → Human–computer interaction(c)
1,029 citations</title></path></g><g style="mix-blend-mode: multiply;"><path d="M16,424.46784832116373C280,424.46784832116373,280,381.87246093573293,544,381.87246093573293" stroke="#edc949" stroke-width="3.6688291124924226"><title>Theoretical computer science(v) → Artificial intelligence(c)
943 citations</title></path></g><g style="mix-blend-mode: multiply;"><path d="M16,61.02453787899352C280,61.02453787899352,280,404.308741166997,544,404.308741166997" stroke="#f28e2c" stroke-width="3.5715642897858366"><title>Human–computer interaction(v) → Information retrieval(c)
918 citations</title></path></g><g style="mix-blend-mode: multiply;"><path d="M16,52.904870479447716C280,52.904870479447716,280,274.7068483483077,544,274.7068483483077" stroke="#f28e2c" stroke-width="3.33812871529003"><title>Human–computer interaction(v) → Computer graphics (images)(c)
858 citations</title></path></g><g style="mix-blend-mode: multiply;"><path d="M16,512.1490097083863C280,512.1490097083863,280,167.97775123729915,544,167.97775123729915" stroke="#59a14f" stroke-width="3.3303475294735034"><title>Algorithm(v) → Data mining(c)
856 citations</title></path></g><g style="mix-blend-mode: multiply;"><path d="M16,451.7284637586745C280,451.7284637586745,280,96.01227798738728,544,96.01227798738728" stroke="#af7aa1" stroke-width="3.3070039720239226"><title>Information retrieval(v) → Human–computer interaction(c)
850 citations</title></path></g><g style="mix-blend-mode: multiply;"><path d="M16,149.9794612886005C280,149.9794612886005,280,465.04519421296925,544,465.04519421296925" stroke="#e15759" stroke-width="3.194176777684283"><title>Data mining(v) → Theoretical computer science(c)
821 citations</title></path></g><g style="mix-blend-mode: multiply;"><path d="M16,207.571139038933C280,207.571139038933,280,410.6115016783838,544,410.6115016783838" stroke="#e15759" stroke-width="3.1825049989594927"><title>Data science(v) → Information retrieval(c)
818 citations</title></path></g><g style="mix-blend-mode: multiply;"><path d="M16,133.79459479022458C280,133.79459479022458,280,277.930204572804,544,277.930204572804" stroke="#e15759" stroke-width="3.108583733702487"><title>Data mining(v) → Computer graphics (images)(c)
799 citations</title></path></g><g style="mix-blend-mode: multiply;"><path d="M16,362.6439745573318C280,362.6439745573318,280,563.0162047718574,544,563.0162047718574" stroke="#76b7b2" stroke-width="3.0852401762529067"><title>Artificial intelligence(v) → Algorithm(c)
793 citations</title></path></g><g style="mix-blend-mode: multiply;"><path d="M16,438.53623227744436C280,438.53623227744436,280,567.4553712801859,544,567.4553712801859" stroke="#edc949" stroke-width="3.0774589904363796"><title>Theoretical computer science(v) → Algorithm(c)
791 citations</title></path></g><g style="mix-blend-mode: multiply;"><path d="M16,454.8681722356431C280,454.8681722356431,280,164.82637098160578,544,164.82637098160578" stroke="#af7aa1" stroke-width="2.972412981913267"><title>Information retrieval(v) → Data mining(c)
764 citations</title></path></g><g style="mix-blend-mode: multiply;"><path d="M16,146.0363453760755C280,146.0363453760755,280,407.55738624539697,544,407.55738624539697" stroke="#e15759" stroke-width="2.9257258670141058"><title>Data mining(v) → Information retrieval(c)
752 citations</title></path></g><g style="mix-blend-mode: multiply;"><path d="M16,356.652461478606C280,356.652461478606,280,443.3422907449128,544,443.3422907449128" stroke="#76b7b2" stroke-width="2.898491716656262"><title>Artificial intelligence(v) → Computer vision(c)
745 citations</title></path></g><g style="mix-blend-mode: multiply;"><path d="M16,421.25032798602984C280,421.25032798602984,280,315.4043954651973,544,315.4043954651973" stroke="#edc949" stroke-width="2.766211557775305"><title>Theoretical computer science(v) → Computer graphics (images)(c)
711 citations</title></path></g><g style="mix-blend-mode: multiply;"><path d="M16,154.68124281823685C280,154.68124281823685,280,553.8168978402684,544,553.8168978402684" stroke="#e15759" stroke-width="2.6611655492521917"><title>Data mining(v) → Algorithm(c)
684 citations</title></path></g><g style="mix-blend-mode: multiply;"><path d="M16,67.38565728400422C280,67.38565728400422,280,493.4535345584177,544,493.4535345584177" stroke="#f28e2c" stroke-width="2.6300408059860843"><title>Human–computer interaction(v) → World Wide Web(c)
676 citations</title></path></g><g style="mix-blend-mode: multiply;"><path d="M16,485.4630257955356C280,485.4630257955356,280,257.9547243560165,544,257.9547243560165" stroke="#ff9da7" stroke-width="2.5405571690960254"><title>World Wide Web(v) → Data science(c)
653 citations</title></path></g><g style="mix-blend-mode: multiply;"><path d="M16,375.3732254824786C280,375.3732254824786,280,89.1687250617519,544,89.1687250617519" stroke="#4e79a7" stroke-width="2.3732616740406973"><title>Computer vision(v) → Human–computer interaction(c)
610 citations</title></path></g><g style="mix-blend-mode: multiply;"><path d="M16,299.95951069008254C280,299.95951069008254,280,82.7414655773007,544,82.7414655773007" stroke="#9c755f" stroke-width="2.3187933733250095"><title>Programming language(v) → Human–computer interaction(c)
596 citations</title></path></g><g style="mix-blend-mode: multiply;"><path d="M16,528.2482831627805C280,528.2482831627805,280,450.42900572731463,544,450.42900572731463" stroke="#59a14f" stroke-width="2.264325072609321"><title>Algorithm(v) → Computer vision(c)
582 citations</title></path></g><g style="mix-blend-mode: multiply;"><path d="M16,427.4169177456274C280,427.4169177456274,280,415.56617174705724,544,415.56617174705724" stroke="#edc949" stroke-width="2.22930973643495"><title>Theoretical computer science(v) → Information retrieval(c)
573 citations</title></path></g><g style="mix-blend-mode: multiply;"><path d="M16,303.2081557684825C280,303.2081557684825,280,235.28618477601955,544,235.28618477601955" stroke="#9c755f" stroke-width="2.194294400260579"><title>Programming language(v) → Data science(c)
564 citations</title></path></g><g style="mix-blend-mode: multiply;"><path d="M16,277.8422590772961C280,277.8422590772961,280,469.37931471277466,544,469.37931471277466" stroke="#4e79a7" stroke-width="1.9336246754069288"><title>Computer graphics (images)(v) → Theoretical computer science(c)
497 citations</title></path></g><g style="mix-blend-mode: multiply;"><path d="M16,281.5149787826968C280,281.5149787826968,280,540.4690426427078,544,540.4690426427078" stroke="#4e79a7" stroke-width="1.918062303773875"><title>Computer graphics (images)(v) → Computational science(c)
493 citations</title></path></g><g style="mix-blend-mode: multiply;"><path d="M16,65.1271681007573C280,65.1271681007573,280,462.50463704387323,544,462.50463704387323" stroke="#f28e2c" stroke-width="1.8869375605077676"><title>Human–computer interaction(v) → Theoretical computer science(c)
485 citations</title></path></g><g style="mix-blend-mode: multiply;"><path d="M16,488.672764944853C280,488.672764944853,280,501.2016503352243,544,501.2016503352243" stroke="#ff9da7" stroke-width="1.8246880739755527"><title>World Wide Web(v) → World Wide Web(c)
469 citations</title></path></g><g style="mix-blend-mode: multiply;"><path d="M16,571.6151841698106C280,571.6151841698106,280,391.62423206029524,544,391.62423206029524" stroke="#bab0ab" stroke-width="1.7974539236177085"><title>Machine learning(v) → Artificial intelligence(c)
462 citations</title></path></g><g style="mix-blend-mode: multiply;"><path d="M16,152.46360486052671C280,152.46360486052671,280,513.0010495552962,544,513.0010495552962" stroke="#e15759" stroke-width="1.774110366168128"><title>Data mining(v) → Machine learning(c)
456 citations</title></path></g><g style="mix-blend-mode: multiply;"><path d="M16,210.0475014250427C280,210.0475014250427,280,467.5273924884413,544,467.5273924884413" stroke="#e15759" stroke-width="1.7702197732598646"><title>Data science(v) → Theoretical computer science(c)
455 citations</title></path></g><g style="mix-blend-mode: multiply;"><path d="M16,211.81577590184844C280,211.81577590184844,280,495.6517195515865,544,495.6517195515865" stroke="#e15759" stroke-width="1.766329180351601"><title>Data science(v) → World Wide Web(c)
454 citations</title></path></g><g style="mix-blend-mode: multiply;"><path d="M16,530.2577743998985C280,530.2577743998985,280,481.2611854546112,544,481.2611854546112" stroke="#59a14f" stroke-width="1.7546574016268108"><title>Algorithm(v) → Theoretical computer science(c)
451 citations</title></path></g><g style="mix-blend-mode: multiply;"><path d="M16,279.6825095229047C280,279.6825095229047,280,527.6989404920242,544,527.6989404920242" stroke="#4e79a7" stroke-width="1.746876215810284"><title>Computer graphics (images)(v) → Parallel computing(c)
449 citations</title></path></g><g style="mix-blend-mode: multiply;"><path d="M16,471.73972838232754C280,471.73972838232754,280,499.42364937614786,544,499.42364937614786" stroke="#af7aa1" stroke-width="1.73131384417723"><title>Information retrieval(v) → World Wide Web(c)
445 citations</title></path></g><g style="mix-blend-mode: multiply;"><path d="M16,463.65118572604786C280,463.65118572604786,280,384.5647512282512,544,384.5647512282512" stroke="#af7aa1" stroke-width="1.7157514725441763"><title>Information retrieval(v) → Artificial intelligence(c)
441 citations</title></path></g><g style="mix-blend-mode: multiply;"><path d="M16,483.39906625770186C280,483.39906625770186,280,98.45946092668498,544,98.45946092668498" stroke="#ff9da7" stroke-width="1.5873619065714828"><title>World Wide Web(v) → Human–computer interaction(c)
408 citations</title></path></g><g style="mix-blend-mode: multiply;"><path d="M16,358.8895524008575C280,358.8895524008575,280,471.13397211440144,544,471.13397211440144" stroke="#76b7b2" stroke-width="1.5756901278466926"><title>Artificial intelligence(v) → Theoretical computer science(c)
405 citations</title></path></g><g style="mix-blend-mode: multiply;"><path d="M16,573.2706314522767C280,573.2706314522767,280,516.0687820634619,544,516.0687820634619" stroke="#bab0ab" stroke-width="1.5134406413144776"><title>Machine learning(v) → Machine learning(c)
389 citations</title></path></g><g style="mix-blend-mode: multiply;"><path d="M16,514.5631226079638C280,514.5631226079638,280,260.8726690372141,544,260.8726690372141" stroke="#59a14f" stroke-width="1.497878269681424"><title>Algorithm(v) → Data science(c)
385 citations</title></path></g><g style="mix-blend-mode: multiply;"><path d="M16,378.6996824190438C280,378.6996824190438,280,243.56147589189592,544,243.56147589189592" stroke="#4e79a7" stroke-width="1.455081747690526"><title>Computer vision(v) → Data science(c)
374 citations</title></path></g><g style="mix-blend-mode: multiply;"><path d="M16,360.3893759669931C280,360.3893759669931,280,514.6000832405924,544,514.6000832405924" stroke="#76b7b2" stroke-width="1.4239570044244185"><title>Artificial intelligence(v) → Machine learning(c)
366 citations</title></path></g><g style="mix-blend-mode: multiply;"><path d="M16,570.0083692986977C280,570.0083692986977,280,262.3296960813588,544,262.3296960813588" stroke="#bab0ab" stroke-width="1.4161758186078917"><title>Machine learning(v) → Data science(c)
364 citations</title></path></g><g style="mix-blend-mode: multiply;"><path d="M16,377.26599893234874C280,377.26599893234874,280,156.91874089556032,544,156.91874089556032" stroke="#4e79a7" stroke-width="1.412285225699628"><title>Computer vision(v) → Data mining(c)
363 citations</title></path></g><g style="mix-blend-mode: multiply;"><path d="M16,63.49700967219493C280,63.49700967219493,280,433.72474507568563,544,433.72474507568563" stroke="#f28e2c" stroke-width="1.3733792966169938"><title>Human–computer interaction(v) → Computer vision(c)
353 citations</title></path></g><g style="mix-blend-mode: multiply;"><path d="M16,393.51311491725687C280,393.51311491725687,280,565.2377333224758,544,565.2377333224758" stroke="#4e79a7" stroke-width="1.35781692498394"><title>Computer vision(v) → Algorithm(c)
349 citations</title></path></g><g style="mix-blend-mode: multiply;"><path d="M16,201.28783149208758C280,201.28783149208758,280,280.14589723406,544,280.14589723406" stroke="#e15759" stroke-width="1.322801588809569"><title>Data science(v) → Computer graphics (images)(c)
340 citations</title></path></g><g style="mix-blend-mode: multiply;"><path d="M16,79.35235199913139C280,79.35235199913139,280,115.16489780407706,544,115.16489780407706" stroke="#4e79a7" stroke-width="1.303348624268252"><title>Geometry(v) → Data mining(c)
335 citations</title></path></g><g style="mix-blend-mode: multiply;"><path d="M16,556.8141925210135C280,556.8141925210135,280,323.85670855839965,544,323.85670855839965" stroke="#f28e2c" stroke-width="1.1360531292129241"><title>Parallel computing(v) → Computer graphics (images)(c)
292 citations</title></path></g><g style="mix-blend-mode: multiply;"><path d="M16,269.71481049193375C280,269.71481049193375,280,412.7649448531075,544,412.7649448531075" stroke="#4e79a7" stroke-width="1.1243813504881337"><title>Computer graphics (images)(v) → Information retrieval(c)
289 citations</title></path></g><g style="mix-blend-mode: multiply;"><path d="M16,354.6410249450338C280,354.6410249450338,280,413.88932620359566,544,413.88932620359566" stroke="#76b7b2" stroke-width="1.1243813504881337"><title>Artificial intelligence(v) → Information retrieval(c)
289 citations</title></path></g><g style="mix-blend-mode: multiply;"><path d="M16,5.560245378789935C280,5.560245378789935,280,5.560245378789935,544,5.560245378789935" stroke="#f28e2c" stroke-width="1.1204907575798702"><title>Human–computer interaction(v) → Multimedia(c)
288 citations</title></path></g><g style="mix-blend-mode: multiply;"><path d="M16,545.7112094315207C280,545.7112094315207,280,594.4650434751135,544,594.4650434751135" stroke="#59a14f" stroke-width="1.0699130497724456"><title>Algorithm(v) → Geometry(c)
275 citations</title></path></g><g style="mix-blend-mode: multiply;"><path d="M16,90.53703753969756C280,90.53703753969756,280,27.630040805986145,544,27.630040805986145" stroke="#e15759" stroke-width="1.066022456864182"><title>Data mining(v) → Computational biology(c)
274 citations</title></path></g><g style="mix-blend-mode: multiply;"><path d="M16,531.6642237362356C280,531.6642237362356,280,541.9571944301185,544,541.9571944301185" stroke="#59a14f" stroke-width="1.0582412710476552"><title>Algorithm(v) → Computational science(c)
272 citations</title></path></g><g style="mix-blend-mode: multiply;"><path d="M16,436.478108628973C280,436.478108628973,280,498.03859830080614,544,498.03859830080614" stroke="#edc949" stroke-width="1.0387883065063381"><title>Theoretical computer science(v) → World Wide Web(c)
267 citations</title></path></g><g style="mix-blend-mode: multiply;"><path d="M16,470.3566226034399C280,470.3566226034399,280,479.8664078969988,544,479.8664078969988" stroke="#af7aa1" stroke-width="1.0348977135980746"><title>Information retrieval(v) → Theoretical computer science(c)
266 citations</title></path></g><g style="mix-blend-mode: multiply;"><path d="M16,487.2468626439744C280,487.2468626439744,280,422.52449716348644,544,422.52449716348644" stroke="#ff9da7" stroke-width="1.0271165277815477"><title>World Wide Web(v) → Information retrieval(c)
264 citations</title></path></g><g style="mix-blend-mode: multiply;"><path d="M16,301.61495797254867C280,301.61495797254867,280,148.46448250590385,544,148.46448250590385" stroke="#9c755f" stroke-width="1"><title>Programming language(v) → Data mining(c)
255 citations</title></path></g><g style="mix-blend-mode: multiply;"><path d="M16,304.79746297150814C280,304.79746297150814,280,497.0270441446576,544,497.0270441446576" stroke="#9c755f" stroke-width="1"><title>Programming language(v) → World Wide Web(c)
253 citations</title></path></g><g style="mix-blend-mode: multiply;"><path d="M16,558.8100666829525C280,558.8100666829525,280,582.4672240167205,544,582.4672240167205" stroke="#f28e2c" stroke-width="1"><title>Parallel computing(v) → Algorithm(c)
252 citations</title></path></g><g style="mix-blend-mode: multiply;"><path d="M16,6.608760167566932C280,6.608760167566932,280,16.60876016756695,544,16.60876016756695" stroke="#f28e2c" stroke-width="1"><title>Human–computer interaction(v) → Software engineering(c)
251 citations</title></path></g><g style="mix-blend-mode: multiply;"><path d="M16,584.5136758864668C280,584.5136758864668,280,583.4437628366945,544,583.4437628366945" stroke="#e15759" stroke-width="1"><title>Combinatorics(v) → Algorithm(c)
250 citations</title></path></g><g style="mix-blend-mode: multiply;"><path d="M16,557.8510355310657C280,557.8510355310657,280,529.0411950453752,544,529.0411950453752" stroke="#f28e2c" stroke-width="1"><title>Parallel computing(v) → Parallel computing(c)
241 citations</title></path></g><g style="mix-blend-mode: multiply;"><path d="M16,500.0344724627451C280,500.0344724627451,280,259.67436642146896,544,259.67436642146896" stroke="#76b7b2" stroke-width="1"><title>Distributed computing(v) → Data science(c)
231 citations</title></path></g><g style="mix-blend-mode: multiply;"><path d="M16,147.94079060467047C280,147.94079060467047,280,434.853017019082,544,434.853017019082" stroke="#e15759" stroke-width="1"><title>Data mining(v) → Computer vision(c)
227 citations</title></path></g></g><g font-family="sans-serif" font-size="14"><text x="22" y="255.74952724772214" dy="0.35em" text-anchor="start">Computer graphics (images)(v)</text><text x="22" y="36.85033884349863" dy="0.35em" text-anchor="start">Human–computer interaction(v)</text><text x="22" y="123.00792595206423" dy="0.35em" text-anchor="start">Data mining(v)</text><text x="22" y="189.3553830424436" dy="0.35em" text-anchor="start">Data science(v)</text><text x="22" y="339.7381088099308" dy="0.35em" text-anchor="start">Artificial intelligence(v)</text><text x="22" y="528.3650009500283" dy="0.35em" text-anchor="start">Algorithm(v)</text><text x="22" y="422.13349257620564" dy="0.35em" text-anchor="start">Theoretical computer science(v)</text><text x="22" y="461.3401735385393" dy="0.35em" text-anchor="start">Information retrieval(v)</text><text x="22" y="384.18930901260353" dy="0.35em" text-anchor="start">Computer vision(v)</text><text x="22" y="486.0952471431284" dy="0.35em" text-anchor="start">World Wide Web(v)</text><text x="22" y="302.0448684889117" dy="0.35em" text-anchor="start">Programming language(v)</text><text x="22" y="571.6638165811639" dy="0.35em" text-anchor="start">Machine learning(v)</text><text x="22" y="79.35235199913137" dy="0.35em" text-anchor="start">Geometry(v)</text><text x="22" y="557.7732236729005" dy="0.35em" text-anchor="start">Parallel computing(v)</text><text x="22" y="584.5136758864669" dy="0.35em" text-anchor="start">Combinatorics(v)</text><text x="22" y="500.0344724627451" dy="0.35em" text-anchor="start">Distributed computing(v)</text><text x="538" y="298.7312595568344" dy="0.35em" text-anchor="end">Computer graphics (images)(c)</text><text x="538" y="68.7080969571945" dy="0.35em" text-anchor="end">Human–computer interaction(c)</text><text x="538" y="139.4480334410033" dy="0.35em" text-anchor="end">Data mining(c)</text><text x="538" y="221.34035449634928" dy="0.35em" text-anchor="end">Data science(c)</text><text x="538" y="363.47384707255515" dy="0.35em" text-anchor="end">Artificial intelligence(c)</text><text x="538" y="568.2082010079348" dy="0.35em" text-anchor="end">Algorithm(c)</text><text x="538" y="471.84984120952197" dy="0.35em" text-anchor="end">Theoretical computer science(c)</text><text x="538" y="442.29961184549825" dy="0.35em" text-anchor="end">Computer vision(c)</text><text x="538" y="412.78050722474063" dy="0.35em" text-anchor="end">Information retrieval(c)</text><text x="538" y="497.12625426381834" dy="0.35em" text-anchor="end">World Wide Web(c)</text><text x="538" y="540.9981632782316" dy="0.35em" text-anchor="end">Computational science(c)</text><text x="538" y="514.4697483781656" dy="0.35em" text-anchor="end">Machine learning(c)</text><text x="538" y="528.1677569374699" dy="0.35em" text-anchor="end">Parallel computing(c)</text><text x="538" y="5.5602453787899435" dy="0.35em" text-anchor="end">Multimedia(c)</text><text x="538" y="594.4650434751136" dy="0.35em" text-anchor="end">Geometry(c)</text><text x="538" y="27.63004080598614" dy="0.35em" text-anchor="end">Computational biology(c)</text><text x="538" y="16.60876016756697" dy="0.35em" text-anchor="end">Software engineering(c)</text></g></svg>