<svg width="550" height="600" viewBox="0,0,550,600" style="max-width: 100%; height: auto; height: intrinsic;" xmlns="http://www.w3.org/2000/svg" xmlns:xlink="http://www.w3.org/1999/xlink"><g stroke="currentColor"><rect x="1" y="5" height="164.11885805516465" width="15" fill="#4e79a7"><title>Artificial intelligence(v)
42,230 citations</title></rect><rect x="1" y="179.11885805516465" height="51.439195008717974" width="15" fill="#f28e2c"><title>Human–computer interaction(v)
13,236 citations</title></rect><rect x="1" y="240.5580530638826" height="48.501144885826534" width="15" fill="#e15759"><title>Computer graphics (images)(v)
12,480 citations</title></rect><rect x="1" y="390.25019431548435" height="28.793668466273175" width="15" fill="#76b7b2"><title>Algorithm(v)
7,409 citations</title></rect><rect x="1" y="344.58111883704817" height="24.880154612104207" width="15" fill="#59a14f"><title>Data science(v)
6,402 citations</title></rect><rect x="1" y="309.6499170220365" height="11.829926685292946" width="15" fill="#59a14f"><title>Data mining(v)
3,044 citations</title></rect><rect x="1" y="429.0438627817575" height="16.886015587252928" width="15" fill="#edc949"><title>Information retrieval(v)
4,345 citations</title></rect><rect x="1" y="467.66705879881533" height="9.91008970022898" width="15" fill="#e15759"><title>Computer vision(v)
2,550 citations</title></rect><rect x="1" y="331.47984370732945" height="3.101275129718715" width="15" fill="#af7aa1"><title>Theoretical computer science(v)
798 citations</title></rect><rect x="1" y="523.0024368212089" height="1.9975631787913244" width="15" fill="#ff9da7"><title>Mechanics(v)
514 citations</title></rect><rect x="1" y="455.92987836901045" height="1.73718042980488" width="15" fill="#9c755f"><title>Geometry(v)
447 citations</title></rect><rect x="1" y="487.5771484990443" height="1.6905447135684426" width="15" fill="#bab0ab"><title>Computational science(v)
435 citations</title></rect><rect x="1" y="510.6473331512721" height="2.3551036699367955" width="15" fill="#4e79a7"><title>World Wide Web(v)
606 citations</title></rect><rect x="1" y="379.4612734491524" height="0.7889208663319778" width="15" fill="#f28e2c"><title>Mathematical optimization(v)
203 citations</title></rect><rect x="1" y="499.26769321261276" height="1.379639938659352" width="15" fill="#e15759"><title>Parallel computing(v)
355 citations</title></rect><rect x="1" y="299.05919794970913" height="0.5907190723273743" width="15" fill="#76b7b2"><title>Distributed computing(v)
152 citations</title></rect><rect x="534" y="16.721635191059363" height="143.25326134907473" width="15" fill="#4e79a7"><title>Artificial intelligence(c)
36,861 citations</title></rect><rect x="534" y="255.802260361742" height="49.10740919689934" width="15" fill="#f28e2c"><title>Human–computer interaction(c)
12,636 citations</title></rect><rect x="534" y="206.2240825158079" height="39.57817784593408" width="15" fill="#59a14f"><title>Data science(c)
10,184 citations</title></rect><rect x="534" y="374.32903388441906" height="41.71953448312075" width="15" fill="#e15759"><title>Computer graphics (images)(c)
10,735 citations</title></rect><rect x="534" y="448.5785559733629" height="24.701384366531443" width="15" fill="#76b7b2"><title>Algorithm(c)
6,356 citations</title></rect><rect x="534" y="314.9096695586413" height="16.46629414112556" width="15" fill="#59a14f"><title>Data mining(c)
4,237 citations</title></rect><rect x="534" y="352.93048757431256" height="11.398546310106497" width="15" fill="#edc949"><title>Information retrieval(c)
2,933 citations</title></rect><rect x="534" y="493.9833623931263" height="9.443732537865344" width="15" fill="#e15759"><title>Computer vision(c)
2,430 citations</title></rect><rect x="534" y="181.27681028506615" height="2.4017393861731193" width="15" fill="#af7aa1"><title>Theoretical computer science(c)
618 citations</title></rect><rect x="534" y="562.2645631577841" height="8.444950948469568" width="15" fill="#4e79a7"><title>World Wide Web(c)
2,173 citations</title></rect><rect x="534" y="5" height="1.721635191059363" width="15" fill="#59a14f"><title>Combinatorics(c)
443 citations</title></rect><rect x="534" y="193.67854967123927" height="2.5455328445686405" width="15" fill="#edc949"><title>Multimedia(c)
655 citations</title></rect><rect x="534" y="580.7095141062537" height="2.868096548536869" width="15" fill="#ff9da7"><title>Mechanics(c)
738 citations</title></rect><rect x="534" y="169.9748965401341" height="1.301913744932051" width="15" fill="#af7aa1"><title>Machine learning(c)
335 citations</title></rect><rect x="534" y="549.3809213705018" height="2.883641787282272" width="15" fill="#bab0ab"><title>Computational biology(c)
742 citations</title></rect><rect x="534" y="536.6915950675377" height="2.689326302964105" width="15" fill="#e15759"><title>Parallel computing(c)
692 citations</title></rect><rect x="534" y="524.0139276936327" height="2.677667373905024" width="15" fill="#ff9da7"><title>Knowledge management(c)
689 citations</title></rect><rect x="534" y="436.75976304014443" height="1.8187929332184467" width="15" fill="#bab0ab"><title>Computational science(c)
468 citations</title></rect><rect x="534" y="341.3759636997669" height="1.55452387454568" width="15" fill="#9c755f"><title>Software engineering(c)
400 citations</title></rect><rect x="534" y="593.5776106547905" height="1.4223893452093535" width="15" fill="#9c755f"><title>Geometry(c)
366 citations</title></rect><rect x="534" y="426.0485683675398" height="0.7111946726046199" width="15" fill="#bab0ab"><title>Natural language processing(c)
183 citations</title></rect><rect x="534" y="483.2799403398943" height="0.703422053231975" width="15" fill="#4e79a7"><title>Remote sensing(c)
181 citations</title></rect><rect x="534" y="513.4270949309916" height="0.5868327626410519" width="15" fill="#f28e2c"><title>Cognitive psychology(c)
151 citations</title></rect></g><g fill="none" stroke-opacity="0.5"><g style="mix-blend-mode: multiply;"><path d="M16,44.82301535617503C275,44.82301535617503,275,54.823015356175006,534,54.823015356175006" stroke="#4e79a7" stroke-width="76.20276033023129"><title>Artificial intelligence(v) → Artificial intelligence(c)
19,608 citations</title></path></g><g style="mix-blend-mode: multiply;"><path d="M16,209.44373253786532C275,209.44373253786532,275,280.19662626305075,534,280.19662626305075" stroke="#f28e2c" stroke-width="16.65672331575741"><title>Human–computer interaction(v) → Human–computer interaction(c)
4,286 citations</title></path></g><g style="mix-blend-mode: multiply;"><path d="M16,96.0950990483793C275,96.0950990483793,275,214.33869714093657,534,214.33869714093657" stroke="#4e79a7" stroke-width="16.229229250257337"><title>Artificial intelligence(v) → Data science(c)
4,176 citations</title></path></g><g style="mix-blend-mode: multiply;"><path d="M16,112.24271579522298C275,112.24271579522298,275,263.83526248345703,534,263.83526248345703" stroke="#4e79a7" stroke-width="16.066004243430037"><title>Artificial intelligence(v) → Human–computer interaction(c)
4,134 citations</title></path></g><g style="mix-blend-mode: multiply;"><path d="M16,247.720521815852C275,247.720521815852,275,113.05547969665774,534,113.05547969665774" stroke="#e15759" stroke-width="14.324937503938829"><title>Computer graphics (images)(v) → Artificial intelligence(c)
3,686 citations</title></path></g><g style="mix-blend-mode: multiply;"><path d="M16,270.86543915299467C275,270.86543915299467,275,397.7382202802345,534,397.7382202802345" stroke="#e15759" stroke-width="14.142280948679705"><title>Computer graphics (images)(v) → Computer graphics (images)(c)
3,639 citations</title></path></g><g style="mix-blend-mode: multiply;"><path d="M16,140.17556666596644C275,140.17556666596644,275,381.06595172573157,534,381.06595172573157" stroke="#4e79a7" stroke-width="13.473835682625046"><title>Artificial intelligence(v) → Computer graphics (images)(c)
3,467 citations</title></path></g><g style="mix-blend-mode: multiply;"><path d="M16,185.6031657668635C275,185.6031657668635,275,99.4087032329895,534,99.4087032329895" stroke="#f28e2c" stroke-width="12.968615423397685"><title>Human–computer interaction(v) → Artificial intelligence(c)
3,337 citations</title></path></g><g style="mix-blend-mode: multiply;"><path d="M16,395.5394617986262C275,395.5394617986262,275,142.0628951956809,534,142.0628951956809" stroke="#76b7b2" stroke-width="10.578534966283637"><title>Algorithm(v) → Artificial intelligence(c)
2,722 citations</title></path></g><g style="mix-blend-mode: multiply;"><path d="M16,152.87019725647542C275,152.87019725647542,275,452.94676806083635,534,452.94676806083635" stroke="#4e79a7" stroke-width="8.736424174946958"><title>Artificial intelligence(v) → Algorithm(c)
2,248 citations</title></path></g><g style="mix-blend-mode: multiply;"><path d="M16,412.55955507005865C275,412.55955507005865,275,467.55346301703656,534,467.55346301703656" stroke="#76b7b2" stroke-width="8.46826880658782"><title>Algorithm(v) → Algorithm(c)
2,179 citations</title></path></g><g style="mix-blend-mode: multiply;"><path d="M16,348.5704157301011C275,348.5704157301011,275,131.9954099531542,534,131.9954099531542" stroke="#59a14f" stroke-width="7.978593786105918"><title>Data science(v) → Artificial intelligence(c)
2,053 citations</title></path></g><g style="mix-blend-mode: multiply;"><path d="M16,197.19797071613138C275,197.19797071613138,275,226.37071192992045,534,226.37071192992045" stroke="#f28e2c" stroke-width="7.834800327710439"><title>Human–computer interaction(v) → Data science(c)
2,016 citations</title></path></g><g style="mix-blend-mode: multiply;"><path d="M16,124.18534546142048C275,124.18534546142048,275,318.8192971031238,534,318.8192971031238" stroke="#4e79a7" stroke-width="7.819255088964981"><title>Artificial intelligence(v) → Data mining(c)
2,012 citations</title></path></g><g style="mix-blend-mode: multiply;"><path d="M16,355.9738356826251C275,355.9738356826251,275,238.4435329706112,534,238.4435329706112" stroke="#59a14f" stroke-width="6.828246118942084"><title>Data science(v) → Data science(c)
1,757 citations</title></path></g><g style="mix-blend-mode: multiply;"><path d="M16,312.31981177656877C275,312.31981177656877,275,123.47856227548681,534,123.47856227548681" stroke="#59a14f" stroke-width="5.339789509064555"><title>Data mining(v) → Artificial intelligence(c)
1,374 citations</title></path></g><g style="mix-blend-mode: multiply;"><path d="M16,431.46697687120565C275,431.46697687120565,275,149.77527676827086,534,149.77527676827086" stroke="#edc949" stroke-width="4.846228178896288"><title>Information retrieval(v) → Artificial intelligence(c)
1,247 citations</title></path></g><g style="mix-blend-mode: multiply;"><path d="M16,281.2341133962146C275,281.2341133962146,275,460.35990378757623,534,460.35990378757623" stroke="#e15759" stroke-width="4.714093649559902"><title>Computer graphics (images)(v) → Algorithm(c)
1,213 citations</title></path></g><g style="mix-blend-mode: multiply;"><path d="M16,131.16710081297396C275,131.16710081297396,275,355.2020355859925,534,355.2020355859925" stroke="#4e79a7" stroke-width="4.5430960233598725"><title>Artificial intelligence(v) → Information retrieval(c)
1,169 citations</title></path></g><g style="mix-blend-mode: multiply;"><path d="M16,259.2745205134131C275,259.2745205134131,275,290.7829338487071,534,290.7829338487071" stroke="#e15759" stroke-width="4.5158918555553225"><title>Computer graphics (images)(v) → Human–computer interaction(c)
1,162 citations</title></path></g><g style="mix-blend-mode: multiply;"><path d="M16,361.61481419238294C275,361.61481419238294,275,297.1370501859127,534,297.1370501859127" stroke="#59a14f" stroke-width="4.453710900573493"><title>Data science(v) → Human–computer interaction(c)
1,146 citations</title></path></g><g style="mix-blend-mode: multiply;"><path d="M16,406.1121673003803C275,406.1121673003803,275,408.8414070541773,534,408.8414070541773" stroke="#76b7b2" stroke-width="4.426506732768943"><title>Algorithm(v) → Computer graphics (images)(c)
1,139 citations</title></path></g><g style="mix-blend-mode: multiply;"><path d="M16,159.73924962712437C275,159.73924962712437,275,495.7807806230698,534,495.7807806230698" stroke="#4e79a7" stroke-width="3.594836459886982"><title>Artificial intelligence(v) → Computer vision(c)
925 citations</title></path></g><g style="mix-blend-mode: multiply;"><path d="M16,469.38675083503153C275,469.38675083503153,275,154.95572758019446,534,154.95572758019446" stroke="#e15759" stroke-width="3.43938407243241"><title>Computer vision(v) → Artificial intelligence(c)
885 citations</title></path></g><g style="mix-blend-mode: multiply;"><path d="M16,435.3338550091382C275,435.3338550091382,275,244.35849631325763,534,244.35849631325763" stroke="#edc949" stroke-width="2.8875280969686785"><title>Information retrieval(v) → Data science(c)
743 citations</title></path></g><g style="mix-blend-mode: multiply;"><path d="M16,438.2194399512636C275,438.2194399512636,275,301.7423271642544,534,301.7423271642544" stroke="#edc949" stroke-width="2.8836417872823144"><title>Information retrieval(v) → Human–computer interaction(c)
742 citations</title></path></g><g style="mix-blend-mode: multiply;"><path d="M16,224.27971976556105C275,224.27971976556105,275,389.2349746864694,534,389.2349746864694" stroke="#f28e2c" stroke-width="2.8642102388504926"><title>Human–computer interaction(v) → Computer graphics (images)(c)
737 citations</title></path></g><g style="mix-blend-mode: multiply;"><path d="M16,473.4673760057141C275,473.4673760057141,275,413.08914354137346,534,413.08914354137346" stroke="#e15759" stroke-width="2.794256664495935"><title>Computer vision(v) → Computer graphics (images)(c)
719 citations</title></path></g><g style="mix-blend-mode: multiply;"><path d="M16,221.56901875932195C275,221.56901875932195,275,358.75217948448625,534,358.75217948448625" stroke="#f28e2c" stroke-width="2.5571917736277125"><title>Human–computer interaction(v) → Information retrieval(c)
658 citations</title></path></g><g style="mix-blend-mode: multiply;"><path d="M16,441.8531395080143C275,441.8531395080143,275,363.11261895258707,534,363.11261895258707" stroke="#edc949" stroke-width="2.432829863664055"><title>Information retrieval(v) → Information retrieval(c)
626 citations</title></path></g><g style="mix-blend-mode: multiply;"><path d="M16,85.42717895930929C275,85.42717895930929,275,182.4776799781527,534,182.4776799781527" stroke="#4e79a7" stroke-width="2.4017393861731406"><title>Artificial intelligence(v) → Theoretical computer science(c)
618 citations</title></path></g><g style="mix-blend-mode: multiply;"><path d="M16,229.38438753860055C275,229.38438753860055,275,565.4124740037391,534,565.4124740037391" stroke="#f28e2c" stroke-width="2.34733105056404"><title>Human–computer interaction(v) → World Wide Web(c)
604 citations</title></path></g><g style="mix-blend-mode: multiply;"><path d="M16,284.7259626494129C275,284.7259626494129,275,499.47860428964543,534,499.47860428964543" stroke="#e15759" stroke-width="2.269604856836754"><title>Computer graphics (images)(v) → Computer vision(c)
584 citations</title></path></g><g style="mix-blend-mode: multiply;"><path d="M16,255.94978257672844C275,255.94978257672844,275,231.3549041026827,534,231.3549041026827" stroke="#e15759" stroke-width="2.1335840178140035"><title>Computer graphics (images)(v) → Data science(c)
549 citations</title></path></g><g style="mix-blend-mode: multiply;"><path d="M16,165.9942650673277C275,165.9942650673277,275,563.2516858181207,534,563.2516858181207" stroke="#4e79a7" stroke-width="1.9742453206730668"><title>Artificial intelligence(v) → World Wide Web(c)
508 citations</title></path></g><g style="mix-blend-mode: multiply;"><path d="M16,315.9748860365944C275,315.9748860365944,275,233.40687561708305,534,233.40687561708305" stroke="#59a14f" stroke-width="1.9703590109867026"><title>Data mining(v) → Data science(c)
507 citations</title></path></g><g style="mix-blend-mode: multiply;"><path d="M16,476.61723000651233C275,476.61723000651233,275,502.46717643845955,534,502.46717643845955" stroke="#e15759" stroke-width="1.9198369850639667"><title>Computer vision(v) → Computer vision(c)
494 citations</title></path></g><g style="mix-blend-mode: multiply;"><path d="M16,332.4086717223705C275,332.4086717223705,275,127.07728504506015,534,127.07728504506015" stroke="#af7aa1" stroke-width="1.8576560300821376"><title>Theoretical computer science(v) → Artificial intelligence(c)
478 citations</title></path></g><g style="mix-blend-mode: multiply;"><path d="M16,319.1169674180199C275,319.1169674180199,275,326.95334327668434,534,326.95334327668434" stroke="#59a14f" stroke-width="1.7877024557275802"><title>Data mining(v) → Data mining(c)
460 citations</title></path></g><g style="mix-blend-mode: multiply;"><path d="M16,218.65428649454873C275,218.65428649454873,275,323.611116946411,534,323.611116946411" stroke="#f28e2c" stroke-width="1.7643845976093944"><title>Human–computer interaction(v) → Data mining(c)
454 citations</title></path></g><g style="mix-blend-mode: multiply;"><path d="M16,5.860817595529694C275,5.860817595529694,275,5.860817595529694,534,5.860817595529694" stroke="#4e79a7" stroke-width="1.721635191059387"><title>Artificial intelligence(v) → Combinatorics(c)
443 citations</title></path></g><g style="mix-blend-mode: multiply;"><path d="M16,262.31555784299314C275,262.31555784299314,275,325.27640064701814,534,325.27640064701814" stroke="#e15759" stroke-width="1.5661828036048149"><title>Computer graphics (images)(v) → Data mining(c)
403 citations</title></path></g><g style="mix-blend-mode: multiply;"><path d="M16,364.5800684830789C275,364.5800684830789,275,328.5855933449574,534,328.5855933449574" stroke="#59a14f" stroke-width="1.4767976808184358"><title>Data science(v) → Data mining(c)
380 citations</title></path></g><g style="mix-blend-mode: multiply;"><path d="M16,445.1973089931308C275,445.1973089931308,275,569.0636619540784,534,569.0636619540784" stroke="#edc949" stroke-width="1.465138751759343"><title>Information retrieval(v) → World Wide Web(c)
377 citations</title></path></g><g style="mix-blend-mode: multiply;"><path d="M16,87.30426653782324C275,87.30426653782324,275,194.35476755666664,534,194.35476755666664" stroke="#4e79a7" stroke-width="1.352435770854778"><title>Artificial intelligence(v) → Multimedia(c)
348 citations</title></path></g><g style="mix-blend-mode: multiply;"><path d="M16,167.65760561309162C275,167.65760561309162,275,581.385731991681,534,581.385731991681" stroke="#4e79a7" stroke-width="1.352435770854778"><title>Artificial intelligence(v) → Mechanics(c)
348 citations</title></path></g><g style="mix-blend-mode: multiply;"><path d="M16,83.5753523937567C275,83.5753523937567,275,170.62585341260012,534,170.62585341260012" stroke="#4e79a7" stroke-width="1.3019137449320421"><title>Artificial intelligence(v) → Machine learning(c)
335 citations</title></path></g><g style="mix-blend-mode: multiply;"><path d="M16,164.36978761842744C275,164.36978761842744,275,550.0182761590655,534,550.0182761590655" stroke="#4e79a7" stroke-width="1.274709577127492"><title>Artificial intelligence(v) → Computational biology(c)
328 citations</title></path></g><g style="mix-blend-mode: multiply;"><path d="M16,317.591590866122C275,317.591590866122,275,293.672405100519,534,293.672405100519" stroke="#59a14f" stroke-width="1.2630506480683992"><title>Data mining(v) → Human–computer interaction(c)
325 citations</title></path></g><g style="mix-blend-mode: multiply;"><path d="M16,192.68402201541926C275,192.68402201541926,275,195.62753397895096,534,195.62753397895096" stroke="#f28e2c" stroke-width="1.1930970737138415"><title>Human–computer interaction(v) → Multimedia(c)
307 citations</title></path></g><g style="mix-blend-mode: multiply;"><path d="M16,365.90335693128594C275,365.90335693128594,275,361.3113144129572,534,361.3113144129572" stroke="#59a14f" stroke-width="1.1697792155956557"><title>Data science(v) → Information retrieval(c)
301 citations</title></path></g><g style="mix-blend-mode: multiply;"><path d="M16,368.88415646072735C275,368.88415646072735,275,567.7539755897737,534,567.7539755897737" stroke="#59a14f" stroke-width="1.1542339768501986"><title>Data science(v) → World Wide Web(c)
297 citations</title></path></g><g style="mix-blend-mode: multiply;"><path d="M16,286.4242799823541C275,286.4242799823541,275,538.0984391740016,534,538.0984391740016" stroke="#e15759" stroke-width="1.1270298090456485"><title>Computer graphics (images)(v) → Parallel computing(c)
290 citations</title></path></g><g style="mix-blend-mode: multiply;"><path d="M16,523.558179106359C275,523.558179106359,275,159.41915425498388,534,159.41915425498388" stroke="#ff9da7" stroke-width="1.1114845703001912"><title>Mechanics(v) → Artificial intelligence(c)
286 citations</title></path></g><g style="mix-blend-mode: multiply;"><path d="M16,403.36066004243435C275,403.36066004243435,275,329.86224607692805,534,329.86224607692805" stroke="#76b7b2" stroke-width="1.0765077831229124"><title>Algorithm(v) → Data mining(c)
277 citations</title></path></g><g style="mix-blend-mode: multiply;"><path d="M16,401.35726739911354C275,401.35726739911354,275,242.38619414742774,534,242.38619414742774" stroke="#76b7b2" stroke-width="1.057076234691091"><title>Algorithm(v) → Data science(c)
272 citations</title></path></g><g style="mix-blend-mode: multiply;"><path d="M16,227.68801336050254C275,227.68801336050254,275,525.3022393546626,534,525.3022393546626" stroke="#f28e2c" stroke-width="1.045417305631998"><title>Human–computer interaction(v) → Knowledge management(c)
269 citations</title></path></g><g style="mix-blend-mode: multiply;"><path d="M16,456.44870071214007C275,456.44870071214007,275,152.71721320084865,534,152.71721320084865" stroke="#9c755f" stroke-width="1.0376446862592694"><title>Geometry(v) → Artificial intelligence(c)
267 citations</title></path></g><g style="mix-blend-mode: multiply;"><path d="M16,440.1489927105435C275,440.1489927105435,275,330.8882318341282,534,330.8882318341282" stroke="#edc949" stroke-width="1"><title>Information retrieval(v) → Data mining(c)
251 citations</title></path></g><g style="mix-blend-mode: multiply;"><path d="M16,471.5883452723569C275,471.5883452723569,275,303.66605045900474,534,303.66605045900474" stroke="#e15759" stroke-width="1"><title>Computer vision(v) → Human–computer interaction(c)
248 citations</title></path></g><g style="mix-blend-mode: multiply;"><path d="M16,366.9643194756634C275,366.9643194756634,275,406.15208075121313,534,406.15208075121313" stroke="#59a14f" stroke-width="1"><title>Data science(v) → Computer graphics (images)(c)
245 citations</title></path></g><g style="mix-blend-mode: multiply;"><path d="M16,488.7955065857195C275,488.7955065857195,275,414.9584585005147,534,414.9584585005147" stroke="#bab0ab" stroke-width="1"><title>Computational science(v) → Computer graphics (images)(c)
243 citations</title></path></g><g style="mix-blend-mode: multiply;"><path d="M16,278.40682309938455C275,278.40682309938455,275,438.10831250131287,534,438.10831250131287" stroke="#e15759" stroke-width="1"><title>Computer graphics (images)(v) → Computational science(c)
242 citations</title></path></g><g style="mix-blend-mode: multiply;"><path d="M16,402.354105833666C275,402.354105833666,275,299.83220595340634,534,299.83220595340634" stroke="#76b7b2" stroke-width="1"><title>Algorithm(v) → Human–computer interaction(c)
241 citations</title></path></g><g style="mix-blend-mode: multiply;"><path d="M16,512.545795433061C275,512.545795433061,275,570.2528727181059,534,570.2528727181059" stroke="#4e79a7" stroke-width="1"><title>World Wide Web(v) → World Wide Web(c)
235 citations</title></path></g><g style="mix-blend-mode: multiply;"><path d="M16,417.2406150872845C275,417.2406150872845,275,501.0603323319957,534,501.0603323319957" stroke="#76b7b2" stroke-width="1"><title>Algorithm(v) → Computer vision(c)
230 citations</title></path></g><g style="mix-blend-mode: multiply;"><path d="M16,524.5569606957546C275,524.5569606957546,275,583.134571350545,534,583.134571350545" stroke="#ff9da7" stroke-width="1"><title>Mechanics(v) → Mechanics(c)
228 citations</title></path></g><g style="mix-blend-mode: multiply;"><path d="M16,148.0628321744428C275,148.0628321744428,275,437.1989160347036,534,437.1989160347036" stroke="#4e79a7" stroke-width="1"><title>Artificial intelligence(v) → Computational science(c)
226 citations</title></path></g><g style="mix-blend-mode: multiply;"><path d="M16,320.4441421759133C275,320.4441421759133,275,405.2426842846039,534,405.2426842846039" stroke="#59a14f" stroke-width="1"><title>Data mining(v) → Computer graphics (images)(c)
223 citations</title></path></g><g style="mix-blend-mode: multiply;"><path d="M16,367.87371594227267C275,367.87371594227267,275,526.2582715375081,534,526.2582715375081" stroke="#59a14f" stroke-width="1"><title>Data science(v) → Knowledge management(c)
223 citations</title></path></g><g style="mix-blend-mode: multiply;"><path d="M16,287.41334579753385C275,287.41334579753385,275,551.0811818582862,534,551.0811818582862" stroke="#e15759" stroke-width="1"><title>Computer graphics (images)(v) → Computational biology(c)
219 citations</title></path></g><g style="mix-blend-mode: multiply;"><path d="M16,163.31076822889315C275,163.31076822889315,275,537.1132596685082,534,537.1132596685082" stroke="#4e79a7" stroke-width="1"><title>Artificial intelligence(v) → Parallel computing(c)
217 citations</title></path></g><g style="mix-blend-mode: multiply;"><path d="M16,128.4952629035985C275,128.4952629035985,275,341.7762535974624,534,341.7762535974624" stroke="#4e79a7" stroke-width="1"><title>Artificial intelligence(v) → Software engineering(c)
206 citations</title></path></g><g style="mix-blend-mode: multiply;"><path d="M16,475.2609079259712C275,475.2609079259712,275,472.88353675188523,534,472.88353675188523" stroke="#e15759" stroke-width="1"><title>Computer vision(v) → Algorithm(c)
204 citations</title></path></g><g style="mix-blend-mode: multiply;"><path d="M16,379.85573388231836C275,379.85573388231836,275,136.37916727937312,534,136.37916727937312" stroke="#f28e2c" stroke-width="1"><title>Mathematical optimization(v) → Artificial intelligence(c)
203 citations</title></path></g><g style="mix-blend-mode: multiply;"><path d="M16,168.72634077684182C275,168.72634077684182,275,593.9701279331133,534,593.9701279331133" stroke="#4e79a7" stroke-width="1"><title>Artificial intelligence(v) → Geometry(c)
202 citations</title></path></g><g style="mix-blend-mode: multiply;"><path d="M16,162.50630212381574C275,162.50630212381574,275,524.3967291977395,534,524.3967291977395" stroke="#4e79a7" stroke-width="1"><title>Artificial intelligence(v) → Knowledge management(c)
197 citations</title></path></g><g style="mix-blend-mode: multiply;"><path d="M16,226.78250320357967C275,226.78250320357967,275,497.9610003571202,534,497.9610003571202" stroke="#f28e2c" stroke-width="1"><title>Human–computer interaction(v) → Computer vision(c)
197 citations</title></path></g><g style="mix-blend-mode: multiply;"><path d="M16,499.64855156187645C275,499.64855156187645,275,157.8024494254563,534,157.8024494254563" stroke="#e15759" stroke-width="1"><title>Parallel computing(v) → Artificial intelligence(c)
196 citations</title></path></g><g style="mix-blend-mode: multiply;"><path d="M16,511.70829569564955C275,511.70829569564955,275,304.52881120937764,534,304.52881120937764" stroke="#4e79a7" stroke-width="1"><title>World Wide Web(v) → Human–computer interaction(c)
196 citations</title></path></g><g style="mix-blend-mode: multiply;"><path d="M16,444.08582442283057C275,444.08582442283057,275,551.8856479633637,534,551.8856479633637" stroke="#edc949" stroke-width="1"><title>Information retrieval(v) → Computational biology(c)
195 citations</title></path></g><g style="mix-blend-mode: multiply;"><path d="M16,219.91345083293075C275,219.91345083293075,275,342.55351553473525,534,342.55351553473525" stroke="#f28e2c" stroke-width="1"><title>Human–computer interaction(v) → Software engineering(c)
194 citations</title></path></g><g style="mix-blend-mode: multiply;"><path d="M16,487.9502342289353C275,487.9502342289353,275,157.04850534630162,534,157.04850534630162" stroke="#bab0ab" stroke-width="1"><title>Computational science(v) → Artificial intelligence(c)
192 citations</title></path></g><g style="mix-blend-mode: multiply;"><path d="M16,418.047024347205C275,418.047024347205,275,539.0214377245131,534,539.0214377245131" stroke="#76b7b2" stroke-width="1"><title>Algorithm(v) → Parallel computing(c)
185 citations</title></path></g><g style="mix-blend-mode: multiply;"><path d="M16,147.26808184358129C275,147.26808184358129,275,426.4041657038421,534,426.4041657038421" stroke="#4e79a7" stroke-width="1"><title>Artificial intelligence(v) → Natural language processing(c)
183 citations</title></path></g><g style="mix-blend-mode: multiply;"><path d="M16,157.59012037056488C275,157.59012037056488,275,483.6316513665103,534,483.6316513665103" stroke="#4e79a7" stroke-width="1"><title>Artificial intelligence(v) → Remote sensing(c)
181 citations</title></path></g><g style="mix-blend-mode: multiply;"><path d="M16,457.3172909270425C275,457.3172909270425,275,472.13736529210325,534,472.13736529210325" stroke="#9c755f" stroke-width="1"><title>Geometry(v) → Algorithm(c)
180 citations</title></path></g><g style="mix-blend-mode: multiply;"><path d="M16,263.4464739617252C275,263.4464739617252,275,360.37860008822975,534,360.37860008822975" stroke="#e15759" stroke-width="1"><title>Computer graphics (images)(v) → Information retrieval(c)
179 citations</title></path></g><g style="mix-blend-mode: multiply;"><path d="M16,226.05576329222953C275,226.05576329222953,275,457.65891855555304,534,457.65891855555304" stroke="#f28e2c" stroke-width="1"><title>Human–computer interaction(v) → Algorithm(c)
177 citations</title></path></g><g style="mix-blend-mode: multiply;"><path d="M16,510.98738524882896C275,510.98738524882896,275,158.5233598722769,534,158.5233598722769" stroke="#4e79a7" stroke-width="1"><title>World Wide Web(v) → Artificial intelligence(c)
175 citations</title></path></g><g style="mix-blend-mode: multiply;"><path d="M16,418.72518538747556C275,418.72518538747556,275,594.6813226057179,534,594.6813226057179" stroke="#76b7b2" stroke-width="1"><title>Algorithm(v) → Geometry(c)
164 citations</title></path></g><g style="mix-blend-mode: multiply;"><path d="M16,443.38823183412813C275,443.38823183412813,275,411.3733378148436,534,411.3733378148436" stroke="#edc949" stroke-width="1"><title>Information retrieval(v) → Computer graphics (images)(c)
164 citations</title></path></g><g style="mix-blend-mode: multiply;"><path d="M16,333.6561771316934C275,333.6561771316934,275,234.71073251685826,534,234.71073251685826" stroke="#af7aa1" stroke-width="1"><title>Theoretical computer science(v) → Data science(c)
164 citations</title></path></g><g style="mix-blend-mode: multiply;"><path d="M16,288.7444068651136C275,288.7444068651136,275,582.376740961704,534,582.376740961704" stroke="#e15759" stroke-width="1"><title>Computer graphics (images)(v) → Mechanics(c)
162 citations</title></path></g><g style="mix-blend-mode: multiply;"><path d="M16,500.3383715312061C275,500.3383715312061,275,415.73960674747394,534,415.73960674747394" stroke="#e15759" stroke-width="1"><title>Parallel computing(v) → Computer graphics (images)(c)
159 citations</title></path></g><g style="mix-blend-mode: multiply;"><path d="M16,334.2779866815117C275,334.2779866815117,275,294.6070625800895,534,294.6070625800895" stroke="#af7aa1" stroke-width="1"><title>Theoretical computer science(v) → Human–computer interaction(c)
156 citations</title></path></g><g style="mix-blend-mode: multiply;"><path d="M16,321.17865470663617C275,321.17865470663617,275,463.0181396130494,534,463.0181396130494" stroke="#59a14f" stroke-width="1"><title>Data mining(v) → Algorithm(c)
155 citations</title></path></g><g style="mix-blend-mode: multiply;"><path d="M16,299.3545574858728C275,299.3545574858728,275,120.51330798479084,534,120.51330798479084" stroke="#76b7b2" stroke-width="1"><title>Distributed computing(v) → Artificial intelligence(c)
152 citations</title></path></g><g style="mix-blend-mode: multiply;"><path d="M16,288.1342562443544C275,288.1342562443544,275,566.8814990651849,534,566.8814990651849" stroke="#e15759" stroke-width="1"><title>Computer graphics (images)(v) → World Wide Web(c)
152 citations</title></path></g><g style="mix-blend-mode: multiply;"><path d="M16,161.83008423838834C275,161.83008423838834,275,513.7205113123122,534,513.7205113123122" stroke="#4e79a7" stroke-width="1"><title>Artificial intelligence(v) → Cognitive psychology(c)
151 citations</title></path></g></g><g font-family="sans-serif" font-size="14"><text x="22" y="87.05942902758233" dy="0.35em" text-anchor="start">Artificial intelligence(v)</text><text x="22" y="204.83845555952365" dy="0.35em" text-anchor="start">Human–computer interaction(v)</text><text x="22" y="264.80862550679586" dy="0.35em" text-anchor="start">Computer graphics (images)(v)</text><text x="22" y="404.64702854862094" dy="0.35em" text-anchor="start">Algorithm(v)</text><text x="22" y="357.02119614310027" dy="0.35em" text-anchor="start">Data science(v)</text><text x="22" y="315.56488036468295" dy="0.35em" text-anchor="start">Data mining(v)</text><text x="22" y="437.486870575384" dy="0.35em" text-anchor="start">Information retrieval(v)</text><text x="22" y="472.62210364892985" dy="0.35em" text-anchor="start">Computer vision(v)</text><text x="22" y="333.0304812721888" dy="0.35em" text-anchor="start">Theoretical computer science(v)</text><text x="22" y="524.0012184106046" dy="0.35em" text-anchor="start">Mechanics(v)</text><text x="22" y="456.7984685839129" dy="0.35em" text-anchor="start">Geometry(v)</text><text x="22" y="488.42242085582853" dy="0.35em" text-anchor="start">Computational science(v)</text><text x="22" y="511.8248849862405" dy="0.35em" text-anchor="start">World Wide Web(v)</text><text x="22" y="379.85573388231836" dy="0.35em" text-anchor="start">Mathematical optimization(v)</text><text x="22" y="499.95751318194243" dy="0.35em" text-anchor="start">Parallel computing(v)</text><text x="22" y="299.3545574858728" dy="0.35em" text-anchor="start">Distributed computing(v)</text><text x="528" y="88.34826586559673" dy="0.35em" text-anchor="end">Artificial intelligence(c)</text><text x="528" y="280.35596496019167" dy="0.35em" text-anchor="end">Human–computer interaction(c)</text><text x="528" y="226.01317143877495" dy="0.35em" text-anchor="end">Data science(c)</text><text x="528" y="395.18880112597947" dy="0.35em" text-anchor="end">Computer graphics (images)(c)</text><text x="528" y="460.9292481566286" dy="0.35em" text-anchor="end">Algorithm(c)</text><text x="528" y="323.1428166292041" dy="0.35em" text-anchor="end">Data mining(c)</text><text x="528" y="358.6297607293658" dy="0.35em" text-anchor="end">Information retrieval(c)</text><text x="528" y="498.70522866205897" dy="0.35em" text-anchor="end">Computer vision(c)</text><text x="528" y="182.4776799781527" dy="0.35em" text-anchor="end">Theoretical computer science(c)</text><text x="528" y="566.4870386320189" dy="0.35em" text-anchor="end">World Wide Web(c)</text><text x="528" y="5.8608175955296815" dy="0.35em" text-anchor="end">Combinatorics(c)</text><text x="528" y="194.9513160935236" dy="0.35em" text-anchor="end">Multimedia(c)</text><text x="528" y="582.1435623805221" dy="0.35em" text-anchor="end">Mechanics(c)</text><text x="528" y="170.62585341260012" dy="0.35em" text-anchor="end">Machine learning(c)</text><text x="528" y="550.822742264143" dy="0.35em" text-anchor="end">Computational biology(c)</text><text x="528" y="538.0362582190198" dy="0.35em" text-anchor="end">Parallel computing(c)</text><text x="528" y="525.3527613805852" dy="0.35em" text-anchor="end">Knowledge management(c)</text><text x="528" y="437.66915950675366" dy="0.35em" text-anchor="end">Computational science(c)</text><text x="528" y="342.1532256370397" dy="0.35em" text-anchor="end">Software engineering(c)</text><text x="528" y="594.2888053273953" dy="0.35em" text-anchor="end">Geometry(c)</text><text x="528" y="426.4041657038421" dy="0.35em" text-anchor="end">Natural language processing(c)</text><text x="528" y="483.6316513665103" dy="0.35em" text-anchor="end">Remote sensing(c)</text><text x="528" y="513.7205113123122" dy="0.35em" text-anchor="end">Cognitive psychology(c)</text></g></svg>