<svg width="550" height="600" viewBox="0,0,550,600" style="max-width: 100%; height: auto; height: intrinsic;" xmlns="http://www.w3.org/2000/svg" xmlns:xlink="http://www.w3.org/1999/xlink"><g stroke="currentColor"><rect x="1" y="5" height="93.62341401359174" width="15" fill="#4e79a7"><title>Artificial intelligence(r)
22,373 citations</title></rect><rect x="1" y="132.57791838237756" height="30.82839543369829" width="15" fill="#f28e2c"><title>Computer graphics (images)(r)
7,367 citations</title></rect><rect x="1" y="173.40631381607585" height="30.15466505975695" width="15" fill="#e15759"><title>Human–computer interaction(r)
7,206 citations</title></rect><rect x="1" y="315.88748284289113" height="22.421412071909174" width="15" fill="#76b7b2"><title>Algorithm(r)
5,358 citations</title></rect><rect x="1" y="281.0486759733521" height="14.18181513842859" width="15" fill="#59a14f"><title>Data science(r)
3,389 citations</title></rect><rect x="1" y="251.6373740417127" height="8.356767433296511" width="15" fill="#59a14f"><title>Data mining(r)
1,997 citations</title></rect><rect x="1" y="399.0299956479529" height="8.528338522312595" width="15" fill="#edc949"><title>Information retrieval(r)
2,038 citations</title></rect><rect x="1" y="226.99658531686254" height="3.7536406548156833" width="15" fill="#af7aa1"><title>Statistics(r)
897 citations</title></rect><rect x="1" y="372.221552676509" height="5.569783401961786" width="15" fill="#f28e2c"><title>Computer vision(r)
1,331 citations</title></rect><rect x="1" y="213.5609788758328" height="3.4356064410297336" width="15" fill="#ff9da7"><title>Cognitive psychology(r)
821 citations</title></rect><rect x="1" y="119.46034615513372" height="3.1175722272438406" width="15" fill="#9c755f"><title>Combinatorics(r)
745 citations</title></rect><rect x="1" y="348.3088949148003" height="3.075725620166736" width="15" fill="#bab0ab"><title>Theoretical computer science(r)
735 citations</title></rect><rect x="1" y="476.2289511566402" height="2.3768872819791795" width="15" fill="#4e79a7"><title>Computational biology(r)
568 citations</title></rect><rect x="1" y="441.28686686083495" height="2.853938602658104" width="15" fill="#f28e2c"><title>Mechanics(r)
682 citations</title></rect><rect x="1" y="417.5583341702655" height="2.678182852934299" width="15" fill="#e15759"><title>World Wide Web(r)
640 citations</title></rect><rect x="1" y="269.9941414750092" height="1.054534498342889" width="15" fill="#76b7b2"><title>Machine learning(r)
252 citations</title></rect><rect x="1" y="240.75022597167822" height="0.8871480700344705" width="15" fill="#59a14f"><title>Geometry(r)
212 citations</title></rect><rect x="1" y="361.38462053496704" height="0.836932141541979" width="15" fill="#edc949"><title>Applied mathematics(r)
200 citations</title></rect><rect x="1" y="108.62341401359174" height="0.836932141541979" width="15" fill="#af7aa1"><title>Mathematical optimization(r)
200 citations</title></rect><rect x="1" y="387.7913360784708" height="1.2386595694820812" width="15" fill="#ff9da7"><title>Optics(r)
296 citations</title></rect><rect x="1" y="305.2304911117807" height="0.6569917311104518" width="15" fill="#9c755f"><title>Neuroscience(r)
157 citations</title></rect><rect x="1" y="454.14080546349305" height="1.184258980281868" width="15" fill="#bab0ab"><title>Programming language(r)
283 citations</title></rect><rect x="1" y="499.22098356265275" height="1.1633356767433156" width="15" fill="#4e79a7"><title>Multimedia(r)
278 citations</title></rect><rect x="1" y="430.2365170231998" height="1.0503498376351672" width="15" fill="#4e79a7"><title>Computational science(r)
251 citations</title></rect><rect x="1" y="488.6058384386194" height="0.6151451240333472" width="15" fill="#f28e2c"><title>Pure mathematics(r)
147 citations</title></rect><rect x="1" y="510.38431923939606" height="0.6025911419102385" width="15" fill="#e15759"><title>Natural language processing(r)
144 citations</title></rect><rect x="1" y="520.9869103813063" height="0.5900371597870162" width="15" fill="#af7aa1"><title>Mathematical analysis(r)
141 citations</title></rect><rect x="1" y="531.5769475410933" height="0.5356365705868029" width="15" fill="#76b7b2"><title>Software engineering(r)
128 citations</title></rect><rect x="1" y="542.1125841116801" height="0.5272672491714729" width="15" fill="#59a14f"><title>Radiology(r)
126 citations</title></rect><rect x="1" y="552.6398513608516" height="0.5105286063405856" width="15" fill="#edc949"><title>Parallel computing(r)
122 citations</title></rect><rect x="1" y="563.1503799671922" height="0.502159284925142" width="15" fill="#af7aa1"><title>Statistical physics(r)
120 citations</title></rect><rect x="1" y="465.3250644437749" height="0.903886712865301" width="15" fill="#ff9da7"><title>Knowledge management(r)
216 citations</title></rect><rect x="1" y="573.6525392521173" height="0.47705132067892464" width="15" fill="#9c755f"><title>Econometrics(r)
114 citations</title></rect><rect x="1" y="584.1295905727962" height="0.44775869572492866" width="15" fill="#bab0ab"><title>Database(r)
107 citations</title></rect><rect x="1" y="594.5773492685212" height="0.42265073147871135" width="15" fill="#4e79a7"><title>Cartography(r)
101 citations</title></rect><rect x="534" y="15.711392320310665" height="135.16035619831942" width="15" fill="#4e79a7"><title>Artificial intelligence(v)
32,299 citations</title></rect><rect x="534" y="251.5647283318268" height="33.30152991195473" width="15" fill="#e15759"><title>Human–computer interaction(v)
7,958 citations</title></rect><rect x="534" y="218.86294399250104" height="22.70178433932577" width="15" fill="#f28e2c"><title>Computer graphics (images)(v)
5,425 citations</title></rect><rect x="534" y="342.96357671320027" height="18.93558970238695" width="15" fill="#59a14f"><title>Data science(v)
4,525 citations</title></rect><rect x="534" y="195.1079642462589" height="13.754979746242157" width="15" fill="#76b7b2"><title>Algorithm(v)
3,287 citations</title></rect><rect x="534" y="176.5503330989923" height="8.55763114726659" width="15" fill="#59a14f"><title>Data mining(v)
2,045 citations</title></rect><rect x="534" y="294.86625824378154" height="4.657527367681041" width="15" fill="#edc949"><title>Information retrieval(v)
1,113 citations</title></rect><rect x="534" y="160.87174851863008" height="5.678584580362212" width="15" fill="#f28e2c"><title>Computer vision(v)
1,357 citations</title></rect><rect x="534" y="371.8991664155872" height="2.5275350674567107" width="15" fill="#f28e2c"><title>Mechanics(v)
604 citations</title></rect><rect x="534" y="309.5237856114626" height="1.9626058719159118" width="15" fill="#bab0ab"><title>Theoretical computer science(v)
469 citations</title></rect><rect x="534" y="5" height="0.7113923203106651" width="15" fill="#4e79a7"><title>Multimedia(v)
170 citations</title></rect><rect x="534" y="331.90485755414954" height="1.0587191590507246" width="15" fill="#4e79a7"><title>Computational science(v)
253 citations</title></rect><rect x="534" y="465.17050813421355" height="0.5732985169561289" width="15" fill="#4e79a7"><title>Computational biology(v)
137 citations</title></rect><rect x="534" y="321.4863914833785" height="0.41846607077104636" width="15" fill="#e15759"><title>World Wide Web(v)
100 citations</title></rect></g><g fill="none" stroke-opacity="0.5"><g style="mix-blend-mode: multiply;"><path d="M16,34.790599578186196C275,34.790599578186196,275,44.79059957818619,534,44.79059957818619" stroke="#4e79a7" stroke-width="58.158414515751055"><title>Artificial intelligence(r) → Artificial intelligence(v)
13,898 citations</title></path></g><g style="mix-blend-mode: multiply;"><path d="M16,138.93232566703492C275,138.93232566703492,275,83.33341702654747,534,83.33341702654747" stroke="#f28e2c" stroke-width="12.708814569314718"><title>Computer graphics (images)(r) → Artificial intelligence(v)
3,037 citations</title></path></g><g style="mix-blend-mode: multiply;"><path d="M16,192.53230558066355C275,192.53230558066355,275,268.4770345820361,534,268.4770345820361" stroke="#e15759" stroke-width="10.901041143584077"><title>Human–computer interaction(r) → Human–computer interaction(v)
2,605 citations</title></path></g><g style="mix-blend-mode: multiply;"><path d="M16,178.49276890629713C275,178.49276890629713,275,94.7742794014261,534,94.7742794014261" stroke="#e15759" stroke-width="10.17291018044257"><title>Human–computer interaction(r) → Artificial intelligence(v)
2,431 citations</title></path></g><g style="mix-blend-mode: multiply;"><path d="M16,320.9048910314352C275,320.9048910314352,275,124.38284623882693,534,124.38284623882693" stroke="#76b7b2" stroke-width="10.034816377088145"><title>Algorithm(r) → Artificial intelligence(v)
2,398 citations</title></path></g><g style="mix-blend-mode: multiply;"><path d="M16,84.4834454822403C275,84.4834454822403,275,255.95443741421442,534,255.95443741421442" stroke="#4e79a7" stroke-width="8.7794181647752"><title>Artificial intelligence(r) → Human–computer interaction(v)
2,098 citations</title></path></g><g style="mix-blend-mode: multiply;"><path d="M16,154.55366408891564C275,154.55366408891564,275,228.9709919319741,534,228.9709919319741" stroke="#f28e2c" stroke-width="8.172642362157276"><title>Computer graphics (images)(r) → Computer graphics (images)(v)
1,953 citations</title></path></g><g style="mix-blend-mode: multiply;"><path d="M16,284.2792340397041C275,284.2792340397041,275,115.47788825282043,534,115.47788825282043" stroke="#59a14f" stroke-width="6.4611161327039595"><title>Data science(r) → Artificial intelligence(v)
1,544 citations</title></path></g><g style="mix-blend-mode: multiply;"><path d="M16,77.0828730206555C275,77.0828730206555,275,221.87380737169826,534,221.87380737169826" stroke="#4e79a7" stroke-width="6.021726758394429"><title>Artificial intelligence(r) → Computer graphics (images)(v)
1,439 citations</title></path></g><g style="mix-blend-mode: multiply;"><path d="M16,94.81955743028357C275,94.81955743028357,275,345.90539319072025,534,345.90539319072025" stroke="#4e79a7" stroke-width="5.883632955040005"><title>Artificial intelligence(r) → Data science(v)
1,406 citations</title></path></g><g style="mix-blend-mode: multiply;"><path d="M16,254.28417193933916C275,254.28417193933916,275,108.54599779049911,534,108.54599779049911" stroke="#59a14f" stroke-width="5.29359579525292"><title>Data mining(r) → Artificial intelligence(v)
1,265 citations</title></path></g><g style="mix-blend-mode: multiply;"><path d="M16,330.07139031167355C275,330.07139031167355,275,206.27473134478257,534,206.27473134478257" stroke="#76b7b2" stroke-width="5.1764252954370455"><title>Algorithm(r) → Algorithm(v)
1,237 citations</title></path></g><g style="mix-blend-mode: multiply;"><path d="M16,71.68256837735596C275,71.68256837735596,275,197.4974055103612,534,197.4974055103612" stroke="#4e79a7" stroke-width="4.778882528204613"><title>Artificial intelligence(r) → Algorithm(v)
1,142 citations</title></path></g><g style="mix-blend-mode: multiply;"><path d="M16,201.48120250410102C275,201.48120250410102,275,351.94385859194557,534,351.94385859194557" stroke="#e15759" stroke-width="4.15955274346356"><title>Human–computer interaction(r) → Data science(v)
994 citations</title></path></g><g style="mix-blend-mode: multiply;"><path d="M16,401.0072478323458C275,401.0072478323458,275,137.8721000301295,534,137.8721000301295" stroke="#edc949" stroke-width="3.9545043687857784"><title>Information retrieval(r) → Artificial intelligence(v)
945 citations</title></path></g><g style="mix-blend-mode: multiply;"><path d="M16,67.5230156338924C275,67.5230156338924,275,178.32044457835354,534,178.32044457835354" stroke="#4e79a7" stroke-width="3.5402229587225063"><title>Artificial intelligence(r) → Data mining(v)
846 citations</title></path></g><g style="mix-blend-mode: multiply;"><path d="M16,334.34602122459916C275,334.34602122459916,275,236.94904757122293,534,236.94904757122293" stroke="#76b7b2" stroke-width="3.3728365304141135"><title>Algorithm(r) → Computer graphics (images)(v)
806 citations</title></path></g><g style="mix-blend-mode: multiply;"><path d="M16,293.6319507214355C275,293.6319507214355,275,357.21234642295224,534,357.21234642295224" stroke="#59a14f" stroke-width="3.1970807806903014"><title>Data science(r) → Data science(v)
764 citations</title></path></g><g style="mix-blend-mode: multiply;"><path d="M16,228.42983160925314C275,228.42983160925314,275,103.57880553044755,534,103.57880553044755" stroke="#af7aa1" stroke-width="2.8664925847812257"><title>Statistics(r) → Artificial intelligence(v)
685 citations</title></path></g><g style="mix-blend-mode: multiply;"><path d="M16,290.13985136085165C275,290.13985136085165,275,277.6874727997054,534,277.6874727997054" stroke="#59a14f" stroke-width="2.7827993706270293"><title>Data science(r) → Human–computer interaction(v)
665 citations</title></path></g><g style="mix-blend-mode: multiply;"><path d="M16,373.5983060493455C275,373.5983060493455,275,133.798332831174,534,133.798332831174" stroke="#f28e2c" stroke-width="2.7535067456730604"><title>Computer vision(r) → Artificial intelligence(v)
658 citations</title></path></g><g style="mix-blend-mode: multiply;"><path d="M16,159.98116902681528C275,159.98116902681528,275,261.68533025342305,534,261.68533025342305" stroke="#f28e2c" stroke-width="2.6823675136419936"><title>Computer graphics (images)(r) → Human–computer interaction(v)
641 citations</title></path></g><g style="mix-blend-mode: multiply;"><path d="M16,149.22240634729334C275,149.22240634729334,275,201.97708479796455,534,201.97708479796455" stroke="#f28e2c" stroke-width="2.489873121087342"><title>Computer graphics (images)(r) → Algorithm(v)
595 citations</title></path></g><g style="mix-blend-mode: multiply;"><path d="M16,214.7033912490376C275,214.7033912490376,275,101.00314686485217,534,101.00314686485217" stroke="#ff9da7" stroke-width="2.284824746409561"><title>Cognitive psychology(r) → Artificial intelligence(v)
546 citations</title></path></g><g style="mix-blend-mode: multiply;"><path d="M16,120.59648153727693C275,120.59648153727693,275,75.84287435974689,534,75.84287435974689" stroke="#9c755f" stroke-width="2.2722707642864313"><title>Combinatorics(r) → Artificial intelligence(v)
543 citations</title></path></g><g style="mix-blend-mode: multiply;"><path d="M16,349.4010913595126C275,349.4010913595126,275,130.49245087208328,534,130.49245087208328" stroke="#bab0ab" stroke-width="2.184392889424525"><title>Theoretical computer science(r) → Artificial intelligence(v)
522 citations</title></path></g><g style="mix-blend-mode: multiply;"><path d="M16,89.85445750058585C275,89.85445750058585,275,295.8475611797395,534,295.8475611797395" stroke="#4e79a7" stroke-width="1.962605871915905"><title>Artificial intelligence(r) → Information retrieval(v)
469 citations</title></path></g><g style="mix-blend-mode: multiply;"><path d="M16,146.24711258411168C275,146.24711258411168,275,163.7152254695189,534,163.7152254695189" stroke="#f28e2c" stroke-width="1.9207592648388068"><title>Computer graphics (images)(r) → Computer vision(v)
459 citations</title></path></g><g style="mix-blend-mode: multiply;"><path d="M16,64.81135549529644C275,64.81135549529644,275,161.8132971778648,534,161.8132971778648" stroke="#4e79a7" stroke-width="1.8830973184694184"><title>Artificial intelligence(r) → Computer vision(v)
450 citations</title></path></g><g style="mix-blend-mode: multiply;"><path d="M16,477.1307455391517C275,477.1307455391517,275,144.11142914532482,534,144.11142914532482" stroke="#4e79a7" stroke-width="1.8035887650229319"><title>Computational biology(r) → Artificial intelligence(v)
431 citations</title></path></g><g style="mix-blend-mode: multiply;"><path d="M16,186.2134679120217C275,186.2134679120217,275,233.92563020990255,534,233.92563020990255" stroke="#e15759" stroke-width="1.7366341936995746"><title>Human–computer interaction(r) → Computer graphics (images)(v)
415 citations</title></path></g><g style="mix-blend-mode: multiply;"><path d="M16,404.3026681396672C275,404.3026681396672,275,281.673362123799,534,281.673362123799" stroke="#edc949" stroke-width="1.4646312476984364"><title>Information retrieval(r) → Human–computer interaction(v)
350 citations</title></path></g><g style="mix-blend-mode: multiply;"><path d="M16,376.4250443574036C275,376.4250443574036,275,239.32384252284822,534,239.32384252284822" stroke="#f28e2c" stroke-width="1.3767533728365302"><title>Computer vision(r) → Computer graphics (images)(v)
329 citations</title></path></g><g style="mix-blend-mode: multiply;"><path d="M16,406.8929731177396C275,406.8929731177396,275,360.10813163268745,534,360.10813163268745" stroke="#edc949" stroke-width="1.3307221050517222"><title>Information retrieval(r) → Data science(v)
318 citations</title></path></g><g style="mix-blend-mode: multiply;"><path d="M16,443.5277526698136C275,443.5277526698136,275,373.81364868936447,534,373.81364868936447" stroke="#f28e2c" stroke-width="1.2261055873589768"><title>Mechanics(r) → Mechanics(v)
293 citations</title></path></g><g style="mix-blend-mode: multiply;"><path d="M16,405.63129791436506C275,405.63129791436506,275,298.9274714606139,534,298.9274714606139" stroke="#edc949" stroke-width="1.1926283016972983"><title>Information retrieval(r) → Information retrieval(v)
285 citations</title></path></g><g style="mix-blend-mode: multiply;"><path d="M16,216.42119446955246C275,216.42119446955246,275,274.5029460011382,534,274.5029460011382" stroke="#ff9da7" stroke-width="1.1507816946202"><title>Cognitive psychology(r) → Human–computer interaction(v)
275 citations</title></path></g><g style="mix-blend-mode: multiply;"><path d="M16,257.50217602356804C275,257.50217602356804,275,182.28959525961628,534,182.28959525961628" stroke="#59a14f" stroke-width="1.1424123732047804"><title>Data mining(r) → Data mining(v)
273 citations</title></path></g><g style="mix-blend-mode: multiply;"><path d="M16,259.43130460982223C275,259.43130460982223,275,355.05096916742013,534,355.05096916742013" stroke="#59a14f" stroke-width="1.1256737303739413"><title>Data mining(r) → Data science(v)
269 citations</title></path></g><g style="mix-blend-mode: multiply;"><path d="M16,418.0960630712062C275,418.0960630712062,275,140.38708111546313,534,140.38708111546313" stroke="#e15759" stroke-width="1.0754578018814234"><title>World Wide Web(r) → Artificial intelligence(v)
257 citations</title></path></g><g style="mix-blend-mode: multiply;"><path d="M16,270.5214087241806C275,270.5214087241806,275,111.72006293729702,534,111.72006293729702" stroke="#76b7b2" stroke-width="1.0545344983428742"><title>Machine learning(r) → Artificial intelligence(v)
252 citations</title></path></g><g style="mix-blend-mode: multiply;"><path d="M16,91.35675069465368C275,91.35675069465368,275,310.04477586957245,534,310.04477586957245" stroke="#4e79a7" stroke-width="1.0419805162197449"><title>Artificial intelligence(r) → Theoretical computer science(v)
249 citations</title></path></g><g style="mix-blend-mode: multiply;"><path d="M16,441.7994877975294C275,441.7994877975294,275,142.0567607378393,534,142.0567607378393" stroke="#f28e2c" stroke-width="1.0252418733889055"><title>Mechanics(r) → Artificial intelligence(v)
245 citations</title></path></g><g style="mix-blend-mode: multiply;"><path d="M16,162.4584881657795C275,162.4584881657795,275,349.35564594422704,534,349.35564594422704" stroke="#f28e2c" stroke-width="1.0168725519734858"><title>Computer graphics (images)(r) → Data science(v)
243 citations</title></path></g><g style="mix-blend-mode: multiply;"><path d="M16,198.4828931070269C275,198.4828931070269,275,297.32893107026877,534,297.32893107026877" stroke="#e15759" stroke-width="1.0001339091426467"><title>Human–computer interaction(r) → Information retrieval(v)
239 citations</title></path></g><g style="mix-blend-mode: multiply;"><path d="M16,419.08364299822574C275,419.08364299822574,275,282.85552877372703,534,282.85552877372703" stroke="#e15759" stroke-width="1"><title>World Wide Web(r) → Human–computer interaction(v)
215 citations</title></path></g><g style="mix-blend-mode: multiply;"><path d="M16,327.0375112985839C275,327.0375112985839,275,184.07644538180838,534,184.07644538180838" stroke="#76b7b2" stroke-width="1"><title>Algorithm(r) → Data mining(v)
213 citations</title></path></g><g style="mix-blend-mode: multiply;"><path d="M16,241.19380000669545C275,241.19380000669545,275,105.45562585785541,534,105.45562585785541" stroke="#59a14f" stroke-width="1"><title>Geometry(r) → Artificial intelligence(v)
212 citations</title></path></g><g style="mix-blend-mode: multiply;"><path d="M16,98.19239396069767C275,98.19239396069767,275,372.3301864684813,534,372.3301864684813" stroke="#4e79a7" stroke-width="1"><title>Artificial intelligence(r) → Mechanics(v)
206 citations</title></path></g><g style="mix-blend-mode: multiply;"><path d="M16,184.4517257540759C275,184.4517257540759,275,181.28946135047366,534,181.28946135047366" stroke="#e15759" stroke-width="1"><title>Human–computer interaction(r) → Data mining(v)
205 citations</title></path></g><g style="mix-blend-mode: multiply;"><path d="M16,122.15526765089885C275,122.15526765089885,275,200.30949750594218,534,200.30949750594218" stroke="#9c755f" stroke-width="1"><title>Combinatorics(r) → Algorithm(v)
202 citations</title></path></g><g style="mix-blend-mode: multiply;"><path d="M16,361.80308660573803C275,361.80308660573803,275,132.00311338756651,534,132.00311338756651" stroke="#edc949" stroke-width="1"><title>Applied mathematics(r) → Artificial intelligence(v)
200 citations</title></path></g><g style="mix-blend-mode: multiply;"><path d="M16,109.04188008436272C275,109.04188008436272,275,74.28827290683269,534,74.28827290683269" stroke="#af7aa1" stroke-width="1"><title>Mathematical optimization(r) → Artificial intelligence(v)
200 citations</title></path></g><g style="mix-blend-mode: multiply;"><path d="M16,258.47092497740283C275,258.47092497740283,275,275.89853034715946,534,275.89853034715946" stroke="#59a14f" stroke-width="1"><title>Data mining(r) → Human–computer interaction(v)
190 citations</title></path></g><g style="mix-blend-mode: multiply;"><path d="M16,287.8947808911654C275,287.8947808911654,275,183.245790231328,534,183.245790231328" stroke="#59a14f" stroke-width="1"><title>Data science(r) → Data mining(v)
184 citations</title></path></g><g style="mix-blend-mode: multiply;"><path d="M16,147.59248100164038C275,147.59248100164038,275,180.4755448428241,534,180.4755448428241" stroke="#f28e2c" stroke-width="1"><title>Computer graphics (images)(r) → Data mining(v)
184 citations</title></path></g><g style="mix-blend-mode: multiply;"><path d="M16,375.3558635465837C275,375.3558635465837,275,166.16952897459072,534,166.16952897459072" stroke="#f28e2c" stroke-width="1"><title>Computer vision(r) → Computer vision(v)
182 citations</title></path></g><g style="mix-blend-mode: multiply;"><path d="M16,336.396504971377C275,336.396504971377,275,279.4429379665897,534,279.4429379665897" stroke="#76b7b2" stroke-width="1"><title>Algorithm(r) → Human–computer interaction(v)
174 citations</title></path></g><g style="mix-blend-mode: multiply;"><path d="M16,388.15121689933386C275,388.15121689933386,275,135.5349670248736,534,135.5349670248736" stroke="#ff9da7" stroke-width="1"><title>Optics(r) → Artificial intelligence(v)
172 citations</title></path></g><g style="mix-blend-mode: multiply;"><path d="M16,5.355696160155334C275,5.355696160155334,275,5.355696160155334,534,5.355696160155334" stroke="#4e79a7" stroke-width="1"><title>Artificial intelligence(r) → Multimedia(v)
170 citations</title></path></g><g style="mix-blend-mode: multiply;"><path d="M16,419.88500552375217C275,419.88500552375217,275,361.12500418466095,534,361.12500418466095" stroke="#e15759" stroke-width="1"><title>World Wide Web(r) → Data science(v)
168 citations</title></path></g><g style="mix-blend-mode: multiply;"><path d="M16,377.4523785611463C275,377.4523785611463,275,280.6020889826253,534,280.6020889826253" stroke="#f28e2c" stroke-width="1"><title>Computer vision(r) → Human–computer interaction(v)
162 citations</title></path></g><g style="mix-blend-mode: multiply;"><path d="M16,326.25707207659605C275,326.25707207659605,275,165.45395199357233,534,165.45395199357233" stroke="#76b7b2" stroke-width="1"><title>Algorithm(r) → Computer vision(v)
160 citations</title></path></g><g style="mix-blend-mode: multiply;"><path d="M16,305.5589869773359C275,305.5589869773359,275,119.03694218472765,534,119.03694218472765" stroke="#9c755f" stroke-width="1"><title>Neuroscience(r) → Artificial intelligence(v)
157 citations</title></path></g><g style="mix-blend-mode: multiply;"><path d="M16,454.46093200763283C275,454.46093200763283,275,142.88950821867357,534,142.88950821867357" stroke="#bab0ab" stroke-width="1"><title>Programming language(r) → Artificial intelligence(v)
153 citations</title></path></g><g style="mix-blend-mode: multiply;"><path d="M16,337.99295303136824C275,337.99295303136824,275,359.12682869672955,534,359.12682869672955" stroke="#76b7b2" stroke-width="1"><title>Algorithm(r) → Data science(v)
151 citations</title></path></g><g style="mix-blend-mode: multiply;"><path d="M16,499.534833115731C275,499.534833115731,275,145.94221820494786,534,145.94221820494786" stroke="#4e79a7" stroke-width="1"><title>Multimedia(r) → Artificial intelligence(v)
150 citations</title></path></g><g style="mix-blend-mode: multiply;"><path d="M16,161.6362023367145C275,161.6362023367145,275,332.2187071072278,534,332.2187071072278" stroke="#f28e2c" stroke-width="1"><title>Computer graphics (images)(r) → Computational science(v)
150 citations</title></path></g><g style="mix-blend-mode: multiply;"><path d="M16,430.5461819155703C275,430.5461819155703,275,141.23447490877436,534,141.23447490877436" stroke="#4e79a7" stroke-width="1"><title>Computational science(r) → Artificial intelligence(v)
148 citations</title></path></g><g style="mix-blend-mode: multiply;"><path d="M16,488.9134110006361C275,488.9134110006361,275,145.32079608985296,534,145.32079608985296" stroke="#f28e2c" stroke-width="1"><title>Pure mathematics(r) → Artificial intelligence(v)
147 citations</title></path></g><g style="mix-blend-mode: multiply;"><path d="M16,442.61340430517896C275,442.61340430517896,275,241.26343276087175,534,241.26343276087175" stroke="#f28e2c" stroke-width="1"><title>Mechanics(r) → Computer graphics (images)(v)
144 citations</title></path></g><g style="mix-blend-mode: multiply;"><path d="M16,510.6856148103512C275,510.6856148103512,275,146.55736332898124,534,146.55736332898124" stroke="#e15759" stroke-width="1"><title>Natural language processing(r) → Artificial intelligence(v)
144 citations</title></path></g><g style="mix-blend-mode: multiply;"><path d="M16,521.2819289611998C275,521.2819289611998,275,147.15367747982987,534,147.15367747982987" stroke="#af7aa1" stroke-width="1"><title>Mathematical analysis(r) → Artificial intelligence(v)
141 citations</title></path></g><g style="mix-blend-mode: multiply;"><path d="M16,403.2774262662783C275,403.2774262662783,275,184.81503799671916,534,184.81503799671916" stroke="#edc949" stroke-width="1"><title>Information retrieval(r) → Data mining(v)
140 citations</title></path></g><g style="mix-blend-mode: multiply;"><path d="M16,478.3191891801413C275,478.3191891801413,275,465.45715739269167,534,465.45715739269167" stroke="#4e79a7" stroke-width="1"><title>Computational biology(r) → Computational biology(v)
137 citations</title></path></g><g style="mix-blend-mode: multiply;"><path d="M16,455.0530614977738C275,455.0530614977738,275,283.577382745807,534,283.577382745807" stroke="#bab0ab" stroke-width="1"><title>Programming language(r) → Human–computer interaction(v)
130 citations</title></path></g><g style="mix-blend-mode: multiply;"><path d="M16,500.1165009541026C275,500.1165009541026,275,284.5984399584882,534,284.5984399584882" stroke="#4e79a7" stroke-width="1"><title>Multimedia(r) → Human–computer interaction(v)
128 citations</title></path></g><g style="mix-blend-mode: multiply;"><path d="M16,531.8447658263867C275,531.8447658263867,275,147.71651434501683,534,147.71651434501683" stroke="#76b7b2" stroke-width="1"><title>Software engineering(r) → Artificial intelligence(v)
128 citations</title></path></g><g style="mix-blend-mode: multiply;"><path d="M16,542.3762177362659C275,542.3762177362659,275,148.24796625489597,534,148.24796625489597" stroke="#59a14f" stroke-width="1"><title>Radiology(r) → Artificial intelligence(v)
126 citations</title></path></g><g style="mix-blend-mode: multiply;"><path d="M16,388.77054668407493C275,388.77054668407493,275,240.27166817314452,534,240.27166817314452" stroke="#ff9da7" stroke-width="1"><title>Optics(r) → Computer graphics (images)(v)
124 citations</title></path></g><g style="mix-blend-mode: multiply;"><path d="M16,552.8951156640219C275,552.8951156640219,275,148.766864182652,534,148.766864182652" stroke="#edc949" stroke-width="1"><title>Parallel computing(r) → Artificial intelligence(v)
122 citations</title></path></g><g style="mix-blend-mode: multiply;"><path d="M16,563.4014596096548C275,563.4014596096548,275,149.2732081282849,534,149.2732081282849" stroke="#af7aa1" stroke-width="1"><title>Statistical physics(r) → Artificial intelligence(v)
120 citations</title></path></g><g style="mix-blend-mode: multiply;"><path d="M16,291.7823306886277C275,291.7823306886277,275,298.08007766730265,534,298.08007766730265" stroke="#59a14f" stroke-width="1"><title>Data science(r) → Information retrieval(v)
120 citations</title></path></g><g style="mix-blend-mode: multiply;"><path d="M16,337.0032807739949C275,337.0032807739949,275,310.8084764487295,534,310.8084764487295" stroke="#76b7b2" stroke-width="1"><title>Algorithm(r) → Theoretical computer science(v)
116 citations</title></path></g><g style="mix-blend-mode: multiply;"><path d="M16,465.5656824344682C275,465.5656824344682,275,284.09000368250145,534,284.09000368250145" stroke="#ff9da7" stroke-width="1"><title>Knowledge management(r) → Human–computer interaction(v)
115 citations</title></path></g><g style="mix-blend-mode: multiply;"><path d="M16,573.8910649124567C275,573.8910649124567,275,149.76281343108693,534,149.76281343108693" stroke="#9c755f" stroke-width="1"><title>Econometrics(r) → Artificial intelligence(v)
114 citations</title></path></g><g style="mix-blend-mode: multiply;"><path d="M16,288.5141106759064C275,288.5141106759064,275,235.0282883063841,534,235.0282883063841" stroke="#59a14f" stroke-width="1"><title>Data science(r) → Computer graphics (images)(v)
112 citations</title></path></g><g style="mix-blend-mode: multiply;"><path d="M16,230.51797730240034C275,230.51797730240034,275,354.25588363295526,534,354.25588363295526" stroke="#af7aa1" stroke-width="1"><title>Statistics(r) → Data science(v)
111 citations</title></path></g><g style="mix-blend-mode: multiply;"><path d="M16,185.11290214589405C275,185.11290214589405,275,203.45427002778615,534,203.45427002778615" stroke="#e15759" stroke-width="1"><title>Human–computer interaction(r) → Algorithm(v)
111 citations</title></path></g><g style="mix-blend-mode: multiply;"><path d="M16,350.72135181279504C275,350.72135181279504,275,280.0350674567306,534,280.0350674567306" stroke="#bab0ab" stroke-width="1"><title>Theoretical computer science(r) → Human–computer interaction(v)
109 citations</title></path></g><g style="mix-blend-mode: multiply;"><path d="M16,584.3534699206588C275,584.3534699206588,275,150.22521843928885,534,150.22521843928885" stroke="#bab0ab" stroke-width="1"><title>Database(r) → Artificial intelligence(v)
107 citations</title></path></g><g style="mix-blend-mode: multiply;"><path d="M16,183.80101101402704C275,183.80101101402704,275,164.89739211944695,534,164.89739211944695" stroke="#e15759" stroke-width="1"><title>Human–computer interaction(r) → Computer vision(v)
106 citations</title></path></g><g style="mix-blend-mode: multiply;"><path d="M16,163.186619128921C275,163.186619128921,275,372.98090120853016,534,372.98090120853016" stroke="#f28e2c" stroke-width="1"><title>Computer graphics (images)(r) → Mechanics(v)
105 citations</title></path></g><g style="mix-blend-mode: multiply;"><path d="M16,351.16701817816613C275,351.16701817816613,275,311.26878912657753,534,311.26878912657753" stroke="#bab0ab" stroke-width="1"><title>Theoretical computer science(r) → Theoretical computer science(v)
104 citations</title></path></g><g style="mix-blend-mode: multiply;"><path d="M16,431.0713568343879C275,431.0713568343879,275,240.74662716346958,534,240.74662716346958" stroke="#4e79a7" stroke-width="1"><title>Computational science(r) → Computer graphics (images)(v)
103 citations</title></path></g><g style="mix-blend-mode: multiply;"><path d="M16,337.4615011214891C275,337.4615011214891,275,332.7480666867531,534,332.7480666867531" stroke="#76b7b2" stroke-width="1"><title>Algorithm(r) → Computational science(v)
103 citations</title></path></g><g style="mix-blend-mode: multiply;"><path d="M16,466.0176257909009C275,466.0176257909009,275,361.6878410498479,534,361.6878410498479" stroke="#ff9da7" stroke-width="1"><title>Knowledge management(r) → Data science(v)
101 citations</title></path></g><g style="mix-blend-mode: multiply;"><path d="M16,230.0744032673831C275,230.0744032673831,275,275.2896622141877,534,275.2896622141877" stroke="#af7aa1" stroke-width="1"><title>Statistics(r) → Human–computer interaction(v)
101 citations</title></path></g><g style="mix-blend-mode: multiply;"><path d="M16,594.7886746342605C275,594.7886746342605,275,150.6604231528907,534,150.6604231528907" stroke="#4e79a7" stroke-width="1"><title>Cartography(r) → Artificial intelligence(v)
101 citations</title></path></g><g style="mix-blend-mode: multiply;"><path d="M16,199.19219309698374C275,199.19219309698374,275,321.69562451876396,534,321.69562451876396" stroke="#e15759" stroke-width="1"><title>Human–computer interaction(r) → World Wide Web(v)
100 citations</title></path></g></g><g font-family="sans-serif" font-size="14"><text x="22" y="51.81170700679587" dy="0.35em" text-anchor="start">Artificial intelligence(r)</text><text x="22" y="147.9921160992267" dy="0.35em" text-anchor="start">Computer graphics (images)(r)</text><text x="22" y="188.48364634595433" dy="0.35em" text-anchor="start">Human–computer interaction(r)</text><text x="22" y="327.0981888788457" dy="0.35em" text-anchor="start">Algorithm(r)</text><text x="22" y="288.13958354256636" dy="0.35em" text-anchor="start">Data science(r)</text><text x="22" y="255.81575775836095" dy="0.35em" text-anchor="start">Data mining(r)</text><text x="22" y="403.2941649091092" dy="0.35em" text-anchor="start">Information retrieval(r)</text><text x="22" y="228.87340564427038" dy="0.35em" text-anchor="start">Statistics(r)</text><text x="22" y="375.0064443774899" dy="0.35em" text-anchor="start">Computer vision(r)</text><text x="22" y="215.27878209634767" dy="0.35em" text-anchor="start">Cognitive psychology(r)</text><text x="22" y="121.01913226875564" dy="0.35em" text-anchor="start">Combinatorics(r)</text><text x="22" y="349.8467577248837" dy="0.35em" text-anchor="start">Theoretical computer science(r)</text><text x="22" y="477.4173947976298" dy="0.35em" text-anchor="start">Computational biology(r)</text><text x="22" y="442.713836162164" dy="0.35em" text-anchor="start">Mechanics(r)</text><text x="22" y="418.89742559673266" dy="0.35em" text-anchor="start">World Wide Web(r)</text><text x="22" y="270.5214087241807" dy="0.35em" text-anchor="start">Machine learning(r)</text><text x="22" y="241.19380000669545" dy="0.35em" text-anchor="start">Geometry(r)</text><text x="22" y="361.80308660573803" dy="0.35em" text-anchor="start">Applied mathematics(r)</text><text x="22" y="109.04188008436273" dy="0.35em" text-anchor="start">Mathematical optimization(r)</text><text x="22" y="388.4106658632119" dy="0.35em" text-anchor="start">Optics(r)</text><text x="22" y="305.5589869773359" dy="0.35em" text-anchor="start">Neuroscience(r)</text><text x="22" y="454.73293495363396" dy="0.35em" text-anchor="start">Programming language(r)</text><text x="22" y="499.8026514010244" dy="0.35em" text-anchor="start">Multimedia(r)</text><text x="22" y="430.76169194201736" dy="0.35em" text-anchor="start">Computational science(r)</text><text x="22" y="488.9134110006361" dy="0.35em" text-anchor="start">Pure mathematics(r)</text><text x="22" y="510.6856148103512" dy="0.35em" text-anchor="start">Natural language processing(r)</text><text x="22" y="521.2819289611998" dy="0.35em" text-anchor="start">Mathematical analysis(r)</text><text x="22" y="531.8447658263867" dy="0.35em" text-anchor="start">Software engineering(r)</text><text x="22" y="542.3762177362659" dy="0.35em" text-anchor="start">Radiology(r)</text><text x="22" y="552.8951156640219" dy="0.35em" text-anchor="start">Parallel computing(r)</text><text x="22" y="563.4014596096547" dy="0.35em" text-anchor="start">Statistical physics(r)</text><text x="22" y="465.77700780020757" dy="0.35em" text-anchor="start">Knowledge management(r)</text><text x="22" y="573.8910649124568" dy="0.35em" text-anchor="start">Econometrics(r)</text><text x="22" y="584.3534699206587" dy="0.35em" text-anchor="start">Database(r)</text><text x="22" y="594.7886746342606" dy="0.35em" text-anchor="start">Cartography(r)</text><text x="528" y="83.29157041947037" dy="0.35em" text-anchor="end">Artificial intelligence(v)</text><text x="528" y="268.2154932878042" dy="0.35em" text-anchor="end">Human–computer interaction(v)</text><text x="528" y="230.21383616216394" dy="0.35em" text-anchor="end">Computer graphics (images)(v)</text><text x="528" y="352.43137156439377" dy="0.35em" text-anchor="end">Data science(v)</text><text x="528" y="201.98545411937997" dy="0.35em" text-anchor="end">Algorithm(v)</text><text x="528" y="180.8291486726256" dy="0.35em" text-anchor="end">Data mining(v)</text><text x="528" y="297.19502192762207" dy="0.35em" text-anchor="end">Information retrieval(v)</text><text x="528" y="163.7110408088112" dy="0.35em" text-anchor="end">Computer vision(v)</text><text x="528" y="373.1629339493156" dy="0.35em" text-anchor="end">Mechanics(v)</text><text x="528" y="310.50508854742054" dy="0.35em" text-anchor="end">Theoretical computer science(v)</text><text x="528" y="5.355696160155333" dy="0.35em" text-anchor="end">Multimedia(v)</text><text x="528" y="332.4342171336749" dy="0.35em" text-anchor="end">Computational science(v)</text><text x="528" y="465.4571573926916" dy="0.35em" text-anchor="end">Computational biology(v)</text><text x="528" y="321.695624518764" dy="0.35em" text-anchor="end">World Wide Web(v)</text></g></svg>