<svg width="560" height="600" viewBox="0,0,560,600" style="max-width: 100%; height: auto; height: intrinsic;" xmlns="http://www.w3.org/2000/svg" xmlns:xlink="http://www.w3.org/1999/xlink"><g stroke="currentColor"><rect x="1" y="29.883753610742474" height="51.38902334296199" width="15" fill="#4e79a7"><title>Human–computer interaction(r)
8,439 citations</title></rect><rect x="1" y="102.24709188851591" height="60.571941603559964" width="15" fill="#f28e2c"><title>Artificial intelligence(r)
9,947 citations</title></rect><rect x="1" y="172.81903349207587" height="59.91427902256228" width="15" fill="#e15759"><title>Computer graphics (images)(r)
9,839 citations</title></rect><rect x="1" y="242.73331251463816" height="43.643219611210895" width="15" fill="#76b7b2"><title>Data mining(r)
7,167 citations</title></rect><rect x="1" y="325.1686314310251" height="41.67023186821763" width="15" fill="#76b7b2"><title>Data science(r)
6,843 citations</title></rect><rect x="1" y="414.511593410883" height="37.5537512686393" width="15" fill="#59a14f"><title>Algorithm(r)
6,167 citations</title></rect><rect x="1" y="519.6384573346868" height="24.97899914122877" width="15" fill="#edc949"><title>Theoretical computer science(r)
4,102 citations</title></rect><rect x="1" y="296.37653212584905" height="18.792099305176066" width="15" fill="#e15759"><title>Computer vision(r)
3,086 citations</title></rect><rect x="1" y="489.09868061519256" height="20.53977671949417" width="15" fill="#af7aa1"><title>Information retrieval(r)
3,373 citations</title></rect><rect x="1" y="387.83753610742446" height="5.888515887266749" width="15" fill="#ff9da7"><title>Statistics(r)
967 citations</title></rect><rect x="1" y="5" height="3.3552970567569673" width="15" fill="#9c755f"><title>Cognitive psychology(r)
551 citations</title></rect><rect x="1" y="554.6174564759156" height="5.3161058630649904" width="15" fill="#bab0ab"><title>World Wide Web(r)
873 citations</title></rect><rect x="1" y="462.0653446795223" height="3.854633460847822" width="15" fill="#4e79a7"><title>Machine learning(r)
633 citations</title></rect><rect x="1" y="18.355297056756967" height="1.5284565539855066" width="15" fill="#f28e2c"><title>Programming language(r)
251 citations</title></rect><rect x="1" y="475.9199781403701" height="3.178702474822444" width="15" fill="#e15759"><title>Geometry(r)
522 citations</title></rect><rect x="1" y="591.7969396518074" height="3.2030603481927074" width="15" fill="#76b7b2"><title>Combinatorics(r)
526 citations</title></rect><rect x="1" y="376.83886329924275" height="0.9986728081817091" width="15" fill="#59a14f"><title>Computational science(r)
164 citations</title></rect><rect x="1" y="91.27277695370447" height="0.9743149348114457" width="15" fill="#edc949"><title>Multimedia(r)
160 citations</title></rect><rect x="1" y="569.9335623389806" height="0.9682254664688799" width="15" fill="#59a14f"><title>Computational biology(r)
159 citations</title></rect><rect x="1" y="580.9017878054494" height="0.895151846357976" width="15" fill="#af7aa1"><title>Applied mathematics(r)
147 citations</title></rect><rect x="1" y="403.7260519946912" height="0.7855414161917906" width="15" fill="#ff9da7"><title>Parallel computing(r)
129 citations</title></rect><rect x="544" y="15.84643609961745" height="66.88063080646418" width="15" fill="#4e79a7"><title>Human–computer interaction(v)
10,983 citations</title></rect><rect x="544" y="103.86579748614258" height="65.11468498711847" width="15" fill="#f28e2c"><title>Artificial intelligence(v)
10,693 citations</title></rect><rect x="544" y="207.8152080568351" height="43.24740416894372" width="15" fill="#e15759"><title>Computer graphics (images)(v)
7,102 citations</title></rect><rect x="544" y="261.0626122257788" height="69.66351783901933" width="15" fill="#76b7b2"><title>Data mining(v)
11,440 citations</title></rect><rect x="544" y="340.72613006479816" height="44.4165820907175" width="15" fill="#76b7b2"><title>Data science(v)
7,294 citations</title></rect><rect x="544" y="451.50402061050823" height="30.05761573893352" width="15" fill="#59a14f"><title>Algorithm(v)
4,936 citations</title></rect><rect x="544" y="178.98048247326105" height="18.834725583574055" width="15" fill="#e15759"><title>Computer vision(v)
3,093 citations</title></rect><rect x="544" y="491.56163634944176" height="23.438363650558244" width="15" fill="#edc949"><title>Theoretical computer science(v)
3,849 citations</title></rect><rect x="544" y="425.4278241861192" height="16.076196424389025" width="15" fill="#af7aa1"><title>Information retrieval(v)
2,640 citations</title></rect><rect x="544" y="395.14271215551565" height="7.441330314622576" width="15" fill="#4e79a7"><title>Machine learning(v)
1,222 citations</title></rect><rect x="544" y="412.58404247013823" height="2.843781715980981" width="15" fill="#59a14f"><title>Computational science(v)
467 citations</title></rect><rect x="544" y="92.72706690608163" height="1.138730580060951" width="15" fill="#ff9da7"><title>Parallel computing(v)
187 citations</title></rect><rect x="544" y="5" height="0.8464360996174491" width="15" fill="#f28e2c"><title>Programming language(v)
139 citations</title></rect></g><g fill="none" stroke-opacity="0.5"><g style="mix-blend-mode: multiply;"><path d="M16,42.702084471855756C280,42.702084471855756,280,31.605980170192822,544,31.605980170192822" stroke="#4e79a7" stroke-width="23.943789522991647"><title>Human–computer interaction(r) → Human–computer interaction(v)
3,932 citations</title></path></g><g style="mix-blend-mode: multiply;"><path d="M16,119.91263955031621C280,119.91263955031621,280,120.72144585838086,544,120.72144585838086" stroke="#f28e2c" stroke-width="22.993832461550475"><title>Artificial intelligence(r) → Artificial intelligence(v)
3,776 citations</title></path></g><g style="mix-blend-mode: multiply;"><path d="M16,204.1067218362089C280,204.1067218362089,280,223.7208993676322,544,223.7208993676322" stroke="#e15759" stroke-width="20.54586618783668"><title>Computer graphics (images)(r) → Computer graphics (images)(v)
3,374 citations</title></path></g><g style="mix-blend-mode: multiply;"><path d="M16,263.81505191662114C280,263.81505191662114,280,290.35295495354836,544,290.35295495354836" stroke="#76b7b2" stroke-width="18.49980482473261"><title>Data mining(r) → Data mining(v)
3,038 citations</title></path></g><g style="mix-blend-mode: multiply;"><path d="M16,355.3023655242408C280,355.3023655242408,280,367.65680380982116,544,367.65680380982116" stroke="#76b7b2" stroke-width="12.392068077133267"><title>Data science(r) → Data science(v)
2,035 citations</title></path></g><g style="mix-blend-mode: multiply;"><path d="M16,442.2125849012413C280,442.2125849012413,280,470.6675774845811,544,470.6675774845811" stroke="#59a14f" stroke-width="10.693106409555782"><title>Algorithm(r) → Algorithm(v)
1,756 citations</title></path></g><g style="mix-blend-mode: multiply;"><path d="M16,143.23834803653685C280,143.23834803653685,280,271.36294792723874,544,271.36294792723874" stroke="#f28e2c" stroke-width="9.688344133031462"><title>Artificial intelligence(r) → Data mining(v)
1,591 citations</title></path></g><g style="mix-blend-mode: multiply;"><path d="M16,344.5331407604029C280,344.5331407604029,280,305.4791943164963,544,305.4791943164963" stroke="#76b7b2" stroke-width="9.146381450542588"><title>Data science(r) → Data mining(v)
1,502 citations</title></path></g><g style="mix-blend-mode: multiply;"><path d="M16,329.6291669919588C280,329.6291669919588,280,67.29939886017642,544,67.29939886017642" stroke="#76b7b2" stroke-width="8.921071121867438"><title>Data science(r) → Human–computer interaction(v)
1,465 citations</title></path></g><g style="mix-blend-mode: multiply;"><path d="M16,72.32430322429545C280,72.32430322429545,280,345.0039815754547,544,345.0039815754547" stroke="#4e79a7" stroke-width="8.555703021313139"><title>Human–computer interaction(r) → Data science(v)
1,405 citations</title></path></g><g style="mix-blend-mode: multiply;"><path d="M16,250.00413771566866C280,250.00413771566866,280,142.44257943633386,544,142.44257943633386" stroke="#76b7b2" stroke-width="7.088141150753377"><title>Data mining(r) → Artificial intelligence(v)
1,164 citations</title></path></g><g style="mix-blend-mode: multiply;"><path d="M16,190.3262549769693C280,190.3262549769693,280,187.49355921617618,544,187.49355921617618" stroke="#e15759" stroke-width="7.015067530642518"><title>Computer graphics (images)(r) → Computer vision(v)
1,152 citations</title></path></g><g style="mix-blend-mode: multiply;"><path d="M16,183.47864782574752C280,183.47864782574752,280,135.55843547505665,544,135.55843547505665" stroke="#e15759" stroke-width="6.680146771801078"><title>Computer graphics (images)(r) → Artificial intelligence(v)
1,097 citations</title></path></g><g style="mix-blend-mode: multiply;"><path d="M16,541.3169646342418C280,541.3169646342418,280,510.53641970489485,544,510.53641970489485" stroke="#edc949" stroke-width="6.600983683347646"><title>Theoretical computer science(r) → Theoretical computer science(v)
1,084 citations</title></path></g><g style="mix-blend-mode: multiply;"><path d="M16,227.35326723397606C280,227.35326723397606,280,458.5586696853775,544,458.5586696853775" stroke="#e15759" stroke-width="6.290420797876494"><title>Computer graphics (images)(r) → Algorithm(v)
1,033 citations</title></path></g><g style="mix-blend-mode: multiply;"><path d="M16,175.90943867593097C280,175.90943867593097,280,53.811226481380274,544,53.811226481380274" stroke="#e15759" stroke-width="6.180810367710204"><title>Computer graphics (images)(r) → Human–computer interaction(v)
1,015 citations</title></path></g><g style="mix-blend-mode: multiply;"><path d="M16,105.33140760402844C280,105.33140760402844,280,47.63650558201264,544,47.63650558201264" stroke="#f28e2c" stroke-width="6.1686314310250605"><title>Artificial intelligence(r) → Human–computer interaction(v)
1,013 citations</title></path></g><g style="mix-blend-mode: multiply;"><path d="M16,276.0701069560465C280,276.0701069560465,280,358.45561714419546,544,358.45561714419546" stroke="#76b7b2" stroke-width="6.010305254118198"><title>Data mining(r) → Data science(v)
987 citations</title></path></g><g style="mix-blend-mode: multiply;"><path d="M16,426.538293387462C280,426.538293387462,280,246.03271137481465,544,246.03271137481465" stroke="#59a14f" stroke-width="5.992036849090484"><title>Algorithm(r) → Computer graphics (images)(v)
984 citations</title></path></g><g style="mix-blend-mode: multiply;"><path d="M16,529.2232805058944C280,529.2232805058944,280,325.86064485908366,544,325.86064485908366" stroke="#edc949" stroke-width="5.858068545553908"><title>Theoretical computer science(r) → Data mining(v)
962 citations</title></path></g><g style="mix-blend-mode: multiply;"><path d="M16,418.45452416269814C280,418.45452416269814,280,159.179483175892,544,159.179483175892" stroke="#59a14f" stroke-width="5.644937153563901"><title>Algorithm(r) → Artificial intelligence(v)
927 citations</title></path></g><g style="mix-blend-mode: multiply;"><path d="M16,65.31836989616679C280,65.31836989616679,280,263.79069404325094,544,263.79069404325094" stroke="#4e79a7" stroke-width="5.45616363494418"><title>Human–computer interaction(r) → Data mining(v)
896 citations</title></path></g><g style="mix-blend-mode: multiply;"><path d="M16,309.63634944179876C280,309.63634944179876,280,237.72972128971824,544,237.72972128971824" stroke="#e15759" stroke-width="5.437895229916466"><title>Computer vision(r) → Computer graphics (images)(v)
893 citations</title></path></g><g style="mix-blend-mode: multiply;"><path d="M16,432.2228120852526C280,432.2228120852526,280,315.2619252088377,544,315.2619252088377" stroke="#59a14f" stroke-width="5.377000546490749"><title>Algorithm(r) → Data mining(v)
883 citations</title></path></g><g style="mix-blend-mode: multiply;"><path d="M16,336.62292138340234C280,336.62292138340234,280,152.30142868295735,544,152.30142868295735" stroke="#76b7b2" stroke-width="5.066437661019596"><title>Data science(r) → Artificial intelligence(v)
832 citations</title></path></g><g style="mix-blend-mode: multiply;"><path d="M16,216.82762120384103C280,216.82762120384103,280,278.6550862674683,544,278.6550862674683" stroke="#e15759" stroke-width="4.8959325474275905"><title>Computer graphics (images)(r) → Data mining(v)
804 citations</title></path></g><g style="mix-blend-mode: multiply;"><path d="M16,501.7282379576862C280,501.7282379576862,280,378.29206027012253,544,378.29206027012253" stroke="#af7aa1" stroke-width="4.859395737372161"><title>Information retrieval(r) → Data science(v)
798 citations</title></path></g><g style="mix-blend-mode: multiply;"><path d="M16,304.64298540089004C280,304.64298540089004,280,193.27550940744794,544,193.27550940744794" stroke="#e15759" stroke-width="4.5488328519010075"><title>Computer vision(r) → Computer vision(v)
747 citations</title></path></g><g style="mix-blend-mode: multiply;"><path d="M16,449.8122413927707C280,449.8122413927707,280,503.7588414396127,544,503.7588414396127" stroke="#59a14f" stroke-width="4.506206573503006"><title>Algorithm(r) → Theoretical computer science(v)
740 citations</title></path></g><g style="mix-blend-mode: multiply;"><path d="M16,56.80529315325165C280,56.80529315325165,280,107.09321570770554,544,107.09321570770554" stroke="#4e79a7" stroke-width="4.262627839800141"><title>Human–computer interaction(r) → Artificial intelligence(v)
700 citations</title></path></g><g style="mix-blend-mode: multiply;"><path d="M16,506.28620501210105C280,506.28620501210105,280,437.0678429229449,544,437.0678429229449" stroke="#af7aa1" stroke-width="4.2565383714575695"><title>Information retrieval(r) → Information retrieval(v)
699 citations</title></path></g><g style="mix-blend-mode: multiply;"><path d="M16,150.09813412444376C280,150.09813412444376,280,351.29744710750253,544,351.29744710750253" stroke="#f28e2c" stroke-width="4.031228042782419"><title>Artificial intelligence(r) → Data science(v)
662 citations</title></path></g><g style="mix-blend-mode: multiply;"><path d="M16,497.30423920680784C280,497.30423920680784,280,320.93730970411445,544,320.93730970411445" stroke="#af7aa1" stroke-width="3.9886017643844176"><title>Information retrieval(r) → Data mining(v)
655 citations</title></path></g><g style="mix-blend-mode: multiply;"><path d="M16,491.0655788898432C280,491.0655788898432,280,75.7180888437817,544,75.7180888437817" stroke="#af7aa1" stroke-width="3.933796549301273"><title>Information retrieval(r) → Human–computer interaction(v)
646 citations</title></path></g><g style="mix-blend-mode: multiply;"><path d="M16,158.86087906940435C280,158.86087906940435,280,453.45873994847375,544,453.45873994847375" stroke="#f28e2c" stroke-width="3.9094386759309865"><title>Artificial intelligence(r) → Algorithm(v)
642 citations</title></path></g><g style="mix-blend-mode: multiply;"><path d="M16,300.4777890545711C280,300.4777890545711,280,147.87742993207905,544,147.87742993207905" stroke="#e15759" stroke-width="3.781559840736982"><title>Computer vision(r) → Artificial intelligence(v)
621 citations</title></path></g><g style="mix-blend-mode: multiply;"><path d="M16,133.27293309391837C280,133.27293309391837,280,182.122648138028,544,182.122648138028" stroke="#f28e2c" stroke-width="3.7267546256538373"><title>Artificial intelligence(r) → Computer vision(v)
612 citations</title></path></g><g style="mix-blend-mode: multiply;"><path d="M16,244.59668982746507C280,244.59668982746507,280,58.76500897806229,544,58.76500897806229" stroke="#76b7b2" stroke-width="3.7267546256538373"><title>Data mining(r) → Human–computer interaction(v)
612 citations</title></path></g><g style="mix-blend-mode: multiply;"><path d="M16,136.76524318838318C280,136.76524318838318,280,211.81903349207593,544,211.81903349207593" stroke="#f28e2c" stroke-width="3.2578655632758218"><title>Artificial intelligence(r) → Computer graphics (images)(v)
535 citations</title></path></g><g style="mix-blend-mode: multiply;"><path d="M16,153.59348895307988C280,153.59348895307988,280,396.6224529627606,544,396.6224529627606" stroke="#f28e2c" stroke-width="2.959481614489812"><title>Artificial intelligence(r) → Machine learning(v)
486 citations</title></path></g><g style="mix-blend-mode: multiply;"><path d="M16,78.0210008587712C280,78.0210008587712,280,426.8466703099384,544,426.8466703099384" stroke="#4e79a7" stroke-width="2.8376922476383792"><title>Human–computer interaction(r) → Information retrieval(v)
466 citations</title></path></g><g style="mix-blend-mode: multiply;"><path d="M16,521.0390350534783C280,521.0390350534783,280,79.08556483722383,544,79.08556483722383" stroke="#edc949" stroke-width="2.8011554375829495"><title>Theoretical computer science(r) → Human–computer interaction(v)
460 citations</title></path></g><g style="mix-blend-mode: multiply;"><path d="M16,523.8219220860335C280,523.8219220860335,280,167.59817315949726,544,167.59817315949726" stroke="#edc949" stroke-width="2.7646186275275197"><title>Theoretical computer science(r) → Artificial intelligence(v)
454 citations</title></path></g><g style="mix-blend-mode: multiply;"><path d="M16,391.49121711296743C280,391.49121711296743,280,311.31290498868,544,311.31290498868" stroke="#ff9da7" stroke-width="2.5210398938246548"><title>Statistics(r) → Data mining(v)
414 citations</title></path></g><g style="mix-blend-mode: multiply;"><path d="M16,533.4097899914125C280,533.4097899914125,280,381.9792333515496,544,381.9792333515496" stroke="#edc949" stroke-width="2.514950425482083"><title>Theoretical computer science(r) → Data science(v)
413 citations</title></path></g><g style="mix-blend-mode: multiply;"><path d="M16,363.93418689983616C280,363.93418689983616,280,433.7399484737295,544,433.7399484737295" stroke="#76b7b2" stroke-width="2.3992505269732223"><title>Data science(r) → Information retrieval(v)
394 citations</title></path></g><g style="mix-blend-mode: multiply;"><path d="M16,61.40284175189323C280,61.40284175189323,280,209.00265438363658,544,209.00265438363658" stroke="#4e79a7" stroke-width="2.3748926536029358"><title>Human–computer interaction(r) → Computer graphics (images)(v)
390 citations</title></path></g><g style="mix-blend-mode: multiply;"><path d="M16,494.17120774455475C280,494.17120774455475,280,165.07713326567261,544,165.07713326567261" stroke="#af7aa1" stroke-width="2.2774611601217893"><title>Information retrieval(r) → Artificial intelligence(v)
374 citations</title></path></g><g style="mix-blend-mode: multiply;"><path d="M16,422.4096338511984C280,422.4096338511984,280,196.68256694511678,544,196.68256694511678" stroke="#59a14f" stroke-width="2.265282223436646"><title>Algorithm(r) → Computer vision(v)
372 citations</title></path></g><g style="mix-blend-mode: multiply;"><path d="M16,6.1295963775470375C280,6.1295963775470375,280,16.976032477164487,544,16.976032477164487" stroke="#9c755f" stroke-width="2.2591927550940745"><title>Cognitive psychology(r) → Human–computer interaction(v)
371 citations</title></path></g><g style="mix-blend-mode: multiply;"><path d="M16,555.7379186509487C280,555.7379186509487,280,81.60660473104848,544,81.60660473104848" stroke="#bab0ab" stroke-width="2.2409243500663596"><title>World Wide Web(r) → Human–computer interaction(v)
368 citations</title></path></g><g style="mix-blend-mode: multiply;"><path d="M16,231.6158950737762C280,231.6158950737762,280,496.5154188461238,544,496.5154188461238" stroke="#e15759" stroke-width="2.234834881723788"><title>Computer graphics (images)(r) → Theoretical computer science(v)
367 citations</title></path></g><g style="mix-blend-mode: multiply;"><path d="M16,536.9112342883913C280,536.9112342883913,280,478.4894995706144,544,478.4894995706144" stroke="#edc949" stroke-width="2.2104770083535015"><title>Theoretical computer science(r) → Algorithm(v)
363 citations</title></path></g><g style="mix-blend-mode: multiply;"><path d="M16,297.4817706300258C280,297.4817706300258,280,61.733624795065964,544,61.733624795065964" stroke="#e15759" stroke-width="2.2104770083535015"><title>Computer vision(r) → Human–computer interaction(v)
363 citations</title></path></g><g style="mix-blend-mode: multiply;"><path d="M16,285.2926067608712C280,285.2926067608712,280,498.7167616519634,544,498.7167616519634" stroke="#76b7b2" stroke-width="2.1678507299555"><title>Data mining(r) → Theoretical computer science(v)
356 citations</title></path></g><g style="mix-blend-mode: multiply;"><path d="M16,220.34428917167614C280,220.34428917167614,280,354.38176282301504,544,354.38176282301504" stroke="#e15759" stroke-width="2.137403388242642"><title>Computer graphics (images)(r) → Data science(v)
351 citations</title></path></g><g style="mix-blend-mode: multiply;"><path d="M16,283.1552033726286C280,283.1552033726286,280,462.7573581075806,544,462.7573581075806" stroke="#76b7b2" stroke-width="2.106956046529784"><title>Data mining(r) → Algorithm(v)
346 citations</title></path></g><g style="mix-blend-mode: multiply;"><path d="M16,161.81731594972288C280,161.81731594972288,280,494.3962838629089,544,494.3962838629089" stroke="#f28e2c" stroke-width="2.0034350847060662"><title>Artificial intelligence(r) → Theoretical computer science(v)
329 citations</title></path></g><g style="mix-blend-mode: multiply;"><path d="M16,222.37512686392375C280,222.37512686392375,280,413.54617846826454,544,413.54617846826454" stroke="#e15759" stroke-width="1.924271996252635"><title>Computer graphics (images)(r) → Computational science(v)
316 citations</title></path></g><g style="mix-blend-mode: multiply;"><path d="M16,557.8113826215944C280,557.8113826215944,280,384.18971035990313,544,384.18971035990313" stroke="#bab0ab" stroke-width="1.90600359122492"><title>World Wide Web(r) → Data science(v)
313 citations</title></path></g><g style="mix-blend-mode: multiply;"><path d="M16,80.35631196814741C280,80.35631196814741,280,492.47810133499877,544,492.47810133499877" stroke="#4e79a7" stroke-width="1.8329299711140605"><title>Human–computer interaction(r) → Theoretical computer science(v)
301 citations</title></path></g><g style="mix-blend-mode: multiply;"><path d="M16,155.98969474588185C280,155.98969474588185,280,429.1819814193146,544,429.1819814193146" stroke="#f28e2c" stroke-width="1.8329299711140605"><title>Artificial intelligence(r) → Information retrieval(v)
301 citations</title></path></g><g style="mix-blend-mode: multiply;"><path d="M16,465.02482629401214C280,465.02482629401214,280,401.68889062378014,544,401.68889062378014" stroke="#4e79a7" stroke-width="1.7903036927160592"><title>Machine learning(r) → Machine learning(v)
294 citations</title></path></g><g style="mix-blend-mode: multiply;"><path d="M16,365.9863377312828C280,365.9863377312828,280,500.65321258490115,544,500.65321258490115" stroke="#76b7b2" stroke-width="1.7050511359200564"><title>Data science(r) → Theoretical computer science(v)
280 citations</title></path></g><g style="mix-blend-mode: multiply;"><path d="M16,281.31618393317194C280,281.31618393317194,280,431.75478179405115,544,431.75478179405115" stroke="#76b7b2" stroke-width="1.5710828323834805"><title>Data mining(r) → Information retrieval(v)
258 citations</title></path></g><g style="mix-blend-mode: multiply;"><path d="M16,19.119525333749706C280,19.119525333749706,280,18.86985713170426,544,18.86985713170426" stroke="#f28e2c" stroke-width="1.528456553985479"><title>Programming language(r) → Human–computer interaction(v)
251 citations</title></path></g><g style="mix-blend-mode: multiply;"><path d="M16,389.4695136232337C280,389.4695136232337,280,155.59583105628857,544,155.59583105628857" stroke="#ff9da7" stroke-width="1.5223670856429075"><title>Statistics(r) → Artificial intelligence(v)
250 citations</title></path></g><g style="mix-blend-mode: multiply;"><path d="M16,314.41353735654627C280,314.41353735654627,280,464.5659302053244,544,464.5659302053244" stroke="#e15759" stroke-width="1.5101881489577642"><title>Computer vision(r) → Algorithm(v)
248 citations</title></path></g><g style="mix-blend-mode: multiply;"><path d="M16,279.8029510500429C280,279.8029510500429,280,398.82988523694274,544,398.82988523694274" stroke="#76b7b2" stroke-width="1.4553829338746196"><title>Data mining(r) → Machine learning(v)
239 citations</title></path></g><g style="mix-blend-mode: multiply;"><path d="M16,478.41361542665317C280,478.41361542665317,280,476.6991958778983,544,476.6991958778983" stroke="#e15759" stroke-width="1.3701303770786166"><title>Geometry(r) → Algorithm(v)
225 citations</title></path></g><g style="mix-blend-mode: multiply;"><path d="M16,313.0068701694122C280,313.0068701694122,280,300.2544304785699,544,300.2544304785699" stroke="#e15759" stroke-width="1.3031462253103288"><title>Computer vision(r) → Data mining(v)
214 citations</title></path></g><g style="mix-blend-mode: multiply;"><path d="M16,59.57600124912173C280,59.57600124912173,280,179.61987664923106,544,179.61987664923106" stroke="#4e79a7" stroke-width="1.2787883519400423"><title>Human–computer interaction(r) → Computer vision(v)
210 citations</title></path></g><g style="mix-blend-mode: multiply;"><path d="M16,362.1164805995785C280,362.1164805995785,280,400.17565774065105,544,400.17565774065105" stroke="#76b7b2" stroke-width="1.2361620735420409"><title>Data science(r) → Machine learning(v)
203 citations</title></path></g><g style="mix-blend-mode: multiply;"><path d="M16,509.02646576625824C280,509.02646576625824,280,506.6239362947926,544,506.6239362947926" stroke="#af7aa1" stroke-width="1.2239831368568976"><title>Information retrieval(r) → Theoretical computer science(v)
201 citations</title></path></g><g style="mix-blend-mode: multiply;"><path d="M16,559.3489733780938C280,559.3489733780938,280,440.91943164962146,544,440.91943164962146" stroke="#bab0ab" stroke-width="1.1691779217737528"><title>World Wide Web(r) → Information retrieval(v)
192 citations</title></path></g><g style="mix-blend-mode: multiply;"><path d="M16,594.4184557732844C280,594.4184557732844,280,514.4184557732842,544,514.4184557732842" stroke="#76b7b2" stroke-width="1.1630884534311812"><title>Combinatorics(r) → Theoretical computer science(v)
191 citations</title></path></g><g style="mix-blend-mode: multiply;"><path d="M16,535.2366304941839C280,535.2366304941839,280,439.76547739870415,544,439.76547739870415" stroke="#edc949" stroke-width="1.1387305800608947"><title>Theoretical computer science(r) → Information retrieval(v)
187 citations</title></path></g><g style="mix-blend-mode: multiply;"><path d="M16,179.56920914981652C280,179.56920914981652,280,93.29643219611208,544,93.29643219611208" stroke="#e15759" stroke-width="1.1387305800608947"><title>Computer graphics (images)(r) → Parallel computing(v)
187 citations</title></path></g><g style="mix-blend-mode: multiply;"><path d="M16,415.07182449839956C280,415.07182449839956,280,73.19095948161447,544,73.19095948161447" stroke="#59a14f" stroke-width="1.1204621750331798"><title>Algorithm(r) → Human–computer interaction(v)
184 citations</title></path></g><g style="mix-blend-mode: multiply;"><path d="M16,7.807244905925522C280,7.807244905925522,280,104.41384963697404,544,104.41384963697404" stroke="#9c755f" stroke-width="1.0961043016628933"><title>Cognitive psychology(r) → Artificial intelligence(v)
180 citations</title></path></g><g style="mix-blend-mode: multiply;"><path d="M16,525.7492388164574C280,525.7492388164574,280,250.51760480911867,544,250.51760480911867" stroke="#edc949" stroke-width="1.0900148333203217"><title>Theoretical computer science(r) → Computer graphics (images)(v)
179 citations</title></path></g><g style="mix-blend-mode: multiply;"><path d="M16,593.3010383324225C280,593.3010383324225,280,481.0257631352955,544,481.0257631352955" stroke="#76b7b2" stroke-width="1.0717464282926068"><title>Combinatorics(r) → Algorithm(v)
176 citations</title></path></g><g style="mix-blend-mode: multiply;"><path d="M16,462.6012178936686C280,462.6012178936686,280,162.53782496682024,544,162.53782496682024" stroke="#4e79a7" stroke-width="1.0717464282926068"><title>Machine learning(r) → Artificial intelligence(v)
176 citations</title></path></g><g style="mix-blend-mode: multiply;"><path d="M16,435.4289171676166C280,435.4289171676166,280,375.3447575923179,544,375.3447575923179" stroke="#59a14f" stroke-width="1.035209618237177"><title>Algorithm(r) → Data science(v)
170 citations</title></path></g><g style="mix-blend-mode: multiply;"><path d="M16,254.0566788976501C280,254.0566788976501,280,234.50230306815527,544,234.50230306815527" stroke="#76b7b2" stroke-width="1.0169412132094622"><title>Data mining(r) → Computer graphics (images)(v)
167 citations</title></path></g><g style="mix-blend-mode: multiply;"><path d="M16,377.3381997033336C280,377.3381997033336,280,241.75181512998682,544,241.75181512998682" stroke="#59a14f" stroke-width="1"><title>Computational science(r) → Computer graphics (images)(v)
164 citations</title></path></g><g style="mix-blend-mode: multiply;"><path d="M16,463.6333827777345C280,463.6333827777345,280,318.44671715200263,544,318.44671715200263" stroke="#4e79a7" stroke-width="1"><title>Machine learning(r) → Data mining(v)
163 citations</title></path></g><g style="mix-blend-mode: multiply;"><path d="M16,91.7599344211102C280,91.7599344211102,280,44.06503239909438,544,44.06503239909438" stroke="#edc949" stroke-width="1"><title>Multimedia(r) → Human–computer interaction(v)
160 citations</title></path></g><g style="mix-blend-mode: multiply;"><path d="M16,393.2388945272855C280,393.2388945272855,280,374.33999531579354,544,374.33999531579354" stroke="#ff9da7" stroke-width="1"><title>Statistics(r) → Data science(v)
160 citations</title></path></g><g style="mix-blend-mode: multiply;"><path d="M16,592.2810523850419C280,592.2810523850419,280,330.24201733156394,544,330.24201733156394" stroke="#76b7b2" stroke-width="1"><title>Combinatorics(r) → Data mining(v)
159 citations</title></path></g><g style="mix-blend-mode: multiply;"><path d="M16,570.417675072215C280,570.417675072215,280,329.27379186509506,544,329.27379186509506" stroke="#59a14f" stroke-width="1"><title>Computational biology(r) → Data mining(v)
159 citations</title></path></g><g style="mix-blend-mode: multiply;"><path d="M16,477.2566164415646C280,477.2566164415646,280,249.5006635959092,544,249.5006635959092" stroke="#e15759" stroke-width="1"><title>Geometry(r) → Computer graphics (images)(v)
155 citations</title></path></g><g style="mix-blend-mode: multiply;"><path d="M16,436.4062768365993C280,436.4062768365993,280,414.96806932625503,544,414.96806932625503" stroke="#59a14f" stroke-width="1"><title>Algorithm(r) → Computational science(v)
151 citations</title></path></g><g style="mix-blend-mode: multiply;"><path d="M16,581.3493637286284C280,581.3493637286284,280,480.04231399797015,544,480.04231399797015" stroke="#af7aa1" stroke-width="1"><title>Applied mathematics(r) → Algorithm(v)
147 citations</title></path></g><g style="mix-blend-mode: multiply;"><path d="M16,388.2729330939183C280,388.2729330939183,280,72.19533140760402,544,72.19533140760402" stroke="#ff9da7" stroke-width="1"><title>Statistics(r) → Human–computer interaction(v)
143 citations</title></path></g><g style="mix-blend-mode: multiply;"><path d="M16,223.77265984854395C280,223.77265984854395,280,430.5338433913655,544,430.5338433913655" stroke="#e15759" stroke-width="1"><title>Computer graphics (images)(r) → Information retrieval(v)
143 citations</title></path></g><g style="mix-blend-mode: multiply;"><path d="M16,476.3523303926927C280,476.3523303926927,280,163.50605043328912,544,163.50605043328912" stroke="#e15759" stroke-width="1"><title>Geometry(r) → Artificial intelligence(v)
142 citations</title></path></g><g style="mix-blend-mode: multiply;"><path d="M16,30.306971660551202C280,30.306971660551202,280,5.423218049808728,544,5.423218049808728" stroke="#4e79a7" stroke-width="1"><title>Human–computer interaction(r) → Programming language(v)
139 citations</title></path></g><g style="mix-blend-mode: multiply;"><path d="M16,339.5580451245219C280,339.5580451245219,280,240.8505738152862,544,240.8505738152862" stroke="#76b7b2" stroke-width="1"><title>Data science(r) → Computer graphics (images)(v)
132 citations</title></path></g><g style="mix-blend-mode: multiply;"><path d="M16,404.1188227027871C280,404.1188227027871,280,242.64392224217355,544,242.64392224217355" stroke="#ff9da7" stroke-width="1"><title>Parallel computing(r) → Computer graphics (images)(v)
129 citations</title></path></g></g><g font-family="sans-serif" font-size="14"><text x="22" y="55.57826528222347" dy="0.35em" text-anchor="start">Human–computer interaction(r)</text><text x="22" y="132.53306269029588" dy="0.35em" text-anchor="start">Artificial intelligence(r)</text><text x="22" y="202.77617300335703" dy="0.35em" text-anchor="start">Computer graphics (images)(r)</text><text x="22" y="264.5549223202436" dy="0.35em" text-anchor="start">Data mining(r)</text><text x="22" y="346.0037473651339" dy="0.35em" text-anchor="start">Data science(r)</text><text x="22" y="433.28846904520265" dy="0.35em" text-anchor="start">Algorithm(r)</text><text x="22" y="532.1279569053012" dy="0.35em" text-anchor="start">Theoretical computer science(r)</text><text x="22" y="305.7725817784371" dy="0.35em" text-anchor="start">Computer vision(r)</text><text x="22" y="499.36856897493965" dy="0.35em" text-anchor="start">Information retrieval(r)</text><text x="22" y="390.78179405105783" dy="0.35em" text-anchor="start">Statistics(r)</text><text x="22" y="6.677648528378484" dy="0.35em" text-anchor="start">Cognitive psychology(r)</text><text x="22" y="557.275509407448" dy="0.35em" text-anchor="start">World Wide Web(r)</text><text x="22" y="463.9926614099462" dy="0.35em" text-anchor="start">Machine learning(r)</text><text x="22" y="19.11952533374972" dy="0.35em" text-anchor="start">Programming language(r)</text><text x="22" y="477.50932937778134" dy="0.35em" text-anchor="start">Geometry(r)</text><text x="22" y="593.3984698259037" dy="0.35em" text-anchor="start">Combinatorics(r)</text><text x="22" y="377.3381997033336" dy="0.35em" text-anchor="start">Computational science(r)</text><text x="22" y="91.75993442111019" dy="0.35em" text-anchor="start">Multimedia(r)</text><text x="22" y="570.4176750722149" dy="0.35em" text-anchor="start">Computational biology(r)</text><text x="22" y="581.3493637286284" dy="0.35em" text-anchor="start">Applied mathematics(r)</text><text x="22" y="404.1188227027871" dy="0.35em" text-anchor="start">Parallel computing(r)</text><text x="538" y="49.28675150284954" dy="0.35em" text-anchor="end">Human–computer interaction(v)</text><text x="538" y="136.42313997970183" dy="0.35em" text-anchor="end">Artificial intelligence(v)</text><text x="538" y="229.43891014130696" dy="0.35em" text-anchor="end">Computer graphics (images)(v)</text><text x="538" y="295.89437114528846" dy="0.35em" text-anchor="end">Data mining(v)</text><text x="538" y="362.9344211101569" dy="0.35em" text-anchor="end">Data science(v)</text><text x="538" y="466.532828479975" dy="0.35em" text-anchor="end">Algorithm(v)</text><text x="538" y="188.3978452650481" dy="0.35em" text-anchor="end">Computer vision(v)</text><text x="538" y="503.2808181747209" dy="0.35em" text-anchor="end">Theoretical computer science(v)</text><text x="538" y="433.46592239831375" dy="0.35em" text-anchor="end">Information retrieval(v)</text><text x="538" y="398.86337731282697" dy="0.35em" text-anchor="end">Machine learning(v)</text><text x="538" y="414.0059333281287" dy="0.35em" text-anchor="end">Computational science(v)</text><text x="538" y="93.29643219611211" dy="0.35em" text-anchor="end">Parallel computing(v)</text><text x="538" y="5.423218049808725" dy="0.35em" text-anchor="end">Programming language(v)</text></g></svg>