<svg xmlns="http://www.w3.org/2000/svg" xmlns:xlink="http://www.w3.org/1999/xlink" version="1.1" class="marks" width="1462" height="407" viewBox="0 0 1462 407"><rect width="1462" height="407" fill="white"/><g fill="none" stroke-miterlimit="10" transform="translate(75,40)"><g class="mark-group role-frame root" role="graphics-object" aria-roledescription="group mark container"><g transform="translate(0,0)"><path class="background" aria-hidden="true" d="M0,0h0v300h0Z"/><g><g class="mark-group role-scope concat_0_group" role="graphics-object" aria-roledescription="group mark container"><g transform="translate(0,0)"><path class="background" aria-hidden="true" d="M0.5,0.5h200v300h-200Z" stroke="#ddd"/><g><g class="mark-group role-axis" aria-hidden="true"><g transform="translate(0.5,0.5)"><path class="background" aria-hidden="true" d="M0,0h0v0h0Z" pointer-events="none"/><g><g class="mark-rule role-axis-grid" pointer-events="none"><line transform="translate(0,300)" x2="200" y2="0" stroke="#ddd" stroke-width="1" opacity="1"/><line transform="translate(0,257)" x2="200" y2="0" stroke="#ddd" stroke-width="1" opacity="1"/><line transform="translate(0,214)" x2="200" y2="0" stroke="#ddd" stroke-width="1" opacity="1"/><line transform="translate(0,171)" x2="200" y2="0" stroke="#ddd" stroke-width="1" opacity="1"/><line transform="translate(0,129)" x2="200" y2="0" stroke="#ddd" stroke-width="1" opacity="1"/><line transform="translate(0,86)" x2="200" y2="0" stroke="#ddd" stroke-width="1" opacity="1"/><line transform="translate(0,43)" x2="200" y2="0" stroke="#ddd" stroke-width="1" opacity="1"/><line transform="translate(0,0)" x2="200" y2="0" stroke="#ddd" stroke-width="1" opacity="1"/></g></g><path class="foreground" aria-hidden="true" d="" pointer-events="none" display="none"/></g></g><g class="mark-group role-axis" role="graphics-symbol" aria-roledescription="axis" aria-label="X-axis titled 'Conference track' for a discrete scale with 4 values: SciVis, VAST, InfoVis, Vis"><g transform="translate(0.5,300.5)"><path class="background" aria-hidden="true" d="M0,0h0v0h0Z" pointer-events="none"/><g><g class="mark-rule role-axis-tick" pointer-events="none"><line transform="translate(25,0)" x2="0" y2="5" stroke="#888" stroke-width="1" opacity="1"/><line transform="translate(75,0)" x2="0" y2="5" stroke="#888" stroke-width="1" opacity="1"/><line transform="translate(125,0)" x2="0" y2="5" stroke="#888" stroke-width="1" opacity="1"/><line transform="translate(175,0)" x2="0" y2="5" stroke="#888" stroke-width="1" opacity="1"/></g><g class="mark-text role-axis-label" pointer-events="none"><text text-anchor="end" transform="translate(24.5,7) rotate(340) translate(0,12)" font-family="sans-serif" font-size="15px" fill="#000" opacity="1">SciVis</text><text text-anchor="end" transform="translate(74.5,7) rotate(340) translate(0,12)" font-family="sans-serif" font-size="15px" fill="#000" opacity="1">VAST</text><text text-anchor="end" transform="translate(124.5,7) rotate(340) translate(0,12)" font-family="sans-serif" font-size="15px" fill="#000" opacity="1">InfoVis</text><text text-anchor="end" transform="translate(174.5,7) rotate(340) translate(0,12)" font-family="sans-serif" font-size="15px" fill="#000" opacity="1">Vis</text></g><g class="mark-rule role-axis-domain" pointer-events="none"><line transform="translate(0,0)" x2="200" y2="0" stroke="#888" stroke-width="1" opacity="1"/></g><g class="mark-text role-axis-title" pointer-events="none"><text text-anchor="middle" transform="translate(100,56.69150732555779)" font-family="sans-serif" font-size="20px" font-weight="bold" fill="#000" opacity="1">Conference track</text></g></g><path class="foreground" aria-hidden="true" d="" pointer-events="none" display="none"/></g></g><g class="mark-group role-axis" role="graphics-symbol" aria-roledescription="axis" aria-label="Y-axis titled 'Number of publications' for a linear scale with values from 0 to 1,400"><g transform="translate(0.5,0.5)"><path class="background" aria-hidden="true" d="M0,0h0v0h0Z" pointer-events="none"/><g><g class="mark-rule role-axis-tick" pointer-events="none"><line transform="translate(0,300)" x2="-5" y2="0" stroke="#888" stroke-width="1" opacity="1"/><line transform="translate(0,257)" x2="-5" y2="0" stroke="#888" stroke-width="1" opacity="1"/><line transform="translate(0,214)" x2="-5" y2="0" stroke="#888" stroke-width="1" opacity="1"/><line transform="translate(0,171)" x2="-5" y2="0" stroke="#888" stroke-width="1" opacity="1"/><line transform="translate(0,129)" x2="-5" y2="0" stroke="#888" stroke-width="1" opacity="1"/><line transform="translate(0,86)" x2="-5" y2="0" stroke="#888" stroke-width="1" opacity="1"/><line transform="translate(0,43)" x2="-5" y2="0" stroke="#888" stroke-width="1" opacity="1"/><line transform="translate(0,0)" x2="-5" y2="0" stroke="#888" stroke-width="1" opacity="1"/></g><g class="mark-text role-axis-label" pointer-events="none"><text text-anchor="end" transform="translate(-7,305)" font-family="sans-serif" font-size="15px" fill="#000" opacity="1">0</text><text text-anchor="end" transform="translate(-7,262.14285714285717)" font-family="sans-serif" font-size="15px" fill="#000" opacity="1">200</text><text text-anchor="end" transform="translate(-7,219.28571428571428)" font-family="sans-serif" font-size="15px" fill="#000" opacity="1">400</text><text text-anchor="end" transform="translate(-7,176.42857142857142)" font-family="sans-serif" font-size="15px" fill="#000" opacity="1">600</text><text text-anchor="end" transform="translate(-7,133.57142857142858)" font-family="sans-serif" font-size="15px" fill="#000" opacity="1">800</text><text text-anchor="end" transform="translate(-7,90.71428571428571)" font-family="sans-serif" font-size="15px" fill="#000" opacity="1">1,000</text><text text-anchor="end" transform="translate(-7,47.85714285714287)" font-family="sans-serif" font-size="15px" fill="#000" opacity="1">1,200</text><text text-anchor="end" transform="translate(-7,5)" font-family="sans-serif" font-size="15px" fill="#000" opacity="1">1,400</text></g><g class="mark-rule role-axis-domain" pointer-events="none"><line transform="translate(0,300)" x2="0" y2="-300" stroke="#888" stroke-width="1" opacity="1"/></g><g class="mark-text role-axis-title" pointer-events="none"><text text-anchor="middle" transform="translate(-48.56666564941406,150) rotate(-90) translate(0,-4)" font-family="sans-serif" font-size="20px" font-weight="bold" fill="#000" opacity="1">Number of publications</text></g></g><path class="foreground" aria-hidden="true" d="" pointer-events="none" display="none"/></g></g><g class="mark-rect role-mark concat_0_marks" role="graphics-object" aria-roledescription="rect mark container"><path aria-label="Conference track: SciVis; Number of publications: 290" role="graphics-symbol" aria-roledescription="bar" d="M2.5,237.85714285714283h45v62.14285714285717h-45Z" fill="#f58518"/><path aria-label="Conference track: VAST; Number of publications: 572" role="graphics-symbol" aria-roledescription="bar" d="M52.5,177.42857142857142h45v122.57142857142858h-45Z" fill="#e45756"/><path aria-label="Conference track: InfoVis; Number of publications: 834" role="graphics-symbol" aria-roledescription="bar" d="M102.5,121.28571428571428h45v178.71428571428572h-45Z" fill="#4c78a8"/><path aria-label="Conference track: Vis; Number of publications: 1368" role="graphics-symbol" aria-roledescription="bar" d="M152.5,6.857142857142873h45v293.1428571428571h-45Z" fill="#72b7b2"/></g><g class="mark-group role-title"><g transform="translate(-68.56666564941406,-33)"><path class="background" aria-hidden="true" d="M0,0h0v0h0Z" pointer-events="none"/><g><g class="mark-text role-title-text" role="graphics-symbol" aria-roledescription="title" aria-label="Title text 'a'" pointer-events="none"><text text-anchor="start" transform="translate(0,17)" font-family="sans-serif" font-size="22px" font-weight="bold" fill="#000" opacity="1">a</text></g></g><path class="foreground" aria-hidden="true" d="" pointer-events="none" display="none"/></g></g></g><path class="foreground" aria-hidden="true" d="" display="none"/></g></g><g class="mark-group role-scope concat_1_group" role="graphics-object" aria-roledescription="group mark container"><g transform="translate(279,0)"><path class="background" aria-hidden="true" d="M0.5,0.5h300v300h-300Z" stroke="#ddd"/><g><g class="mark-group role-axis" aria-hidden="true"><g transform="translate(0.5,300.5)"><path class="background" aria-hidden="true" d="M0,0h0v0h0Z" pointer-events="none"/><g><g class="mark-rule role-axis-grid" pointer-events="none"><line transform="translate(0,-300)" x2="0" y2="300" stroke="#ddd" stroke-width="1" opacity="1"/><line transform="translate(48,-300)" x2="0" y2="300" stroke="#ddd" stroke-width="1" opacity="1"/><line transform="translate(97,-300)" x2="0" y2="300" stroke="#ddd" stroke-width="1" opacity="1"/><line transform="translate(145,-300)" x2="0" y2="300" stroke="#ddd" stroke-width="1" opacity="1"/><line transform="translate(194,-300)" x2="0" y2="300" stroke="#ddd" stroke-width="1" opacity="1"/><line transform="translate(242,-300)" x2="0" y2="300" stroke="#ddd" stroke-width="1" opacity="1"/><line transform="translate(290,-300)" x2="0" y2="300" stroke="#ddd" stroke-width="1" opacity="1"/></g></g><path class="foreground" aria-hidden="true" d="" pointer-events="none" display="none"/></g></g><g class="mark-group role-axis" aria-hidden="true"><g transform="translate(0.5,0.5)"><path class="background" aria-hidden="true" d="M0,0h0v0h0Z" pointer-events="none"/><g><g class="mark-rule role-axis-grid" pointer-events="none"><line transform="translate(0,300)" x2="300" y2="0" stroke="#ddd" stroke-width="1" opacity="1"/><line transform="translate(0,267)" x2="300" y2="0" stroke="#ddd" stroke-width="1" opacity="1"/><line transform="translate(0,233)" x2="300" y2="0" stroke="#ddd" stroke-width="1" opacity="1"/><line transform="translate(0,200)" x2="300" y2="0" stroke="#ddd" stroke-width="1" opacity="1"/><line transform="translate(0,167)" x2="300" y2="0" stroke="#ddd" stroke-width="1" opacity="1"/><line transform="translate(0,133)" x2="300" y2="0" stroke="#ddd" stroke-width="1" opacity="1"/><line transform="translate(0,100)" x2="300" y2="0" stroke="#ddd" stroke-width="1" opacity="1"/><line transform="translate(0,67)" x2="300" y2="0" stroke="#ddd" stroke-width="1" opacity="1"/><line transform="translate(0,33)" x2="300" y2="0" stroke="#ddd" stroke-width="1" opacity="1"/><line transform="translate(0,0)" x2="300" y2="0" stroke="#ddd" stroke-width="1" opacity="1"/></g></g><path class="foreground" aria-hidden="true" d="" pointer-events="none" display="none"/></g></g><g class="mark-group role-axis" role="graphics-symbol" aria-roledescription="axis" aria-label="X-axis titled 'Year' for a time scale with values from Monday, 01 January 1990, 12:00:00 AM to Friday, 01 January 2021, 12:00:00 AM"><g transform="translate(0.5,300.5)"><path class="background" aria-hidden="true" d="M0,0h0v0h0Z" pointer-events="none"/><g><g class="mark-rule role-axis-tick" pointer-events="none"><line transform="translate(0,0)" x2="0" y2="5" stroke="#888" stroke-width="1" opacity="1"/><line transform="translate(48,0)" x2="0" y2="5" stroke="#888" stroke-width="1" opacity="1"/><line transform="translate(97,0)" x2="0" y2="5" stroke="#888" stroke-width="1" opacity="1"/><line transform="translate(145,0)" x2="0" y2="5" stroke="#888" stroke-width="1" opacity="1"/><line transform="translate(194,0)" x2="0" y2="5" stroke="#888" stroke-width="1" opacity="1"/><line transform="translate(242,0)" x2="0" y2="5" stroke="#888" stroke-width="1" opacity="1"/><line transform="translate(290,0)" x2="0" y2="5" stroke="#888" stroke-width="1" opacity="1"/></g><g class="mark-text role-axis-label" pointer-events="none"><text text-anchor="start" transform="translate(0,19)" font-family="sans-serif" font-size="15px" fill="#000" opacity="1">1990</text><text text-anchor="middle" transform="translate(48.37940475139097,19)" font-family="sans-serif" font-size="15px" fill="#000" opacity="0">1995</text><text text-anchor="middle" transform="translate(96.75880950278194,19)" font-family="sans-serif" font-size="15px" fill="#000" opacity="1">2000</text><text text-anchor="middle" transform="translate(145.1647089993818,19)" font-family="sans-serif" font-size="15px" fill="#000" opacity="0">2005</text><text text-anchor="middle" transform="translate(193.54411375077277,19)" font-family="sans-serif" font-size="15px" fill="#000" opacity="1">2010</text><text text-anchor="middle" transform="translate(241.92351850216372,19)" font-family="sans-serif" font-size="15px" fill="#000" opacity="0">2015</text><text text-anchor="middle" transform="translate(290.3029232535547,19)" font-family="sans-serif" font-size="15px" fill="#000" opacity="1">2020</text></g><g class="mark-rule role-axis-domain" pointer-events="none"><line transform="translate(0,0)" x2="300" y2="0" stroke="#888" stroke-width="1" opacity="1"/></g><g class="mark-text role-axis-title" pointer-events="none"><text text-anchor="middle" transform="translate(150,42)" font-family="sans-serif" font-size="20px" font-weight="bold" fill="#000" opacity="1">Year</text></g></g><path class="foreground" aria-hidden="true" d="" pointer-events="none" display="none"/></g></g><g class="mark-group role-axis" role="graphics-symbol" aria-roledescription="axis" aria-label="Y-axis titled 'Number of publications' for a linear scale with values from 0 to 180"><g transform="translate(0.5,0.5)"><path class="background" aria-hidden="true" d="M0,0h0v0h0Z" pointer-events="none"/><g><g class="mark-rule role-axis-tick" pointer-events="none"><line transform="translate(0,300)" x2="-5" y2="0" stroke="#888" stroke-width="1" opacity="1"/><line transform="translate(0,267)" x2="-5" y2="0" stroke="#888" stroke-width="1" opacity="1"/><line transform="translate(0,233)" x2="-5" y2="0" stroke="#888" stroke-width="1" opacity="1"/><line transform="translate(0,200)" x2="-5" y2="0" stroke="#888" stroke-width="1" opacity="1"/><line transform="translate(0,167)" x2="-5" y2="0" stroke="#888" stroke-width="1" opacity="1"/><line transform="translate(0,133)" x2="-5" y2="0" stroke="#888" stroke-width="1" opacity="1"/><line transform="translate(0,100)" x2="-5" y2="0" stroke="#888" stroke-width="1" opacity="1"/><line transform="translate(0,67)" x2="-5" y2="0" stroke="#888" stroke-width="1" opacity="1"/><line transform="translate(0,33)" x2="-5" y2="0" stroke="#888" stroke-width="1" opacity="1"/><line transform="translate(0,0)" x2="-5" y2="0" stroke="#888" stroke-width="1" opacity="1"/></g><g class="mark-text role-axis-label" pointer-events="none"><text text-anchor="end" transform="translate(-7,305)" font-family="sans-serif" font-size="15px" fill="#000" opacity="1">0</text><text text-anchor="end" transform="translate(-7,271.66666666666663)" font-family="sans-serif" font-size="15px" fill="#000" opacity="1">20</text><text text-anchor="end" transform="translate(-7,238.33333333333334)" font-family="sans-serif" font-size="15px" fill="#000" opacity="1">40</text><text text-anchor="end" transform="translate(-7,205.00000000000003)" font-family="sans-serif" font-size="15px" fill="#000" opacity="1">60</text><text text-anchor="end" transform="translate(-7,171.66666666666669)" font-family="sans-serif" font-size="15px" fill="#000" opacity="1">80</text><text text-anchor="end" transform="translate(-7,138.33333333333331)" font-family="sans-serif" font-size="15px" fill="#000" opacity="1">100</text><text text-anchor="end" transform="translate(-7,105.00000000000001)" font-family="sans-serif" font-size="15px" fill="#000" opacity="1">120</text><text text-anchor="end" transform="translate(-7,71.66666666666666)" font-family="sans-serif" font-size="15px" fill="#000" opacity="1">140</text><text text-anchor="end" transform="translate(-7,38.33333333333335)" font-family="sans-serif" font-size="15px" fill="#000" opacity="1">160</text><text text-anchor="end" transform="translate(-7,5)" font-family="sans-serif" font-size="15px" fill="#000" opacity="1">180</text></g><g class="mark-rule role-axis-domain" pointer-events="none"><line transform="translate(0,300)" x2="0" y2="-300" stroke="#888" stroke-width="1" opacity="1"/></g><g class="mark-text role-axis-title" pointer-events="none"><text text-anchor="middle" transform="translate(-36.04999923706055,150) rotate(-90) translate(0,-4)" font-family="sans-serif" font-size="20px" font-weight="bold" fill="#000" opacity="1">Number of publications</text></g></g><path class="foreground" aria-hidden="true" d="" pointer-events="none" display="none"/></g></g><g class="mark-line role-mark concat_1_marks" role="graphics-object" aria-roledescription="line mark container"><path aria-label="Year: Jan 01, 1990; Number of publications: 52" role="graphics-symbol" aria-roledescription="line mark" d="M0,213.33333333333334L9.670582001236422,220.00000000000003L19.341164002472844,215L29.038240748918135,208.33333333333331L38.70882275015455,213.33333333333334L48.37940475139097,176.66666666666669L58.0499867526274,171.66666666666666L67.74706349907268,153.33333333333331L77.4176455003091,150L87.08822750154552,153.33333333333331L96.75880950278194,146.66666666666669L106.45588624922723,140L116.12646825046366,131.66666666666666L125.79705025170009,130L135.4676322529365,138.33333333333334L145.1647089993818,101.66666666666667L154.8352910006182,111.66666666666667L164.50587300185464,121.66666666666667L174.17645500309104,135L183.87353174953637,105L193.54411375077277,118.33333333333334L203.2146957520092,101.66666666666667L212.88527775324562,106.66666666666666L222.5823544996909,131.66666666666666L232.25293650092732,80.00000000000001L241.92351850216372,88.33333333333331L251.59410050340017,108.33333333333334L261.2911772498454,110.00000000000001L270.9617592510819,88.33333333333331L280.63234125231827,85L290.3029232535547,38.33333333333333L300,18.333333333333336" stroke="#4c78a8" stroke-width="2"/></g><g class="mark-group role-title"><g transform="translate(-56.04999923706055,-33)"><path class="background" aria-hidden="true" d="M0,0h0v0h0Z" pointer-events="none"/><g><g class="mark-text role-title-text" role="graphics-symbol" aria-roledescription="title" aria-label="Title text 'b'" pointer-events="none"><text text-anchor="start" transform="translate(0,17)" font-family="sans-serif" font-size="22px" font-weight="bold" fill="#000" opacity="1">b</text></g></g><path class="foreground" aria-hidden="true" d="" pointer-events="none" display="none"/></g></g></g><path class="foreground" aria-hidden="true" d="" display="none"/></g></g><g class="mark-group role-scope concat_2_group" role="graphics-object" aria-roledescription="group mark container"><g transform="translate(666,0)"><path class="background" aria-hidden="true" d="M0.5,0.5h300v300h-300Z" stroke="#ddd"/><g><g class="mark-group role-axis" aria-hidden="true"><g transform="translate(0.5,300.5)"><path class="background" aria-hidden="true" d="M0,0h0v0h0Z" pointer-events="none"/><g><g class="mark-rule role-axis-grid" pointer-events="none"><line transform="translate(0,-300)" x2="0" y2="300" stroke="#ddd" stroke-width="1" opacity="1"/><line transform="translate(48,-300)" x2="0" y2="300" stroke="#ddd" stroke-width="1" opacity="1"/><line transform="translate(97,-300)" x2="0" y2="300" stroke="#ddd" stroke-width="1" opacity="1"/><line transform="translate(145,-300)" x2="0" y2="300" stroke="#ddd" stroke-width="1" opacity="1"/><line transform="translate(194,-300)" x2="0" y2="300" stroke="#ddd" stroke-width="1" opacity="1"/><line transform="translate(242,-300)" x2="0" y2="300" stroke="#ddd" stroke-width="1" opacity="1"/><line transform="translate(290,-300)" x2="0" y2="300" stroke="#ddd" stroke-width="1" opacity="1"/></g></g><path class="foreground" aria-hidden="true" d="" pointer-events="none" display="none"/></g></g><g class="mark-group role-axis" aria-hidden="true"><g transform="translate(0.5,0.5)"><path class="background" aria-hidden="true" d="M0,0h0v0h0Z" pointer-events="none"/><g><g class="mark-rule role-axis-grid" pointer-events="none"><line transform="translate(0,300)" x2="300" y2="0" stroke="#ddd" stroke-width="1" opacity="1"/><line transform="translate(0,257)" x2="300" y2="0" stroke="#ddd" stroke-width="1" opacity="1"/><line transform="translate(0,214)" x2="300" y2="0" stroke="#ddd" stroke-width="1" opacity="1"/><line transform="translate(0,171)" x2="300" y2="0" stroke="#ddd" stroke-width="1" opacity="1"/><line transform="translate(0,129)" x2="300" y2="0" stroke="#ddd" stroke-width="1" opacity="1"/><line transform="translate(0,86)" x2="300" y2="0" stroke="#ddd" stroke-width="1" opacity="1"/><line transform="translate(0,43)" x2="300" y2="0" stroke="#ddd" stroke-width="1" opacity="1"/><line transform="translate(0,0)" x2="300" y2="0" stroke="#ddd" stroke-width="1" opacity="1"/></g></g><path class="foreground" aria-hidden="true" d="" pointer-events="none" display="none"/></g></g><g class="mark-group role-axis" role="graphics-symbol" aria-roledescription="axis" aria-label="X-axis titled 'Year' for a time scale with values from Monday, 01 January 1990, 12:00:00 AM to Friday, 01 January 2021, 12:00:00 AM"><g transform="translate(0.5,300.5)"><path class="background" aria-hidden="true" d="M0,0h0v0h0Z" pointer-events="none"/><g><g class="mark-rule role-axis-tick" pointer-events="none"><line transform="translate(0,0)" x2="0" y2="5" stroke="#888" stroke-width="1" opacity="1"/><line transform="translate(48,0)" x2="0" y2="5" stroke="#888" stroke-width="1" opacity="1"/><line transform="translate(97,0)" x2="0" y2="5" stroke="#888" stroke-width="1" opacity="1"/><line transform="translate(145,0)" x2="0" y2="5" stroke="#888" stroke-width="1" opacity="1"/><line transform="translate(194,0)" x2="0" y2="5" stroke="#888" stroke-width="1" opacity="1"/><line transform="translate(242,0)" x2="0" y2="5" stroke="#888" stroke-width="1" opacity="1"/><line transform="translate(290,0)" x2="0" y2="5" stroke="#888" stroke-width="1" opacity="1"/></g><g class="mark-text role-axis-label" pointer-events="none"><text text-anchor="start" transform="translate(0,19)" font-family="sans-serif" font-size="15px" fill="#000" opacity="1">1990</text><text text-anchor="middle" transform="translate(48.37940475139097,19)" font-family="sans-serif" font-size="15px" fill="#000" opacity="0">1995</text><text text-anchor="middle" transform="translate(96.75880950278194,19)" font-family="sans-serif" font-size="15px" fill="#000" opacity="1">2000</text><text text-anchor="middle" transform="translate(145.1647089993818,19)" font-family="sans-serif" font-size="15px" fill="#000" opacity="0">2005</text><text text-anchor="middle" transform="translate(193.54411375077277,19)" font-family="sans-serif" font-size="15px" fill="#000" opacity="1">2010</text><text text-anchor="middle" transform="translate(241.92351850216372,19)" font-family="sans-serif" font-size="15px" fill="#000" opacity="0">2015</text><text text-anchor="middle" transform="translate(290.3029232535547,19)" font-family="sans-serif" font-size="15px" fill="#000" opacity="1">2020</text></g><g class="mark-rule role-axis-domain" pointer-events="none"><line transform="translate(0,0)" x2="300" y2="0" stroke="#888" stroke-width="1" opacity="1"/></g><g class="mark-text role-axis-title" pointer-events="none"><text text-anchor="middle" transform="translate(150,42)" font-family="sans-serif" font-size="20px" font-weight="bold" fill="#000" opacity="1">Year</text></g></g><path class="foreground" aria-hidden="true" d="" pointer-events="none" display="none"/></g></g><g class="mark-group role-axis" role="graphics-symbol" aria-roledescription="axis" aria-label="Y-axis titled 'Number of unique authors' for a linear scale with values from 0 to 700"><g transform="translate(0.5,0.5)"><path class="background" aria-hidden="true" d="M0,0h0v0h0Z" pointer-events="none"/><g><g class="mark-rule role-axis-tick" pointer-events="none"><line transform="translate(0,300)" x2="-5" y2="0" stroke="#888" stroke-width="1" opacity="1"/><line transform="translate(0,257)" x2="-5" y2="0" stroke="#888" stroke-width="1" opacity="1"/><line transform="translate(0,214)" x2="-5" y2="0" stroke="#888" stroke-width="1" opacity="1"/><line transform="translate(0,171)" x2="-5" y2="0" stroke="#888" stroke-width="1" opacity="1"/><line transform="translate(0,129)" x2="-5" y2="0" stroke="#888" stroke-width="1" opacity="1"/><line transform="translate(0,86)" x2="-5" y2="0" stroke="#888" stroke-width="1" opacity="1"/><line transform="translate(0,43)" x2="-5" y2="0" stroke="#888" stroke-width="1" opacity="1"/><line transform="translate(0,0)" x2="-5" y2="0" stroke="#888" stroke-width="1" opacity="1"/></g><g class="mark-text role-axis-label" pointer-events="none"><text text-anchor="end" transform="translate(-7,305)" font-family="sans-serif" font-size="15px" fill="#000" opacity="1">0</text><text text-anchor="end" transform="translate(-7,262.14285714285717)" font-family="sans-serif" font-size="15px" fill="#000" opacity="1">100</text><text text-anchor="end" transform="translate(-7,219.28571428571428)" font-family="sans-serif" font-size="15px" fill="#000" opacity="1">200</text><text text-anchor="end" transform="translate(-7,176.42857142857142)" font-family="sans-serif" font-size="15px" fill="#000" opacity="1">300</text><text text-anchor="end" transform="translate(-7,133.57142857142858)" font-family="sans-serif" font-size="15px" fill="#000" opacity="1">400</text><text text-anchor="end" transform="translate(-7,90.71428571428571)" font-family="sans-serif" font-size="15px" fill="#000" opacity="1">500</text><text text-anchor="end" transform="translate(-7,47.85714285714287)" font-family="sans-serif" font-size="15px" fill="#000" opacity="1">600</text><text text-anchor="end" transform="translate(-7,5)" font-family="sans-serif" font-size="15px" fill="#000" opacity="1">700</text></g><g class="mark-rule role-axis-domain" pointer-events="none"><line transform="translate(0,300)" x2="0" y2="-300" stroke="#888" stroke-width="1" opacity="1"/></g><g class="mark-text role-axis-title" pointer-events="none"><text text-anchor="middle" transform="translate(-36.04999923706055,150) rotate(-90) translate(0,-4)" font-family="sans-serif" font-size="20px" font-weight="bold" fill="#000" opacity="1">Number of unique authors</text></g></g><path class="foreground" aria-hidden="true" d="" pointer-events="none" display="none"/></g></g><g class="mark-line role-mark concat_2_marks" role="graphics-object" aria-roledescription="line mark container"><path aria-label="Year: Jan 01, 1990; Number of unique authors: 118" role="graphics-symbol" aria-roledescription="line mark" d="M0,249.42857142857142L9.670582001236422,248.57142857142856L19.341164002472844,249L29.038240748918135,250.28571428571428L38.70882275015455,245.57142857142856L48.37940475139097,221.14285714285714L58.0499867526274,202.71428571428572L67.74706349907268,203.14285714285714L77.4176455003091,200.99999999999997L87.08822750154552,195.42857142857144L96.75880950278194,184.7142857142857L106.45588624922723,176.57142857142856L116.12646825046366,184.2857142857143L125.79705025170009,178.7142857142857L135.4676322529365,177.00000000000003L145.1647089993818,143.14285714285714L154.8352910006182,160.28571428571428L164.50587300185464,153.42857142857144L174.17645500309104,156.42857142857142L183.87353174953637,139.28571428571428L193.54411375077277,141.85714285714286L203.2146957520092,123.42857142857144L212.88527775324562,119.14285714285714L222.5823544996909,149.57142857142856L232.25293650092732,84.85714285714285L241.92351850216372,87.85714285714285L251.59410050340017,109.28571428571429L261.2911772498454,105L270.9617592510819,88.28571428571428L280.63234125231827,63.857142857142854L290.3029232535547,26.142857142857157L300,11.571428571428577" stroke="#4c78a8" stroke-width="2"/></g><g class="mark-group role-title"><g transform="translate(-56.04999923706055,-33)"><path class="background" aria-hidden="true" d="M0,0h0v0h0Z" pointer-events="none"/><g><g class="mark-text role-title-text" role="graphics-symbol" aria-roledescription="title" aria-label="Title text 'c'" pointer-events="none"><text text-anchor="start" transform="translate(0,17)" font-family="sans-serif" font-size="22px" font-weight="bold" fill="#000" opacity="1">c</text></g></g><path class="foreground" aria-hidden="true" d="" pointer-events="none" display="none"/></g></g></g><path class="foreground" aria-hidden="true" d="" display="none"/></g></g><g class="mark-group role-scope concat_3_group" role="graphics-object" aria-roledescription="group mark container"><g transform="translate(1073,0)"><path class="background" aria-hidden="true" d="M0.5,0.5h300v300h-300Z" stroke="#ddd"/><g><g class="mark-group role-axis" aria-hidden="true"><g transform="translate(0.5,300.5)"><path class="background" aria-hidden="true" d="M0,0h0v0h0Z" pointer-events="none"/><g><g class="mark-rule role-axis-grid" pointer-events="none"><line transform="translate(0,-300)" x2="0" y2="300" stroke="#ddd" stroke-width="1" opacity="1"/><line transform="translate(48,-300)" x2="0" y2="300" stroke="#ddd" stroke-width="1" opacity="1"/><line transform="translate(97,-300)" x2="0" y2="300" stroke="#ddd" stroke-width="1" opacity="1"/><line transform="translate(145,-300)" x2="0" y2="300" stroke="#ddd" stroke-width="1" opacity="1"/><line transform="translate(194,-300)" x2="0" y2="300" stroke="#ddd" stroke-width="1" opacity="1"/><line transform="translate(242,-300)" x2="0" y2="300" stroke="#ddd" stroke-width="1" opacity="1"/><line transform="translate(290,-300)" x2="0" y2="300" stroke="#ddd" stroke-width="1" opacity="1"/></g></g><path class="foreground" aria-hidden="true" d="" pointer-events="none" display="none"/></g></g><g class="mark-group role-axis" aria-hidden="true"><g transform="translate(0.5,0.5)"><path class="background" aria-hidden="true" d="M0,0h0v0h0Z" pointer-events="none"/><g><g class="mark-rule role-axis-grid" pointer-events="none"><line transform="translate(0,300)" x2="300" y2="0" stroke="#ddd" stroke-width="1" opacity="1"/><line transform="translate(0,257)" x2="300" y2="0" stroke="#ddd" stroke-width="1" opacity="1"/><line transform="translate(0,214)" x2="300" y2="0" stroke="#ddd" stroke-width="1" opacity="1"/><line transform="translate(0,171)" x2="300" y2="0" stroke="#ddd" stroke-width="1" opacity="1"/><line transform="translate(0,129)" x2="300" y2="0" stroke="#ddd" stroke-width="1" opacity="1"/><line transform="translate(0,86)" x2="300" y2="0" stroke="#ddd" stroke-width="1" opacity="1"/><line transform="translate(0,43)" x2="300" y2="0" stroke="#ddd" stroke-width="1" opacity="1"/><line transform="translate(0,0)" x2="300" y2="0" stroke="#ddd" stroke-width="1" opacity="1"/></g></g><path class="foreground" aria-hidden="true" d="" pointer-events="none" display="none"/></g></g><g class="mark-group role-axis" role="graphics-symbol" aria-roledescription="axis" aria-label="X-axis titled 'Year' for a time scale with values from Monday, 01 January 1990, 12:00:00 AM to Friday, 01 January 2021, 12:00:00 AM"><g transform="translate(0.5,300.5)"><path class="background" aria-hidden="true" d="M0,0h0v0h0Z" pointer-events="none"/><g><g class="mark-rule role-axis-tick" pointer-events="none"><line transform="translate(0,0)" x2="0" y2="5" stroke="#888" stroke-width="1" opacity="1"/><line transform="translate(48,0)" x2="0" y2="5" stroke="#888" stroke-width="1" opacity="1"/><line transform="translate(97,0)" x2="0" y2="5" stroke="#888" stroke-width="1" opacity="1"/><line transform="translate(145,0)" x2="0" y2="5" stroke="#888" stroke-width="1" opacity="1"/><line transform="translate(194,0)" x2="0" y2="5" stroke="#888" stroke-width="1" opacity="1"/><line transform="translate(242,0)" x2="0" y2="5" stroke="#888" stroke-width="1" opacity="1"/><line transform="translate(290,0)" x2="0" y2="5" stroke="#888" stroke-width="1" opacity="1"/></g><g class="mark-text role-axis-label" pointer-events="none"><text text-anchor="start" transform="translate(0,19)" font-family="sans-serif" font-size="15px" fill="#000" opacity="1">1990</text><text text-anchor="middle" transform="translate(48.37940475139097,19)" font-family="sans-serif" font-size="15px" fill="#000" opacity="0">1995</text><text text-anchor="middle" transform="translate(96.75880950278194,19)" font-family="sans-serif" font-size="15px" fill="#000" opacity="1">2000</text><text text-anchor="middle" transform="translate(145.1647089993818,19)" font-family="sans-serif" font-size="15px" fill="#000" opacity="0">2005</text><text text-anchor="middle" transform="translate(193.54411375077277,19)" font-family="sans-serif" font-size="15px" fill="#000" opacity="1">2010</text><text text-anchor="middle" transform="translate(241.92351850216372,19)" font-family="sans-serif" font-size="15px" fill="#000" opacity="0">2015</text><text text-anchor="middle" transform="translate(290.3029232535547,19)" font-family="sans-serif" font-size="15px" fill="#000" opacity="1">2020</text></g><g class="mark-rule role-axis-domain" pointer-events="none"><line transform="translate(0,0)" x2="300" y2="0" stroke="#888" stroke-width="1" opacity="1"/></g><g class="mark-text role-axis-title" pointer-events="none"><text text-anchor="middle" transform="translate(150,42)" font-family="sans-serif" font-size="20px" font-weight="bold" fill="#000" opacity="1">Year</text></g></g><path class="foreground" aria-hidden="true" d="" pointer-events="none" display="none"/></g></g><g class="mark-group role-axis" role="graphics-symbol" aria-roledescription="axis" aria-label="Y-axis titled 'Number of citations' for a linear scale with values from 0 to 14,000"><g transform="translate(0.5,0.5)"><path class="background" aria-hidden="true" d="M0,0h0v0h0Z" pointer-events="none"/><g><g class="mark-rule role-axis-tick" pointer-events="none"><line transform="translate(0,300)" x2="-5" y2="0" stroke="#888" stroke-width="1" opacity="1"/><line transform="translate(0,257)" x2="-5" y2="0" stroke="#888" stroke-width="1" opacity="1"/><line transform="translate(0,214)" x2="-5" y2="0" stroke="#888" stroke-width="1" opacity="1"/><line transform="translate(0,171)" x2="-5" y2="0" stroke="#888" stroke-width="1" opacity="1"/><line transform="translate(0,129)" x2="-5" y2="0" stroke="#888" stroke-width="1" opacity="1"/><line transform="translate(0,86)" x2="-5" y2="0" stroke="#888" stroke-width="1" opacity="1"/><line transform="translate(0,43)" x2="-5" y2="0" stroke="#888" stroke-width="1" opacity="1"/><line transform="translate(0,0)" x2="-5" y2="0" stroke="#888" stroke-width="1" opacity="1"/></g><g class="mark-text role-axis-label" pointer-events="none"><text text-anchor="end" transform="translate(-7,305)" font-family="sans-serif" font-size="15px" fill="#000" opacity="1">0</text><text text-anchor="end" transform="translate(-7,262.14285714285717)" font-family="sans-serif" font-size="15px" fill="#000" opacity="1">2,000</text><text text-anchor="end" transform="translate(-7,219.28571428571428)" font-family="sans-serif" font-size="15px" fill="#000" opacity="1">4,000</text><text text-anchor="end" transform="translate(-7,176.42857142857142)" font-family="sans-serif" font-size="15px" fill="#000" opacity="1">6,000</text><text text-anchor="end" transform="translate(-7,133.57142857142858)" font-family="sans-serif" font-size="15px" fill="#000" opacity="1">8,000</text><text text-anchor="end" transform="translate(-7,90.71428571428571)" font-family="sans-serif" font-size="15px" fill="#000" opacity="1">10,000</text><text text-anchor="end" transform="translate(-7,47.85714285714287)" font-family="sans-serif" font-size="15px" fill="#000" opacity="1">12,000</text><text text-anchor="end" transform="translate(-7,5)" font-family="sans-serif" font-size="15px" fill="#000" opacity="1">14,000</text></g><g class="mark-rule role-axis-domain" pointer-events="none"><line transform="translate(0,300)" x2="0" y2="-300" stroke="#888" stroke-width="1" opacity="1"/></g><g class="mark-text role-axis-title" pointer-events="none"><text text-anchor="middle" transform="translate(-56.91666793823242,150) rotate(-90) translate(0,-4)" font-family="sans-serif" font-size="20px" font-weight="bold" fill="#000" opacity="1">Number of citations</text></g></g><path class="foreground" aria-hidden="true" d="" pointer-events="none" display="none"/></g></g><g class="mark-group role-scope concat_3_pathgroup" role="graphics-object" aria-roledescription="group mark container"><g transform="translate(0,0)"><path class="background" aria-hidden="true" d="M0,0h300v300h-300Z"/><g><g class="mark-area role-mark concat_3_marks" role="graphics-object" aria-roledescription="area mark container"><path aria-label="Who cited VIS: Non-VIS; Year: Jan 01, 1990; Number of citations: 6" role="graphics-symbol" aria-roledescription="area mark" d="M0,299.8285714285714L9.670582001236422,298.3071428571428L19.341164002472844,296.0571428571429L29.038240748918135,293.93571428571425L38.70882275015455,291.5785714285714L48.37940475139097,287.0785714285714L58.0499867526274,286.6928571428571L67.74706349907268,279.3L77.4176455003091,277.09285714285716L87.08822750154552,271.1357142857143L96.75880950278194,264.45L106.45588624922723,258.79285714285714L116.12646825046366,246.0857142857143L125.79705025170009,232.00714285714287L135.4676322529365,216.8785714285714L145.1647089993818,205.11428571428573L154.8352910006182,199.8642857142857L164.50587300185464,195.55714285714288L174.17645500309104,187.5L183.87353174953637,181.35000000000002L193.54411375077277,175.95000000000002L203.2146957520092,151.37142857142857L212.88527775324562,146.74285714285713L222.5823544996909,136.90714285714287L232.25293650092732,118.60714285714286L241.92351850216372,139.75714285714287L251.59410050340017,100.41428571428573L261.2911772498454,100.71428571428572L270.9617592510819,94.07142857142858L280.63234125231827,59.22857142857142L290.3029232535547,22.692857142857136L300,14.014285714285712L300,257.29285714285714L290.3029232535547,269.01428571428573L280.63234125231827,272.8285714285714L270.9617592510819,278.57142857142856L261.2911772498454,279.15L251.59410050340017,278.6357142857143L241.92351850216372,297.34285714285716L232.25293650092732,278.7214285714286L222.5823544996909,285.3L212.88527775324562,285.79285714285714L203.2146957520092,283.65L193.54411375077277,286.6071428571429L183.87353174953637,286.2857142857143L174.17645500309104,289.9071428571429L164.50587300185464,290.27142857142854L154.8352910006182,290.0785714285714L145.1647089993818,290.8285714285714L135.4676322529365,291.1928571428571L125.79705025170009,293.27142857142854L116.12646825046366,294.15000000000003L106.45588624922723,295.3071428571428L96.75880950278194,294.49285714285713L87.08822750154552,295.24285714285713L77.4176455003091,295.0285714285714L67.74706349907268,296.4214285714286L58.0499867526274,297.62142857142857L48.37940475139097,297.62142857142857L38.70882275015455,298.09285714285716L29.038240748918135,298.7785714285714L19.341164002472844,298.8L9.670582001236422,299.55L0,299.95714285714286Z" fill="hotpink"/></g></g><path class="foreground" aria-hidden="true" d="" display="none"/></g><g transform="translate(0,0)"><path class="background" aria-hidden="true" d="M0,0h300v300h-300Z"/><g><g class="mark-area role-mark concat_3_marks" role="graphics-object" aria-roledescription="area mark container"><path aria-label="Who cited VIS: VIS; Year: Jan 01, 1990; Number of citations: 2" role="graphics-symbol" aria-roledescription="area mark" d="M0,299.95714285714286L9.670582001236422,299.55L19.341164002472844,298.8L29.038240748918135,298.7785714285714L38.70882275015455,298.09285714285716L48.37940475139097,297.62142857142857L58.0499867526274,297.62142857142857L67.74706349907268,296.4214285714286L77.4176455003091,295.0285714285714L87.08822750154552,295.24285714285713L96.75880950278194,294.49285714285713L106.45588624922723,295.3071428571428L116.12646825046366,294.15000000000003L125.79705025170009,293.27142857142854L135.4676322529365,291.1928571428571L145.1647089993818,290.8285714285714L154.8352910006182,290.0785714285714L164.50587300185464,290.27142857142854L174.17645500309104,289.9071428571429L183.87353174953637,286.2857142857143L193.54411375077277,286.6071428571429L203.2146957520092,283.65L212.88527775324562,285.79285714285714L222.5823544996909,285.3L232.25293650092732,278.7214285714286L241.92351850216372,297.34285714285716L251.59410050340017,278.6357142857143L261.2911772498454,279.15L270.9617592510819,278.57142857142856L280.63234125231827,272.8285714285714L290.3029232535547,269.01428571428573L300,257.29285714285714L300,300L290.3029232535547,300L280.63234125231827,300L270.9617592510819,300L261.2911772498454,300L251.59410050340017,300L241.92351850216372,300L232.25293650092732,300L222.5823544996909,300L212.88527775324562,300L203.2146957520092,300L193.54411375077277,300L183.87353174953637,300L174.17645500309104,300L164.50587300185464,300L154.8352910006182,300L145.1647089993818,300L135.4676322529365,300L125.79705025170009,300L116.12646825046366,300L106.45588624922723,300L96.75880950278194,300L87.08822750154552,300L77.4176455003091,300L67.74706349907268,300L58.0499867526274,300L48.37940475139097,300L38.70882275015455,300L29.038240748918135,300L19.341164002472844,300L9.670582001236422,300L0,300Z" fill="skyblue"/></g></g><path class="foreground" aria-hidden="true" d="" display="none"/></g></g><g class="mark-group role-legend" role="graphics-symbol" aria-roledescription="legend" aria-label="Symbol legend titled 'Who cited VIS' for fill color with 2 values: Non-VIS, VIS"><g transform="translate(18,18)"><path class="background" aria-hidden="true" d="M0,0h94v53h-94Z" pointer-events="none"/><g><g class="mark-group role-legend-entry"><g transform="translate(0,19)"><path class="background" aria-hidden="true" d="M0,0h0v0h0Z" pointer-events="none"/><g><g class="mark-group role-scope" role="graphics-object" aria-roledescription="group mark container"><g transform="translate(0,0)"><path class="background" aria-hidden="true" d="M0,0h80.46666717529297v16h-80.46666717529297Z" pointer-events="none" opacity="1"/><g><g class="mark-symbol role-legend-symbol" pointer-events="none"><path transform="translate(8,8)" d="M5,0A5,5,0,1,1,-5,0A5,5,0,1,1,5,0" fill="hotpink" stroke-width="1.5" opacity="1"/></g><g class="mark-text role-legend-label" pointer-events="none"><text text-anchor="start" transform="translate(20,13)" font-family="sans-serif" font-size="16px" fill="#000" opacity="1">Non-VIS</text></g></g><path class="foreground" aria-hidden="true" d="" pointer-events="none" display="none"/></g><g transform="translate(0,18)"><path class="background" aria-hidden="true" d="M0,0h80.46666717529297v16h-80.46666717529297Z" pointer-events="none" opacity="1"/><g><g class="mark-symbol role-legend-symbol" pointer-events="none"><path transform="translate(8,8)" d="M5,0A5,5,0,1,1,-5,0A5,5,0,1,1,5,0" fill="skyblue" stroke-width="1.5" opacity="1"/></g><g class="mark-text role-legend-label" pointer-events="none"><text text-anchor="start" transform="translate(20,13)" font-family="sans-serif" font-size="16px" fill="#000" opacity="1">VIS</text></g></g><path class="foreground" aria-hidden="true" d="" pointer-events="none" display="none"/></g></g></g><path class="foreground" aria-hidden="true" d="" pointer-events="none" display="none"/></g></g><g class="mark-text role-legend-title" pointer-events="none"><text text-anchor="start" transform="translate(0,11)" font-family="sans-serif" font-size="14px" font-weight="bold" fill="#000" opacity="1">Who cited VIS</text></g></g><path class="foreground" aria-hidden="true" d="" pointer-events="none" display="none"/></g></g><g class="mark-group role-title"><g transform="translate(-76.91666793823242,-33)"><path class="background" aria-hidden="true" d="M0,0h0v0h0Z" pointer-events="none"/><g><g class="mark-text role-title-text" role="graphics-symbol" aria-roledescription="title" aria-label="Title text 'd'" pointer-events="none"><text text-anchor="start" transform="translate(0,17)" font-family="sans-serif" font-size="22px" font-weight="bold" fill="#000" opacity="1">d</text></g></g><path class="foreground" aria-hidden="true" d="" pointer-events="none" display="none"/></g></g></g><path class="foreground" aria-hidden="true" d="" display="none"/></g></g></g><path class="foreground" aria-hidden="true" d="" display="none"/></g></g></g></svg>